<?xml version="1.0" encoding="UTF-8" standalone="no"?>
<svg
   xmlns:dc="http://purl.org/dc/elements/1.1/"
   xmlns:cc="http://creativecommons.org/ns#"
   xmlns:rdf="http://www.w3.org/1999/02/22-rdf-syntax-ns#"
   xmlns:svg="http://www.w3.org/2000/svg"
   xmlns="http://www.w3.org/2000/svg"
   xmlns:sodipodi="http://sodipodi.sourceforge.net/DTD/sodipodi-0.dtd"
   xmlns:inkscape="http://www.inkscape.org/namespaces/inkscape"
   id="svg1903"
   version="1.1"
   viewBox="0 0 16.46419 15.597285"
   height="15.597285mm"
   width="16.46419mm"
   sodipodi:docname="capacitor-ceramic.svg"
   inkscape:version="0.92.5 (2060ec1f9f, 2020-04-08)">
  <sodipodi:namedview
     pagecolor="#ffffff"
     bordercolor="#666666"
     borderopacity="1"
     objecttolerance="10"
     gridtolerance="10"
     guidetolerance="10"
     inkscape:pageopacity="0"
     inkscape:pageshadow="2"
     inkscape:window-width="1848"
     inkscape:window-height="1016"
     id="namedview968"
     showgrid="false"
     inkscape:zoom="13.361571"
     inkscape:cx="33.34642"
     inkscape:cy="10.709927"
     inkscape:window-x="1992"
     inkscape:window-y="27"
     inkscape:window-maximized="1"
     inkscape:current-layer="g9341"
     fit-margin-top="0"
     fit-margin-left="0"
     fit-margin-right="0"
     fit-margin-bottom="0" />
  <defs
     id="defs1897">
    <linearGradient
       y2="-335.05099"
       id="SVGID_1_"
       gradientTransform="matrix(1,0,0,-1,273,-448.8574)"
       x1="-192.873"
       x2="-182.577"
       y1="-335.05099"
       gradientUnits="userSpaceOnUse">
      <stop
         style="stop-color:#333333"
         offset="0"
         id="stop2993" />
      <stop
         style="stop-color:#3C3C3C"
         offset="1"
         id="stop2995" />
    </linearGradient>
  </defs>
  <metadata
     id="metadata1900">
    <rdf:RDF>
      <cc:Work
         rdf:about="">
        <dc:format>image/svg+xml</dc:format>
        <dc:type
           rdf:resource="http://purl.org/dc/dcmitype/StillImage" />
        <dc:title></dc:title>
      </cc:Work>
    </rdf:RDF>
  </metadata>
  <g
     transform="translate(-29.26519,-31.489031)"
     id="layer1">
    <g
       transform="matrix(0.352777,0,0,0.352777,-119.97295,-44.455356)"
       partID="855222110"
       id="g9341">
      <path
         id="path9317"
         d="m 436.60853,230.79466 c -10e-4,9.5e-4 -10e-4,9.5e-4 -2.19127,1.1165 -1.31406,0.64912 -2.34972,1.6442 -3.06015,2.9344 -0.72607,1.28837 -1.2467,2.83405 -1.95566,5.00268 l -6.36327,19.58415 3.41391,0.0416 5.88698,-18.67127 -9.7e-4,-3.2e-4 c 0.69172,-2.14279 1.20142,-3.56106 1.7034,-4.43289 0.51497,-0.87195 0.90226,-1.24086 1.77718,-1.7079 2.19062,-1.11455 2.19094,-1.11551 2.19094,-1.11551 z"
         inkscape:connector-curvature="0"
         style="fill:#8c8c8c;stroke-width:1.42999995"
         sodipodi:nodetypes="cccccccccccc" />
      <path
         id="path9319"
         d="m 463.34386,239.84756 v 0 c -0.70748,-2.16806 -1.22831,-3.71363 -1.95438,-5.00201 -0.71108,-1.28891 -1.74805,-2.28464 -3.06243,-2.93474 -2.18768,-1.1155 -2.18768,-1.1155 -2.188,-1.11649 l -1.40144,2.7537 2.18867,1.11518 c 0.87589,0.46671 1.26316,0.83562 1.77815,1.70757 0.50228,0.87283 1.0115,2.29012 1.70309,4.43195 l 0.006,-0.001 -0.006,0.001 5.74585,18.68606 3.55506,-0.0564 -6.36329,-19.58415 z"
         inkscape:connector-curvature="0"
         style="fill:#8c8c8c;stroke-width:1.42999995"
         sodipodi:nodetypes="ccccccccccccccc" />
      <ellipse
         id="circle9321"
         cy="224.57834"
         cx="446.37515"
         style="fill:#cc7720;stroke-width:1.42999995"
         rx="9.3024359"
         ry="9.3024349" />
      <path
         id="path9325"
         d="m 437.36613,226.8311 c 0.139,0.50347 -0.0649,0.74132 -0.28932,1.09344 -0.22548,0.35418 -0.52715,0.56113 -0.96575,1.1583 -0.35419,0.48288 -0.54467,0.97606 -0.70837,1.5444 -0.16268,0.56833 -0.0309,0.96576 -0.0309,0.96576 l 2.63783,1.83372 c 0,0 0.26461,-0.10714 0.49421,-0.36654 0.15032,-0.16886 0.49112,-0.45611 0.66409,-0.63012 0.35418,-0.35418 0.57863,-0.4314 0.96473,-0.4314 0.40464,0 0.63733,0.006 1.02343,0.28109 0.43551,0.31197 2.10965,-1.45895 2.10965,-1.45895 l -3.71068,-2.51016 -1.65148,-2.01596 c -10e-4,0 -0.67645,0.0319 -0.53745,0.53642 z"
         inkscape:connector-curvature="0"
         style="fill:#cc7720;stroke-width:1.42999995" />
      <path
         id="path9327"
         d="m 455.38413,226.8311 c -0.13899,0.50347 0.0638,0.74132 0.28829,1.09344 0.22651,0.35418 0.52819,0.56113 0.96577,1.1583 0.35418,0.48288 0.54569,0.97606 0.70837,1.5444 0.15958,0.56833 0.0289,0.96576 0.0289,0.96576 l -2.63785,1.83372 c 0,0 -0.26357,-0.10714 -0.49421,-0.36654 -0.15031,-0.16886 -0.49111,-0.45611 -0.66409,-0.63012 -0.35521,-0.35418 -0.57863,-0.4314 -0.96575,-0.4314 -0.40362,0 -0.63733,0.006 -1.02343,0.28109 -0.43553,0.31197 -2.10965,-1.45895 -2.10965,-1.45895 l 3.71067,-2.51016 1.65149,-2.01596 c 0.005,0 0.67956,0.0319 0.54156,0.53642 z"
         inkscape:connector-curvature="0"
         style="fill:#cc7720;stroke-width:1.42999995" />
      <path
         id="path9329"
         d="m 453.397,232.2653 c -0.31608,-0.63835 -1.35803,-1.44453 -1.97065,-1.44453 -0.61158,0 -2.99098,0.44993 -4.02058,0.44993 -1.0296,0 -3.53977,-0.5148 -4.34492,-0.5148 -0.86075,0 -1.73796,0.1287 -2.34748,0.32124 -0.55187,0.17401 -1.11506,0.3861 -1.75856,1.35084 -0.16372,0.24607 -0.27388,0.40669 -0.34492,0.5251 0.16989,-0.16783 0.41596,-0.38302 0.55908,-0.5251 0.35417,-0.35419 0.57863,-0.43141 0.96473,-0.43141 0.40463,0 0.63732,0.006 1.02342,0.28109 h 10e-4 c 1.48777,1.01004 3.28339,1.60206 5.21802,1.60206 1.93461,0 3.73023,-0.591 5.21698,-1.60206 h 10e-4 c 0.3861,-0.27696 0.62189,-0.28109 1.02343,-0.28109 0.31508,0.001 0.52301,0.0608 0.7794,0.26873 z"
         inkscape:connector-curvature="0"
         style="opacity:0.1;stroke-width:1.42999995" />
      <path
         id="path9331"
         d="m 455.03207,228.46095 c 0.41493,0.19357 1.75443,0.94312 2.25482,1.98507 -0.15033,-0.49317 -0.33565,-0.93281 -0.65174,-1.36216 -0.4386,-0.59717 -0.74028,-0.80411 -0.96577,-1.1583 -0.21312,-0.33668 -0.40051,-0.57451 -0.29445,-1.03268 0.18944,-0.74131 0.30167,-1.51351 0.30167,-2.31352 0,-1.66795 -0.44788,-3.22882 -1.21596,-4.58274 0.0638,0.33153 0.10615,0.661 0.10615,0.97914 0,0.98636 -0.16885,2.50502 -0.28314,3.41931 -0.10296,0.8072 -0.50862,1.51454 -0.50862,2.47928 10e-4,0.80411 1.00789,1.47232 1.25714,1.5866 z"
         inkscape:connector-curvature="0"
         style="opacity:0.1;stroke-width:1.42999995" />
      <path
         id="path9333"
         d="m 444.18723,216.73793 c -0.63114,-0.0114 -1.14904,0.26049 -1.15418,0.60438 -10e-4,0.14825 0.10494,0.28314 0.26667,0.39434 0.49317,0.0628 0.99047,0.11011 1.49189,0.14414 0.30991,-0.10714 0.52818,-0.28314 0.5323,-0.49936 0.004,-0.34595 -0.50347,-0.6332 -1.13668,-0.6435 z"
         inkscape:connector-curvature="0"
         style="opacity:0.55;fill:#ffffff;stroke-width:1.42999995" />
    </g>
  </g>
</svg>
