<?xml version="1.0" encoding="UTF-8" standalone="no"?>
<svg
   xmlns:dc="http://purl.org/dc/elements/1.1/"
   xmlns:cc="http://creativecommons.org/ns#"
   xmlns:rdf="http://www.w3.org/1999/02/22-rdf-syntax-ns#"
   xmlns:svg="http://www.w3.org/2000/svg"
   xmlns="http://www.w3.org/2000/svg"
   xmlns:sodipodi="http://sodipodi.sourceforge.net/DTD/sodipodi-0.dtd"
   xmlns:inkscape="http://www.inkscape.org/namespaces/inkscape"
   width="38"
   height="38"
   viewBox="0 0 10.054166 10.054167"
   version="1.1"
   id="svg8"
   sodipodi:docname="capacitor-icon.svg"
   inkscape:version="0.92.5 (2060ec1f9f, 2020-04-08)">
  <sodipodi:namedview
     pagecolor="#ffffff"
     bordercolor="#666666"
     borderopacity="1"
     objecttolerance="10"
     gridtolerance="10"
     guidetolerance="10"
     inkscape:pageopacity="0"
     inkscape:pageshadow="2"
     inkscape:window-width="1848"
     inkscape:window-height="1016"
     id="namedview8"
     showgrid="false"
     inkscape:zoom="7.8378275"
     inkscape:cx="18.141642"
     inkscape:cy="16.271107"
     inkscape:window-x="1992"
     inkscape:window-y="27"
     inkscape:window-maximized="1"
     inkscape:current-layer="XMLID_995_" />
  <defs
     id="defs2" />
  <metadata
     id="metadata5">
    <rdf:RDF>
      <cc:Work
         rdf:about="">
        <dc:format>image/svg+xml</dc:format>
        <dc:type
           rdf:resource="http://purl.org/dc/dcmitype/StillImage" />
        <dc:title></dc:title>
      </cc:Work>
    </rdf:RDF>
  </metadata>
  <g
     id="g1865"
     transform="matrix(0.2,0,0,0.2,3.97758,-1.753662)">
    <g
       transform="matrix(1.143,0,0,1.143,-5.8601422,12.619639)"
       id="breadboard">
      <g
         transform="matrix(1.3888878,0,0,1.3888878,-233.68754,-0.52397869)"
         partID="855212920"
         id="g2020">
        <g
           transform="translate(167.524)"
           id="g2018"
           style="fill:#000000;fill-opacity:1">
          <g
             id="g2016"
             style="fill:#000000;fill-opacity:1">
            <g
               transform="matrix(0.0833334,0,0,0.0833334,-11.217278,-4.0085624)"
               id="XMLID_995_">
              <path
                 inkscape:connector-curvature="0"
                 id="XMLID_1006_"
                 d="m 327.86185,55.390211 c -39.34737,41.9013 -61.0173,96.631379 -61.0173,154.109789 0,57.47841 21.66993,112.2093 61.01649,154.10979 l 17.71389,-16.63416 C 312.34468,311.58835 294.38131,266.99623 291.6589,221.65 h 126.06273 v -24.3 H 291.65971 c 2.7216,-45.34623 20.68578,-89.93835 53.91603,-125.324819 z"
                 style="stroke-width:19.99999935;stroke-miterlimit:4;stroke-dasharray:none" />
              <polygon
                 id="XMLID_1007_"
                 points="50,176 410,176 410,146 245,146 245,0 215,0 215,146 50,146 "
                 style="stroke:#000000;stroke-width:1.99999988;stroke-miterlimit:4;stroke-dasharray:none;stroke-opacity:1"
                 transform="matrix(0,-0.81,0.81,0,38.154557,395.8)" />
            </g>
            <g
               transform="matrix(0.0833334,0,0,0.0833334,-1.4356482,-0.18096821)"
               id="g952" />
            <g
               transform="matrix(0.0833334,0,0,0.0833334,-1.4356482,-0.18096821)"
               id="g954" />
            <g
               transform="matrix(0.0833334,0,0,0.0833334,-1.4356482,-0.18096821)"
               id="g956" />
            <g
               transform="matrix(0.0833334,0,0,0.0833334,-1.4356482,-0.18096821)"
               id="g958" />
            <g
               transform="matrix(0.0833334,0,0,0.0833334,-1.4356482,-0.18096821)"
               id="g960" />
            <g
               transform="matrix(0.0833334,0,0,0.0833334,-1.4356482,-0.18096821)"
               id="g962" />
            <g
               transform="matrix(0.0833334,0,0,0.0833334,-1.4356482,-0.18096821)"
               id="g964" />
            <g
               transform="matrix(0.0833334,0,0,0.0833334,-1.4356482,-0.18096821)"
               id="g966" />
            <g
               transform="matrix(0.0833334,0,0,0.0833334,-1.4356482,-0.18096821)"
               id="g968" />
            <g
               transform="matrix(0.0833334,0,0,0.0833334,-1.4356482,-0.18096821)"
               id="g970" />
            <g
               transform="matrix(0.0833334,0,0,0.0833334,-1.4356482,-0.18096821)"
               id="g972" />
            <g
               transform="matrix(0.0833334,0,0,0.0833334,-1.4356482,-0.18096821)"
               id="g974" />
            <g
               transform="matrix(0.0833334,0,0,0.0833334,-1.4356482,-0.18096821)"
               id="g976" />
            <g
               transform="matrix(0.0833334,0,0,0.0833334,-1.4356482,-0.18096821)"
               id="g978" />
            <g
               transform="matrix(0.0833334,0,0,0.0833334,-1.4356482,-0.18096821)"
               id="g980" />
          </g>
        </g>
      </g>
    </g>
  </g>
</svg>
