<?xml version="1.0" encoding="UTF-8" standalone="no"?>
<svg
   xmlns:dc="http://purl.org/dc/elements/1.1/"
   xmlns:cc="http://creativecommons.org/ns#"
   xmlns:rdf="http://www.w3.org/1999/02/22-rdf-syntax-ns#"
   xmlns:svg="http://www.w3.org/2000/svg"
   xmlns="http://www.w3.org/2000/svg"
   xmlns:sodipodi="http://sodipodi.sourceforge.net/DTD/sodipodi-0.dtd"
   xmlns:inkscape="http://www.inkscape.org/namespaces/inkscape"
   id="svg1903"
   version="1.1"
   viewBox="0 0 10.000465 31.541925"
   height="31.541925mm"
   width="10.000464mm"
   sodipodi:docname="capacitor-electrolytic.svg"
   inkscape:version="0.92.5 (2060ec1f9f, 2020-04-08)">
  <sodipodi:namedview
     pagecolor="#ffffff"
     bordercolor="#666666"
     borderopacity="1"
     objecttolerance="10"
     gridtolerance="10"
     guidetolerance="10"
     inkscape:pageopacity="0"
     inkscape:pageshadow="2"
     inkscape:window-width="1848"
     inkscape:window-height="1016"
     id="namedview968"
     showgrid="false"
     inkscape:zoom="7.9733385"
     inkscape:cx="-24.783853"
     inkscape:cy="6.9454923"
     inkscape:window-x="1992"
     inkscape:window-y="27"
     inkscape:window-maximized="1"
     inkscape:current-layer="g3423"
     fit-margin-top="0"
     fit-margin-left="0"
     fit-margin-right="0"
     fit-margin-bottom="0" />
  <defs
     id="defs1897" />
  <metadata
     id="metadata1900">
    <rdf:RDF>
      <cc:Work
         rdf:about="">
        <dc:format>image/svg+xml</dc:format>
        <dc:type
           rdf:resource="http://purl.org/dc/dcmitype/StillImage" />
        <dc:title></dc:title>
      </cc:Work>
    </rdf:RDF>
  </metadata>
  <g
     transform="translate(-40.934773,-39.427454)"
     id="layer1">
    <path
       inkscape:connector-curvature="0"
       style="fill:none;stroke:#8c8c8c;stroke-width:1.43265545;stroke-linecap:round;stroke-linejoin:round"
       d="M 43.816839,48.593188 V 64.986461"
       id="path855" />
    <path
       inkscape:connector-curvature="0"
       style="fill:none;stroke:#8c8c8c;stroke-width:1.63410199;stroke-linecap:round;stroke-linejoin:round"
       d="M 48.612721,48.813167 V 70.140693"
       id="path857" />
    <g
       transform="matrix(0.66590282,0,0,0.66590282,40.80248,25.172523)"
       partID="855212830"
       id="g903">
      <g
         transform="translate(0,5.96659)"
         id="g901">
        <g
           id="g899">
          <rect
             style="fill:none"
             width="2.1520801"
             id="rect859"
             x="3.4509599"
             height="0.72000003"
             y="25.421" />
          <rect
             style="fill:none"
             width="2.1542399"
             id="rect861"
             x="10.651"
             height="0.72000003"
             y="25.421" />
          <g
             style="fill:none;stroke:#8c8c8c;stroke-width:2.15136003;stroke-linecap:round"
             y2="74.754"
             id="g863"
             x1="6.287"
             x2="6.287"
             y1="40.565" />
          <g
             style="fill:none;stroke:#8c8c8c;stroke-width:2.15136003;stroke-linecap:round"
             y2="74.754"
             id="g865"
             x1="16.29"
             x2="16.29"
             y1="40.565" />
          <rect
             style="fill:#8c8c8c"
             width="2.15136"
             x="3.4509599"
             height="9.82728"
             y="19.379499"
             id="rect867" />
          <path
             style="fill:#8c8c8c"
             inkscape:connector-curvature="0"
             d="m 12.8045,29.2068 c 0,-1.1736 -1.06488,-2.1024 -2.088,-2.9916 C 10.30034,25.848 9.51698,25.21368 9.51698,24.79032 V 19.31976 H 7.35554 v 5.78016 c 0,1.0584 0.94752,1.87848 1.94616,2.74824 0.44424,0.37584 1.34856,1.24992 1.34856,1.76976"
             id="path869" />
          <g
             id="g897">
            <g
               transform="translate(-167.525,0.11211396)"
               partID="855212920"
               id="g3277" />
            <g
               transform="matrix(0.52977347,0,0,0.52977347,-20.326394,-3.970672)"
               partID="855212860"
               id="g3427">
              <g
                 transform="translate(51.2952,11.2192)"
                 id="g3425">
                <g
                   id="g3423">
                  <rect
                     style="fill:none"
                     id="rect3383"
                     y="25.421"
                     x="3.4509599"
                     height="0.72000003"
                     width="2.1520801" />
                  <rect
                     style="fill:none"
                     id="rect3385"
                     y="25.421"
                     x="10.651"
                     height="0.72000003"
                     width="2.1542399" />
                  <g
                     style="fill:none;stroke:#8c8c8c;stroke-width:2.15136003;stroke-linecap:round"
                     id="g3387"
                     x1="6.287"
                     y1="40.565"
                     x2="6.287"
                     y2="74.754" />
                  <g
                     style="fill:none;stroke:#8c8c8c;stroke-width:2.15136003;stroke-linecap:round"
                     id="g3389"
                     x1="16.29"
                     y1="40.565"
                     x2="16.29"
                     y2="74.754" />
                  <g
                     transform="matrix(1.9999962,0,0,1.9999962,-960.68031,-349.92355)"
                     partID="855212990"
                     id="g8294">
                    <g
                       transform="translate(474.065,188.276)"
                       id="g8292">
                      <g
                         id="g8290">
                        <g
                           id="g8288">
                          <rect
                             style="fill:none"
                             width="2.1600001"
                             y="32.5368"
                             id="rect8232"
                             height="0.72000003"
                             x="9.6408005" />
                          <rect
                             style="fill:none"
                             width="2.1600001"
                             y="32.5368"
                             id="rect8234"
                             height="0.72000003"
                             x="2.4408" />
                          <g
                             style="fill:none;stroke:#8c8c8c;stroke-width:2.16000009;stroke-linecap:round"
                             y2="62.266"
                             x2="4.89"
                             id="g8236"
                             x1="4.89"
                             y1="48.266" />
                          <g
                             style="fill:none;stroke:#8c8c8c;stroke-width:2.16000009;stroke-linecap:round"
                             y2="62.266"
                             x2="14.89"
                             id="g8238"
                             x1="14.89"
                             y1="48.266" />
                          <ellipse
                             style="fill:#0d0033"
                             ry="4.9600801"
                             cx="7.0876799"
                             cy="26.831499"
                             rx="7.0862398"
                             id="ellipse8244" />
                          <rect
                             style="fill:#0d0033"
                             x="0"
                             width="14.1689"
                             y="25.819901"
                             height="1.01088"
                             id="rect8246" />
                          <ellipse
                             style="fill:#100040"
                             ry="4.9615202"
                             cx="7.0876799"
                             cy="26.028"
                             rx="7.0862398"
                             id="ellipse8248" />
                          <ellipse
                             style="fill:#0d0033"
                             ry="4.9615202"
                             cx="7.0876799"
                             cy="22.579901"
                             rx="7.0862398"
                             id="ellipse8250" />
                          <rect
                             style="fill:#0d0033"
                             x="0"
                             width="14.1739"
                             y="5.0356798"
                             height="17.544201"
                             id="rect8252" />
                          <ellipse
                             style="fill:#0d0033"
                             ry="4.9615202"
                             cx="7.0876799"
                             cy="5.0349598"
                             rx="7.0862398"
                             id="ellipse8254" />
                          <ellipse
                             style="fill:#100040"
                             ry="4.5957599"
                             cx="7.0876799"
                             cy="4.5957599"
                             rx="6.56352"
                             id="ellipse8256" />
                          <ellipse
                             style="fill:#b2b2b2"
                             ry="3.36816"
                             cx="7.0876799"
                             cy="4.33008"
                             rx="4.8110399"
                             id="ellipse8258" />
                          <path
                             style="fill:#d2eeff"
                             inkscape:connector-curvature="0"
                             d="M 1.38384,2.09016 C 0.51552,2.91384 0,3.93336 0,5.03568 V 7.776 H 0.94824 V 7.51248 L 0.95904,7.4124 c 0,0 0,0.05112 0,-0.13392 0,-0.33192 0.15768,-0.54504 0.42408,-0.65088 C 1.64016,6.52536 1.62144,4.71168 1.62144,4.71168 Z"
                             id="path8260" />
                          <path
                             style="fill:#d2eeff"
                             inkscape:connector-curvature="0"
                             d="m 2.27736,4.33008 c 0,-0.59832 0.2232,-1.15704 0.612,-1.64304 L 1.38384,2.08728 c -0.54576,0.67032 -0.8604,1.4436 -0.8604,2.26944 0,0.82584 0.31536,1.60056 0.8604,2.27016 L 2.92536,6.01344 C 2.51568,5.5188 2.27736,4.94352 2.27736,4.33008 Z"
                             id="path8262" />
                          <rect
                             style="fill:#d2eeff"
                             x="0"
                             width="0.95903999"
                             y="7.4123998"
                             height="15.1668"
                             id="rect8264" />
                          <rect
                             style="fill:#d2eeff"
                             x="0"
                             width="0.95903999"
                             y="19.264999"
                             height="1.63152"
                             id="rect8266" />
                          <path
                             style="fill:#d2eeff"
                             inkscape:connector-curvature="0"
                             d="m 0,26.0273 v 0.80208 c 0,0.90792 0.34992,1.75752 0.95904,2.48976 V 28.51778 24.33746 23.5361 C 0.34992,24.2712 0,25.1201 0,26.0273 Z"
                             id="path8268" />
                          <path
                             style="fill:#d2eeff"
                             inkscape:connector-curvature="0"
                             d="M 0.95904,20.0887 C 0.34992,20.821 0,21.6713 0,22.5799 c 0,0.9086 0.34992,1.7568 0.95904,2.48976 z"
                             id="path8270" />
                          <path
                             style="fill:#d2eeff"
                             inkscape:connector-curvature="0"
                             d="m 0.95904,28.9354 c 0,0 0,-0.18432 0,-0.41688 0,-0.23328 0.04968,-1.0404 0.1296,-1.39968 0.1296,-0.594 0.40464,-1.00296 0.40464,-1.6308 0,-0.21168 -0.12024,-0.50976 -0.30024,-0.68976 -0.17784,-0.17784 -0.23832,-0.4572 -0.23832,-0.74808 0,-0.2916 0,-0.66384 0,-0.66384 l -0.4104,0.01368 0.04464,5.11344 z"
                             id="path8272" />
                          <path
                             style="opacity:0.35"
                             inkscape:connector-curvature="0"
                             d="m 7.08768,1.12104 c 2.61936,0 4.74408,1.46592 4.80528,3.28896 7.2e-4,-0.02736 0.0079,-0.05328 0.0079,-0.07992 0,-1.86048 -2.15496,-3.36816 -4.81176,-3.36816 -2.65536,0 -4.81032,1.50768 -4.81032,3.36816 0,0.02664 0.00504,0.05256 0.00648,0.07992 0.0576,-1.82304 2.18304,-3.28896 4.8024,-3.28896 z"
                             id="path8274" />
                          <path
                             style="opacity:0.35"
                             inkscape:connector-curvature="0"
                             d="m 9.15768,10.0498 v 7.78464 5.96376 c 0,0 0,3.05712 0,3.17952 0,0.12096 -0.04032,0.22248 -0.08928,0.3168 -0.05832,0.10944 -0.1908,0.28152 -0.1908,0.28152 1.88784,-0.40464 3.54744,-1.49544 4.40352,-2.718 0.05904,-0.0756 0.12096,-0.23616 0.14184,-0.30528 0.02088,-0.07128 0.02952,-0.1404 0.02952,-0.1404 V 23.7982 20.40124 l 2e-5,-12.91684 c -0.8547,1.224 -2.4084,2.16216 -4.29482,2.5654 z"
                             id="path8276" />
                          <path
                             style="opacity:0.35"
                             inkscape:connector-curvature="0"
                             d="m 13.343,27.7474 c -0.06624,-0.17712 -0.25632,-0.40032 -0.25632,-0.40032 -0.85536,1.22256 -2.34792,1.87488 -4.23504,2.27664 0,0 0.1692,0.288 0.24408,0.53424 0.072,0.2448 0.06336,0.61488 0.06336,0.61488 v 0.8028 c 1.88712,-0.40248 3.4416,-1.3428 4.29552,-2.56464 0,0 0,-0.55872 0,-0.7056 0,-0.1664 -0.0554,-0.4126 -0.1116,-0.558 z"
                             id="path8278" />
                          <path
                             style="opacity:0.2;fill:#ffffff"
                             inkscape:connector-curvature="0"
                             d="M 6.76944,29.2529 C 6.75648,29.08226 6.7248,28.9325 6.68016,28.80218 3.66912,28.6697 1.22256,27.0965 0.72504,25.05602 c -0.09576,0.0756 -0.2052,0.17928 -0.27144,0.29592 -0.05256,0.09792 -0.1008,0.23904 -0.1404,0.3744 0.48096,2.2356 3.16008,3.96288 6.44976,4.07016 0.0144,-0.1505 0.02088,-0.3312 0.00648,-0.5436 z"
                             id="path8280" />
                          <path
                             style="opacity:0.2;fill:#ffffff"
                             inkscape:connector-curvature="0"
                             d="M 9.72864,8.62128 C 9.73368,8.51256 9.64872,8.43696 9.5796,8.40744 9.50616,8.37504 9.3852,8.3268 9.15624,8.38728 H 9.1368 C 8.49384,8.5464 7.80696,8.63856 7.08624,8.63856 c -3.39768,0 -6.1524,-1.92888 -6.1524,-4.30776 0,-0.06696 0.00936,-0.1332 0.01368,-0.19872 0,-0.00576 -0.00576,-0.00936 -0.00576,-0.01656 0,-0.10584 -0.04248,-0.24408 -0.13248,-0.25776 C 0.70632,3.8376 0.65592,3.92256 0.60552,4.03056 0.58032,4.08312 0.56088,4.15872 0.5472,4.24656 0.54504,4.25736 0.5436,4.27032 0.54216,4.28112 0.54,4.29264 0.54,4.30776 0.53856,4.32 0.52776,4.41072 0.52272,4.50288 0.52272,4.59504 c 0,2.53728 2.93904,4.59576 6.56352,4.59576 0.9108,0 1.76904,-0.13968 2.55456,-0.3744 C 9.7164,8.77824 9.72432,8.7156 9.72864,8.62128 Z"
                             id="path8282" />
                          <path
                             style="fill:#ffffff"
                             inkscape:connector-curvature="0"
                             d="m 0.45432,25.3519 c -0.05256,0.09792 -0.1008,0.23904 -0.1404,0.3744 0.11952,0.55584 0.37512,1.08144 0.74376,1.55808 0.01008,-0.06264 0.01944,-0.11808 0.03096,-0.16632 0.06408,-0.29232 0.162,-0.53712 0.2448,-0.78552 -0.28656,-0.396 -0.49824,-0.82512 -0.60696,-1.27584 -0.0972,0.0742 -0.2052,0.1793 -0.27216,0.2952 z"
                             id="path8284" />
                          <path
                             style="fill:#ffffff"
                             inkscape:connector-curvature="0"
                             d="m 0.93456,4.33008 c 0,-0.06696 0.01008,-0.1332 0.0144,-0.19872 C 0.94608,4.12488 0.94032,4.122 0.94032,4.11408 0.94032,4.00824 0.89856,3.87 0.80928,3.85632 0.70632,3.8376 0.65592,3.92256 0.60552,4.03056 0.5796,4.08312 0.56088,4.15872 0.5472,4.24656 0.54504,4.25736 0.54216,4.27032 0.54144,4.28112 0.54,4.29264 0.53928,4.30776 0.53856,4.32 0.52776,4.41072 0.52272,4.50288 0.52272,4.59504 c 0,0.75888 0.26784,1.47312 0.73296,2.10456 C 1.296,6.67296 1.33632,6.64704 1.38384,6.6276 L 1.75896,6.47784 C 1.23696,5.84568 0.93456,5.11416 0.93456,4.33008 Z"
                             id="path8286" />
                        </g>
                      </g>
                    </g>
                  </g>
                </g>
              </g>
            </g>
          </g>
        </g>
      </g>
    </g>
  </g>
</svg>
