<?xml version="1.0" encoding="utf-8" standalone="no"?>
<!DOCTYPE svg PUBLIC "-//W3C//DTD SVG 1.1//EN"
  "http://www.w3.org/Graphics/SVG/1.1/DTD/svg11.dtd">
<!-- Created with matplotlib (https://matplotlib.org/) -->
<svg height="332.128019pt" version="1.1" viewBox="0 0 661.494 332.128019" width="661.494pt" xmlns="http://www.w3.org/2000/svg" xmlns:xlink="http://www.w3.org/1999/xlink">
 <defs>
  <style type="text/css">
*{stroke-linecap:butt;stroke-linejoin:round;}
  </style>
 </defs>
 <g id="figure_1">
  <g id="patch_1">
   <path d="M 0 332.128019 
L 661.494 332.128019 
L 661.494 0 
L 0 0 
z
" style="fill:#ffffff;"/>
  </g>
  <g id="axes_1">
   <g id="patch_2">
    <path d="M 22.08 277.678019 
L 635.88 277.678019 
L 635.88 60.238019 
L 22.08 60.238019 
z
" style="fill:#ffffff;"/>
   </g>
   <g id="matplotlib.axis_1">
    <g id="xtick_1">
     <g id="line2d_1">
      <defs>
       <path d="M 0 7 
L 0 -7 
" id="md3c10ad1a9" style="stroke:#16a085;stroke-width:2.25;"/>
      </defs>
      <g>
       <use style="fill:#16a085;stroke:#16a085;stroke-width:2.25;" x="124.38" xlink:href="#md3c10ad1a9" y="277.678019"/>
      </g>
     </g>
     <g id="text_1">
      <!-- 4pm -->
      <defs>
       <path d="M 41.0625 26.859375 
L 47.125 26.859375 
L 47.125 15.375 
L 41.0625 15.375 
L 41.0625 0 
L 27.25 0 
L 27.25 15.375 
L 3.71875 15.375 
L 3.078125 24.3125 
L 27.203125 71.09375 
L 41.0625 71.09375 
z
M 16.5 26.859375 
L 27.25 26.859375 
L 27.25 50.640625 
L 26.953125 50.09375 
z
" id="RobotoCondensed-Bold-52"/>
       <path d="M 46.1875 24.75 
Q 46.1875 12.3125 41.90625 5.65625 
Q 37.640625 -0.984375 29.203125 -0.984375 
Q 22.75 -0.984375 18.84375 4.25 
L 18.84375 -20.3125 
L 5.03125 -20.3125 
L 5.03125 52.828125 
L 17.828125 52.828125 
L 18.3125 48 
Q 22.265625 53.8125 29.109375 53.8125 
Q 37.546875 53.8125 41.8125 47.65625 
Q 46.09375 41.5 46.1875 28.8125 
z
M 32.421875 28.21875 
Q 32.421875 35.890625 30.734375 39.0625 
Q 29.046875 42.234375 25.046875 42.234375 
Q 20.796875 42.234375 18.84375 38.671875 
L 18.84375 13.921875 
Q 20.703125 10.5 25.140625 10.5 
Q 29.25 10.5 30.828125 13.96875 
Q 32.421875 17.4375 32.421875 24.75 
z
" id="RobotoCondensed-Bold-112"/>
       <path d="M 18.015625 52.828125 
L 18.40625 47.953125 
Q 23.046875 53.8125 30.671875 53.8125 
Q 38.578125 53.8125 41.84375 46.6875 
Q 46.390625 53.8125 54.78125 53.8125 
Q 68.65625 53.8125 69 34.625 
L 69 0 
L 55.171875 0 
L 55.171875 33.734375 
Q 55.171875 38.328125 53.90625 40.28125 
Q 52.640625 42.234375 49.609375 42.234375 
Q 45.75 42.234375 43.84375 37.5 
L 43.953125 35.84375 
L 43.953125 0 
L 30.125 0 
L 30.125 33.640625 
Q 30.125 38.1875 28.90625 40.203125 
Q 27.6875 42.234375 24.5625 42.234375 
Q 21 42.234375 18.890625 38.375 
L 18.890625 0 
L 5.078125 0 
L 5.078125 52.828125 
z
" id="RobotoCondensed-Bold-109"/>
      </defs>
      <g style="fill:#2c3e50;" transform="translate(110.4375 321.678019)scale(0.16 -0.16)">
       <use xlink:href="#RobotoCondensed-Bold-52"/>
       <use x="50.585938" xlink:href="#RobotoCondensed-Bold-112"/>
       <use x="100.097656" xlink:href="#RobotoCondensed-Bold-109"/>
      </g>
     </g>
    </g>
    <g id="xtick_2">
     <g id="line2d_2">
      <g>
       <use style="fill:#16a085;stroke:#16a085;stroke-width:2.25;" x="328.98" xlink:href="#md3c10ad1a9" y="277.678019"/>
      </g>
     </g>
     <g id="text_2">
      <!-- 5pm -->
      <defs>
       <path d="M 6.0625 34.96875 
L 9.578125 71.09375 
L 44 71.09375 
L 44 59.28125 
L 20.90625 59.28125 
L 19.625 44.046875 
Q 23.640625 46.734375 27.875 46.734375 
Q 36.671875 46.734375 41.421875 40.484375 
Q 46.1875 34.234375 46.1875 22.796875 
Q 46.1875 12.109375 40.515625 5.5625 
Q 34.859375 -0.984375 25.390625 -0.984375 
Q 19.78125 -0.984375 14.984375 1.671875 
Q 10.203125 4.34375 7.4375 9.078125 
Q 4.6875 13.8125 4.640625 19.828125 
L 18.3125 19.828125 
Q 18.65625 15.375 20.5 12.9375 
Q 22.359375 10.5 25.296875 10.5 
Q 28.71875 10.5 30.5625 13.796875 
Q 32.421875 17.09375 32.421875 23.640625 
Q 32.421875 29.78125 30.203125 32.90625 
Q 27.984375 36.03125 23.96875 36.03125 
Q 20.0625 36.03125 17.921875 33.34375 
L 17.046875 32.125 
z
" id="RobotoCondensed-Bold-53"/>
      </defs>
      <g style="fill:#2c3e50;" transform="translate(315.0375 321.678019)scale(0.16 -0.16)">
       <use xlink:href="#RobotoCondensed-Bold-53"/>
       <use x="50.585938" xlink:href="#RobotoCondensed-Bold-112"/>
       <use x="100.097656" xlink:href="#RobotoCondensed-Bold-109"/>
      </g>
     </g>
    </g>
    <g id="xtick_3">
     <g id="line2d_3">
      <g>
       <use style="fill:#16a085;stroke:#16a085;stroke-width:2.25;" x="533.58" xlink:href="#md3c10ad1a9" y="277.678019"/>
      </g>
     </g>
     <g id="text_3">
      <!-- 6pm -->
      <defs>
       <path d="M 37.59375 71.828125 
L 37.59375 60.109375 
L 36.8125 60.109375 
Q 29.046875 60.0625 24.484375 55.4375 
Q 19.921875 50.828125 18.953125 42.53125 
Q 23.390625 47.609375 30.078125 47.609375 
Q 37.796875 47.609375 42.40625 41.015625 
Q 47.015625 34.421875 47.015625 23.4375 
Q 47.015625 16.453125 44.375 10.828125 
Q 41.75 5.21875 36.984375 2.109375 
Q 32.234375 -0.984375 26.21875 -0.984375 
Q 16.546875 -0.984375 10.71875 6.78125 
Q 4.890625 14.546875 4.890625 27.6875 
L 4.890625 32.8125 
Q 4.890625 44.578125 8.5625 53.40625 
Q 12.25 62.25 19.203125 67.015625 
Q 26.171875 71.78125 35.453125 71.828125 
z
M 25.734375 36.1875 
Q 23.09375 36.1875 21.3125 34.515625 
Q 19.53125 32.859375 18.65625 30.421875 
L 18.65625 25.4375 
Q 18.65625 17.921875 20.65625 14.203125 
Q 22.65625 10.5 25.921875 10.5 
Q 29.25 10.5 31.25 14.078125 
Q 33.25 17.671875 33.25 23.296875 
Q 33.25 29 31.171875 32.59375 
Q 29.109375 36.1875 25.734375 36.1875 
z
" id="RobotoCondensed-Bold-54"/>
      </defs>
      <g style="fill:#2c3e50;" transform="translate(519.6375 321.678019)scale(0.16 -0.16)">
       <use xlink:href="#RobotoCondensed-Bold-54"/>
       <use x="50.585938" xlink:href="#RobotoCondensed-Bold-112"/>
       <use x="100.097656" xlink:href="#RobotoCondensed-Bold-109"/>
      </g>
     </g>
    </g>
    <g id="xtick_4">
     <g id="line2d_4">
      <g>
       <use style="fill:#16a085;stroke:#16a085;stroke-width:2.25;" x="635.88" xlink:href="#md3c10ad1a9" y="277.678019"/>
      </g>
     </g>
     <g id="text_4">
      <!-- Time -->
      <defs>
       <path d="M 51.765625 59.125 
L 34.1875 59.125 
L 34.1875 0 
L 19.78125 0 
L 19.78125 59.125 
L 2.484375 59.125 
L 2.484375 71.09375 
L 51.765625 71.09375 
z
" id="RobotoCondensed-Bold-84"/>
       <path d="M 19.53125 0 
L 5.671875 0 
L 5.671875 52.828125 
L 19.53125 52.828125 
z
M 5.03125 66.5 
Q 5.03125 69.734375 7.078125 71.78125 
Q 9.125 73.828125 12.546875 73.828125 
Q 15.96875 73.828125 18.015625 71.78125 
Q 20.0625 69.734375 20.0625 66.5 
Q 20.0625 63.328125 18.03125 61.21875 
Q 16.015625 59.125 12.546875 59.125 
Q 9.078125 59.125 7.046875 61.21875 
Q 5.03125 63.328125 5.03125 66.5 
z
" id="RobotoCondensed-Bold-105"/>
       <path d="M 26.375 -0.984375 
Q 15.71875 -0.984375 9.765625 5.359375 
Q 3.8125 11.71875 3.8125 23.53125 
L 3.8125 27.734375 
Q 3.8125 40.234375 9.28125 47.015625 
Q 14.75 53.8125 24.953125 53.8125 
Q 34.90625 53.8125 39.9375 47.4375 
Q 44.96875 41.0625 45.0625 28.5625 
L 45.0625 21.78125 
L 17.578125 21.78125 
Q 17.875 15.921875 20.171875 13.203125 
Q 22.46875 10.5 27.25 10.5 
Q 34.1875 10.5 38.8125 15.234375 
L 44.234375 6.890625 
Q 41.703125 3.375 36.859375 1.1875 
Q 32.03125 -0.984375 26.375 -0.984375 
z
M 17.671875 31.453125 
L 31.5 31.453125 
L 31.5 32.71875 
Q 31.390625 37.453125 29.921875 39.890625 
Q 28.46875 42.328125 24.84375 42.328125 
Q 21.234375 42.328125 19.59375 39.734375 
Q 17.96875 37.15625 17.671875 31.453125 
z
" id="RobotoCondensed-Bold-101"/>
      </defs>
      <g style="fill:#2c3e50;" transform="translate(619.7575 321.678019)scale(0.16 -0.16)">
       <use xlink:href="#RobotoCondensed-Bold-84"/>
       <use x="54.296875" xlink:href="#RobotoCondensed-Bold-105"/>
       <use x="79.492188" xlink:href="#RobotoCondensed-Bold-109"/>
       <use x="153.662109" xlink:href="#RobotoCondensed-Bold-101"/>
      </g>
     </g>
    </g>
   </g>
   <g id="matplotlib.axis_2"/>
   <g id="patch_3">
    <path clip-path="url(#p76a85a4238)" d="M 129.8019 86.765699 
L 425.8581 86.765699 
Q 428.9271 86.765699 428.9271 91.114499 
L 428.9271 98.217539 
Q 428.9271 102.566339 425.8581 102.566339 
L 129.8019 102.566339 
Q 126.7329 102.566339 126.7329 98.217539 
L 126.7329 91.114499 
Q 126.7329 86.765699 129.8019 86.765699 
z
" style="fill:none;stroke:#2c3e50;stroke-linejoin:miter;stroke-width:1.5;"/>
   </g>
   <g id="patch_4">
    <path clip-path="url(#p76a85a4238)" d="M 129.8019 104.885699 
L 425.8581 104.885699 
Q 428.9271 104.885699 428.9271 109.234499 
L 428.9271 127.209539 
Q 428.9271 131.558339 425.8581 131.558339 
L 129.8019 131.558339 
Q 126.7329 131.558339 126.7329 127.209539 
L 126.7329 109.234499 
Q 126.7329 104.885699 129.8019 104.885699 
z
" style="fill:#2c3e50;stroke:#2c3e50;stroke-linejoin:miter;stroke-width:1.5;"/>
   </g>
   <g id="patch_5">
    <path clip-path="url(#p76a85a4238)" d="M 537.4674 159.245699 
L 631.9926 159.245699 
Q 635.0616 159.245699 635.0616 163.594499 
L 635.0616 170.697539 
Q 635.0616 175.046339 631.9926 175.046339 
L 537.4674 175.046339 
Q 534.3984 175.046339 534.3984 170.697539 
L 534.3984 163.594499 
Q 534.3984 159.245699 537.4674 159.245699 
z
" style="fill:url(#h4220169bae);"/>
   </g>
   <g id="patch_6">
    <path clip-path="url(#p76a85a4238)" d="M 332.8674 159.245699 
L 631.9926 159.245699 
Q 635.0616 159.245699 635.0616 163.594499 
L 635.0616 170.697539 
Q 635.0616 175.046339 631.9926 175.046339 
L 332.8674 175.046339 
Q 329.7984 175.046339 329.7984 170.697539 
L 329.7984 163.594499 
Q 329.7984 159.245699 332.8674 159.245699 
z
" style="fill:none;stroke:#007bff;stroke-linejoin:miter;stroke-width:1.5;"/>
   </g>
   <g id="patch_7">
    <path clip-path="url(#p76a85a4238)" d="M 332.8674 177.365699 
L 528.1581 177.365699 
Q 531.2271 177.365699 531.2271 181.714499 
L 531.2271 199.689539 
Q 531.2271 204.038339 528.1581 204.038339 
L 332.8674 204.038339 
Q 329.7984 204.038339 329.7984 199.689539 
L 329.7984 181.714499 
Q 329.7984 177.365699 332.8674 177.365699 
z
" style="fill:#007bff;stroke:#007bff;stroke-linejoin:miter;stroke-width:1.5;"/>
   </g>
   <g id="patch_8">
    <path d="M 654.294 277.678019 
L 633.834 268.618019 
L 633.834 277.678019 
L 613.374 277.678019 
L 613.374 277.678019 
L 633.834 277.678019 
L 633.834 286.738019 
z
" style="fill:#c0392b;stroke:#c0392b;stroke-linejoin:miter;stroke-width:0.48;"/>
   </g>
   <g id="line2d_5">
    <path d="M 22.08 277.678019 
L 124.38 277.678019 
" style="fill:none;stroke:#c0392b;stroke-linecap:round;stroke-width:3;"/>
   </g>
   <g id="line2d_6">
    <path d="M 124.38 277.678019 
L 533.58 277.678019 
" style="fill:none;stroke:#16a085;stroke-linecap:round;stroke-width:3;"/>
   </g>
   <g id="line2d_7">
    <path d="M 533.58 277.678019 
L 635.88 277.678019 
" style="fill:none;stroke:#c0392b;stroke-linecap:round;stroke-width:3;"/>
   </g>
   <g id="line2d_8">
    <path clip-path="url(#p76a85a4238)" d="M 124.38 277.678019 
L 124.38 60.238019 
" style="fill:none;stroke:#16a085;stroke-dasharray:0,5;stroke-dashoffset:0;stroke-linecap:round;stroke-width:2.5;"/>
   </g>
   <g id="line2d_9">
    <path clip-path="url(#p76a85a4238)" d="M 533.58 277.678019 
L 533.58 60.238019 
" style="fill:none;stroke:#c0392b;stroke-dasharray:0,5;stroke-dashoffset:0;stroke-linecap:round;stroke-width:2.5;"/>
   </g>
   <g id="text_5">
    <!-- start Date -->
    <defs>
     <path d="M 28.421875 14.15625 
Q 28.421875 15.921875 26.734375 17.40625 
Q 25.046875 18.890625 19.234375 21.4375 
Q 10.6875 24.90625 7.484375 28.609375 
Q 4.296875 32.328125 4.296875 37.84375 
Q 4.296875 44.78125 9.296875 49.296875 
Q 14.3125 53.8125 22.5625 53.8125 
Q 31.25 53.8125 36.46875 49.3125 
Q 41.703125 44.828125 41.703125 37.25 
L 27.875 37.25 
Q 27.875 43.703125 22.515625 43.703125 
Q 20.3125 43.703125 18.890625 42.328125 
Q 17.484375 40.96875 17.484375 38.53125 
Q 17.484375 36.765625 19.046875 35.421875 
Q 20.609375 34.078125 26.421875 31.59375 
Q 34.859375 28.46875 38.34375 24.625 
Q 41.84375 20.796875 41.84375 14.703125 
Q 41.84375 7.625 36.515625 3.3125 
Q 31.203125 -0.984375 22.5625 -0.984375 
Q 16.75 -0.984375 12.296875 1.28125 
Q 7.859375 3.5625 5.34375 7.609375 
Q 2.828125 11.671875 2.828125 16.359375 
L 15.96875 16.359375 
Q 16.0625 12.75 17.640625 10.9375 
Q 19.234375 9.125 22.859375 9.125 
Q 28.421875 9.125 28.421875 14.15625 
z
" id="RobotoCondensed-Bold-115"/>
     <path d="M 21.09375 65.828125 
L 21.09375 52.828125 
L 28.171875 52.828125 
L 28.171875 42.4375 
L 21.09375 42.4375 
L 21.09375 16.21875 
Q 21.09375 13.09375 21.9375 11.921875 
Q 22.796875 10.75 25.25 10.75 
Q 27.25 10.75 28.515625 11.078125 
L 28.421875 0.34375 
Q 24.90625 -0.984375 20.796875 -0.984375 
Q 7.421875 -0.984375 7.28125 14.359375 
L 7.28125 42.4375 
L 1.171875 42.4375 
L 1.171875 52.828125 
L 7.28125 52.828125 
L 7.28125 65.828125 
z
" id="RobotoCondensed-Bold-116"/>
     <path d="M 30.125 0 
Q 29.546875 1.21875 28.953125 4.109375 
Q 25.25 -0.984375 18.890625 -0.984375 
Q 12.25 -0.984375 7.875 3.40625 
Q 3.515625 7.8125 3.515625 14.796875 
Q 3.515625 23.09375 8.8125 27.625 
Q 14.109375 32.171875 24.078125 32.28125 
L 28.265625 32.28125 
L 28.265625 36.53125 
Q 28.265625 40.09375 27.046875 41.546875 
Q 25.828125 43.015625 23.484375 43.015625 
Q 18.3125 43.015625 18.3125 36.96875 
L 4.5 36.96875 
Q 4.5 44.28125 9.984375 49.046875 
Q 15.484375 53.8125 23.875 53.8125 
Q 32.5625 53.8125 37.328125 49.296875 
Q 42.09375 44.78125 42.09375 36.375 
L 42.09375 11.53125 
Q 42.1875 4.6875 44.046875 0.828125 
L 44.046875 0 
z
M 21.96875 9.859375 
Q 24.265625 9.859375 25.875 10.78125 
Q 27.484375 11.71875 28.265625 12.984375 
L 28.265625 23.96875 
L 24.953125 23.96875 
Q 21.4375 23.96875 19.40625 21.71875 
Q 17.390625 19.484375 17.390625 15.71875 
Q 17.390625 9.859375 21.96875 9.859375 
z
" id="RobotoCondensed-Bold-97"/>
     <path d="M 31.109375 39.5 
L 26.515625 39.890625 
Q 20.84375 39.890625 18.84375 34.90625 
L 18.84375 0 
L 4.984375 0 
L 4.984375 52.828125 
L 18.015625 52.828125 
L 18.40625 47.125 
Q 21.6875 53.8125 27.4375 53.8125 
Q 29.78125 53.8125 31.25 53.171875 
z
" id="RobotoCondensed-Bold-114"/>
     <path id="RobotoCondensed-Bold-8202"/>
     <path d="M 5.71875 0 
L 5.71875 71.09375 
L 24.515625 71.09375 
Q 36.96875 71.09375 44.359375 63.1875 
Q 51.765625 55.28125 51.90625 41.5 
L 51.90625 29.984375 
Q 51.90625 15.96875 44.5 7.984375 
Q 37.109375 0 24.125 0 
z
M 20.0625 59.125 
L 20.0625 11.921875 
L 24.359375 11.921875 
Q 31.546875 11.921875 34.46875 15.703125 
Q 37.40625 19.484375 37.546875 28.765625 
L 37.546875 41.109375 
Q 37.546875 51.078125 34.765625 55 
Q 31.984375 58.9375 25.296875 59.125 
z
" id="RobotoCondensed-Bold-68"/>
    </defs>
    <g style="fill:#1abc9c;" transform="translate(124.150951 55.736804)rotate(-45)scale(0.15 -0.15)">
     <use xlink:href="#RobotoCondensed-Bold-115"/>
     <use x="45.410156" xlink:href="#RobotoCondensed-Bold-116"/>
     <use x="76.123047" xlink:href="#RobotoCondensed-Bold-97"/>
     <use x="123.193359" xlink:href="#RobotoCondensed-Bold-114"/>
     <use x="156.347656" xlink:href="#RobotoCondensed-Bold-116"/>
     <use x="187.060547" xlink:href="#RobotoCondensed-Bold-8202"/>
     <use x="197.607422" xlink:href="#RobotoCondensed-Bold-68"/>
     <use x="254.101562" xlink:href="#RobotoCondensed-Bold-97"/>
     <use x="301.171875" xlink:href="#RobotoCondensed-Bold-116"/>
     <use x="331.884766" xlink:href="#RobotoCondensed-Bold-101"/>
    </g>
   </g>
   <g id="text_6">
    <!-- end Date   -->
    <defs>
     <path d="M 17.671875 52.828125 
L 18.0625 47.609375 
Q 22.75 53.8125 30.328125 53.8125 
Q 43.953125 53.8125 44.34375 34.71875 
L 44.34375 0 
L 30.46875 0 
L 30.46875 33.6875 
Q 30.46875 38.1875 29.125 40.203125 
Q 27.78125 42.234375 24.421875 42.234375 
Q 20.65625 42.234375 18.5625 38.375 
L 18.5625 0 
L 4.6875 0 
L 4.6875 52.828125 
z
" id="RobotoCondensed-Bold-110"/>
     <path d="M 3.171875 28.03125 
Q 3.171875 41.015625 7.5625 47.40625 
Q 11.96875 53.8125 20.359375 53.8125 
Q 26.46875 53.8125 30.515625 48.53125 
L 30.515625 75 
L 44.4375 75 
L 44.4375 0 
L 31.890625 0 
L 31.25 5.375 
Q 27 -0.984375 20.3125 -0.984375 
Q 12.015625 -0.984375 7.640625 5.359375 
Q 3.265625 11.71875 3.171875 24.03125 
z
M 17.046875 24.5625 
Q 17.046875 16.75 18.703125 13.640625 
Q 20.359375 10.546875 24.3125 10.546875 
Q 28.421875 10.546875 30.515625 14.203125 
L 30.515625 38.328125 
Q 28.46875 42.234375 24.359375 42.234375 
Q 20.5625 42.234375 18.796875 39.15625 
Q 17.046875 36.078125 17.046875 28.21875 
z
" id="RobotoCondensed-Bold-100"/>
     <path id="RobotoCondensed-Bold-32"/>
    </defs>
    <g style="fill:#e74c3c;" transform="translate(533.350951 56.036772)rotate(-45)scale(0.15 -0.15)">
     <use xlink:href="#RobotoCondensed-Bold-101"/>
     <use x="47.851562" xlink:href="#RobotoCondensed-Bold-110"/>
     <use x="97.070312" xlink:href="#RobotoCondensed-Bold-100"/>
     <use x="146.630859" xlink:href="#RobotoCondensed-Bold-8202"/>
     <use x="157.177734" xlink:href="#RobotoCondensed-Bold-68"/>
     <use x="213.671875" xlink:href="#RobotoCondensed-Bold-97"/>
     <use x="260.742188" xlink:href="#RobotoCondensed-Bold-116"/>
     <use x="291.455078" xlink:href="#RobotoCondensed-Bold-101"/>
     <use x="339.306641" xlink:href="#RobotoCondensed-Bold-32"/>
     <use x="362.353516" xlink:href="#RobotoCondensed-Bold-32"/>
    </g>
   </g>
   <g id="text_7">
    <!-- time Limit Min: 90 -->
    <defs>
     <path d="M 17.78125 65.625 
L 17.78125 52.828125 
L 25.734375 52.828125 
L 25.734375 45.84375 
L 17.78125 45.84375 
L 17.78125 13.09375 
Q 17.78125 9.96875 18.796875 8.34375 
Q 19.828125 6.734375 22.3125 6.734375 
Q 24.03125 6.734375 25.78125 7.328125 
L 25.6875 0 
Q 22.75 -0.984375 19.671875 -0.984375 
Q 14.546875 -0.984375 11.859375 2.671875 
Q 9.1875 6.34375 9.1875 13.03125 
L 9.1875 45.84375 
L 1.125 45.84375 
L 1.125 52.828125 
L 9.1875 52.828125 
L 9.1875 65.625 
z
" id="RobotoCondensed-Regular-116"/>
     <path d="M 15.765625 0 
L 7.125 0 
L 7.125 52.828125 
L 15.765625 52.828125 
z
M 16.453125 66.84375 
Q 16.453125 64.65625 15.234375 63.1875 
Q 14.015625 61.71875 11.53125 61.71875 
Q 9.078125 61.71875 7.859375 63.1875 
Q 6.640625 64.65625 6.640625 66.84375 
Q 6.640625 69.046875 7.859375 70.5625 
Q 9.078125 72.078125 11.515625 72.078125 
Q 13.96875 72.078125 15.203125 70.53125 
Q 16.453125 69 16.453125 66.84375 
z
" id="RobotoCondensed-Regular-105"/>
     <path d="M 14.59375 52.828125 
L 14.796875 47.953125 
Q 19.625 53.8125 27.546875 53.8125 
Q 36.375 53.8125 39.890625 46.140625 
Q 44.875 53.8125 53.765625 53.8125 
Q 68.359375 53.8125 68.703125 35.59375 
L 68.703125 0 
L 60.109375 0 
L 60.109375 34.765625 
Q 60.109375 40.53125 58.046875 43.328125 
Q 56 46.140625 51.125 46.140625 
Q 47.21875 46.140625 44.765625 43.109375 
Q 42.328125 40.09375 41.9375 35.40625 
L 41.9375 0 
L 33.25 0 
L 33.25 35.15625 
Q 33.109375 46.140625 24.3125 46.140625 
Q 17.78125 46.140625 15.09375 39.59375 
L 15.09375 0 
L 6.5 0 
L 6.5 52.828125 
z
" id="RobotoCondensed-Regular-109"/>
     <path d="M 25.34375 -0.984375 
Q 15.484375 -0.984375 10.203125 4.90625 
Q 4.9375 10.796875 4.828125 22.171875 
L 4.828125 28.5625 
Q 4.828125 40.375 9.984375 47.09375 
Q 15.140625 53.8125 24.359375 53.8125 
Q 33.640625 53.8125 38.234375 47.90625 
Q 42.828125 42 42.921875 29.5 
L 42.921875 23.828125 
L 13.421875 23.828125 
L 13.421875 22.609375 
Q 13.421875 14.109375 16.625 10.25 
Q 19.828125 6.390625 25.828125 6.390625 
Q 29.640625 6.390625 32.546875 7.828125 
Q 35.453125 9.28125 37.984375 12.40625 
L 42.484375 6.9375 
Q 36.859375 -0.984375 25.34375 -0.984375 
z
M 24.359375 46.390625 
Q 19 46.390625 16.40625 42.703125 
Q 13.8125 39.015625 13.484375 31.25 
L 34.28125 31.25 
L 34.28125 32.421875 
Q 33.9375 39.9375 31.5625 43.15625 
Q 29.203125 46.390625 24.359375 46.390625 
z
" id="RobotoCondensed-Regular-101"/>
     <path id="RobotoCondensed-Regular-8202"/>
     <path d="M 16.65625 7.671875 
L 44.53125 7.671875 
L 44.53125 0 
L 7.671875 0 
L 7.671875 71.09375 
L 16.65625 71.09375 
z
" id="RobotoCondensed-Regular-76"/>
     <path d="M 19.1875 71.09375 
L 37.75 13.09375 
L 56.296875 71.09375 
L 67.828125 71.09375 
L 67.828125 0 
L 58.890625 0 
L 58.890625 27.6875 
L 59.71875 55.421875 
L 41.109375 0 
L 34.28125 0 
L 15.765625 55.21875 
L 16.609375 27.6875 
L 16.609375 0 
L 7.671875 0 
L 7.671875 71.09375 
z
" id="RobotoCondensed-Regular-77"/>
     <path d="M 14.59375 52.828125 
L 14.84375 47.125 
Q 19.875 53.8125 27.6875 53.8125 
Q 41.703125 53.8125 41.890625 35.109375 
L 41.890625 0 
L 33.296875 0 
L 33.296875 34.71875 
Q 33.296875 40.921875 31.21875 43.53125 
Q 29.15625 46.140625 25 46.140625 
Q 21.78125 46.140625 19.21875 43.984375 
Q 16.65625 41.84375 15.09375 38.375 
L 15.09375 0 
L 6.453125 0 
L 6.453125 52.828125 
z
" id="RobotoCondensed-Regular-110"/>
     <path d="M 6.78125 4.734375 
Q 6.78125 7.078125 8.171875 8.640625 
Q 9.5625 10.203125 12.34375 10.203125 
Q 15.125 10.203125 16.5625 8.640625 
Q 18.015625 7.078125 18.015625 4.734375 
Q 18.015625 2.484375 16.5625 0.96875 
Q 15.125 -0.53125 12.34375 -0.53125 
Q 9.5625 -0.53125 8.171875 0.96875 
Q 6.78125 2.484375 6.78125 4.734375 
z
M 6.78125 47.734375 
Q 6.78125 50.078125 8.171875 51.640625 
Q 9.5625 53.203125 12.34375 53.203125 
Q 15.125 53.203125 16.5625 51.640625 
Q 18.015625 50.078125 18.015625 47.734375 
Q 18.015625 45.484375 16.5625 43.96875 
Q 15.125 42.46875 12.34375 42.46875 
Q 9.5625 42.46875 8.171875 43.96875 
Q 6.78125 45.484375 6.78125 47.734375 
z
" id="RobotoCondensed-Regular-58"/>
     <path id="RobotoCondensed-Regular-32"/>
     <path d="M 34.125 30.375 
Q 28.953125 23.78125 22.015625 23.78125 
Q 14.265625 23.78125 9.671875 30.3125 
Q 5.078125 36.859375 5.078125 47.46875 
Q 5.078125 58.59375 10.078125 65.328125 
Q 15.09375 72.078125 23.734375 72.078125 
Q 32.71875 72.078125 37.765625 64.28125 
Q 42.828125 56.5 42.828125 42.71875 
L 42.828125 40.046875 
Q 42.828125 28.21875 41.046875 20.890625 
Q 39.265625 13.578125 35.796875 9.078125 
Q 32.328125 4.59375 26.953125 2.265625 
Q 21.578125 -0.046875 13.53125 -0.046875 
L 13.53125 7.5625 
L 15.046875 7.5625 
Q 24.21875 7.765625 28.96875 13.15625 
Q 33.734375 18.5625 34.125 30.375 
z
M 23.484375 31.25 
Q 26.609375 31.25 29.578125 33.859375 
Q 32.5625 36.46875 34.234375 40.71875 
L 34.234375 44.53125 
Q 34.234375 53.375 31.15625 58.953125 
Q 28.078125 64.546875 23.734375 64.546875 
Q 19.046875 64.546875 16.28125 59.9375 
Q 13.53125 55.328125 13.53125 47.953125 
Q 13.53125 40.578125 16.203125 35.90625 
Q 18.890625 31.25 23.484375 31.25 
z
" id="RobotoCondensed-Regular-57"/>
     <path d="M 43.703125 30.328125 
Q 43.703125 14.59375 39.109375 6.796875 
Q 34.515625 -0.984375 24.703125 -0.984375 
Q 15.1875 -0.984375 10.5 6.484375 
Q 5.8125 13.96875 5.609375 28.953125 
L 5.609375 41.15625 
Q 5.609375 56.734375 10.21875 64.40625 
Q 14.84375 72.078125 24.609375 72.078125 
Q 34.234375 72.078125 38.84375 64.796875 
Q 43.453125 57.515625 43.703125 42.78125 
z
M 35.0625 42.671875 
Q 35.0625 53.953125 32.5625 59.296875 
Q 30.078125 64.65625 24.609375 64.65625 
Q 19.28125 64.65625 16.796875 59.40625 
Q 14.3125 54.15625 14.203125 43.5625 
L 14.203125 28.90625 
Q 14.203125 17.671875 16.796875 12.03125 
Q 19.390625 6.390625 24.703125 6.390625 
Q 29.984375 6.390625 32.46875 11.71875 
Q 34.96875 17.046875 35.0625 27.984375 
z
" id="RobotoCondensed-Regular-48"/>
    </defs>
    <g style="fill:#2c3e50;" transform="translate(134.61 98.761031)scale(0.11 -0.11)">
     <use xlink:href="#RobotoCondensed-Regular-116"/>
     <use x="29.541016" xlink:href="#RobotoCondensed-Regular-105"/>
     <use x="52.441406" xlink:href="#RobotoCondensed-Regular-109"/>
     <use x="127.685547" xlink:href="#RobotoCondensed-Regular-101"/>
     <use x="174.511719" xlink:href="#RobotoCondensed-Regular-8202"/>
     <use x="185.058594" xlink:href="#RobotoCondensed-Regular-76"/>
     <use x="232.568359" xlink:href="#RobotoCondensed-Regular-105"/>
     <use x="255.46875" xlink:href="#RobotoCondensed-Regular-109"/>
     <use x="330.712891" xlink:href="#RobotoCondensed-Regular-105"/>
     <use x="353.613281" xlink:href="#RobotoCondensed-Regular-116"/>
     <use x="383.154297" xlink:href="#RobotoCondensed-Regular-8202"/>
     <use x="393.701172" xlink:href="#RobotoCondensed-Regular-77"/>
     <use x="469.238281" xlink:href="#RobotoCondensed-Regular-105"/>
     <use x="492.138672" xlink:href="#RobotoCondensed-Regular-110"/>
     <use x="540.527344" xlink:href="#RobotoCondensed-Regular-58"/>
     <use x="563.867188" xlink:href="#RobotoCondensed-Regular-32"/>
     <use x="586.767578" xlink:href="#RobotoCondensed-Regular-57"/>
     <use x="636.132812" xlink:href="#RobotoCondensed-Regular-48"/>
    </g>
   </g>
   <g id="text_8">
    <!-- time Limit Min: 90 -->
    <g style="fill:#007bff;" transform="translate(339.21 171.241031)scale(0.11 -0.11)">
     <use xlink:href="#RobotoCondensed-Regular-116"/>
     <use x="29.541016" xlink:href="#RobotoCondensed-Regular-105"/>
     <use x="52.441406" xlink:href="#RobotoCondensed-Regular-109"/>
     <use x="127.685547" xlink:href="#RobotoCondensed-Regular-101"/>
     <use x="174.511719" xlink:href="#RobotoCondensed-Regular-8202"/>
     <use x="185.058594" xlink:href="#RobotoCondensed-Regular-76"/>
     <use x="232.568359" xlink:href="#RobotoCondensed-Regular-105"/>
     <use x="255.46875" xlink:href="#RobotoCondensed-Regular-109"/>
     <use x="330.712891" xlink:href="#RobotoCondensed-Regular-105"/>
     <use x="353.613281" xlink:href="#RobotoCondensed-Regular-116"/>
     <use x="383.154297" xlink:href="#RobotoCondensed-Regular-8202"/>
     <use x="393.701172" xlink:href="#RobotoCondensed-Regular-77"/>
     <use x="469.238281" xlink:href="#RobotoCondensed-Regular-105"/>
     <use x="492.138672" xlink:href="#RobotoCondensed-Regular-110"/>
     <use x="540.527344" xlink:href="#RobotoCondensed-Regular-58"/>
     <use x="563.867188" xlink:href="#RobotoCondensed-Regular-32"/>
     <use x="586.767578" xlink:href="#RobotoCondensed-Regular-57"/>
     <use x="636.132812" xlink:href="#RobotoCondensed-Regular-48"/>
    </g>
   </g>
   <g id="text_9">
    <!-- Student 1 -->
    <defs>
     <path d="M 35.75 18.65625 
Q 35.75 23 33.515625 25.21875 
Q 31.296875 27.4375 25.4375 29.828125 
Q 14.75 33.890625 10.0625 39.328125 
Q 5.375 44.78125 5.375 52.203125 
Q 5.375 61.1875 11.734375 66.625 
Q 18.109375 72.078125 27.9375 72.078125 
Q 34.46875 72.078125 39.59375 69.3125 
Q 44.734375 66.546875 47.484375 61.515625 
Q 50.25 56.5 50.25 50.09375 
L 35.9375 50.09375 
Q 35.9375 55.078125 33.8125 57.6875 
Q 31.6875 60.296875 27.6875 60.296875 
Q 23.921875 60.296875 21.828125 58.078125 
Q 19.734375 55.859375 19.734375 52.09375 
Q 19.734375 49.171875 22.078125 46.796875 
Q 24.421875 44.4375 30.375 41.890625 
Q 40.765625 38.140625 45.484375 32.671875 
Q 50.203125 27.203125 50.203125 18.75 
Q 50.203125 9.46875 44.28125 4.234375 
Q 38.375 -0.984375 28.21875 -0.984375 
Q 21.34375 -0.984375 15.671875 1.84375 
Q 10.015625 4.6875 6.8125 9.953125 
Q 3.609375 15.234375 3.609375 22.40625 
L 18.015625 22.40625 
Q 18.015625 16.265625 20.40625 13.46875 
Q 22.796875 10.6875 28.21875 10.6875 
Q 35.75 10.6875 35.75 18.65625 
z
" id="RobotoCondensed-Bold-83"/>
     <path d="M 31 4.828125 
Q 26.703125 -0.984375 19.484375 -0.984375 
Q 12.203125 -0.984375 8.4375 4.015625 
Q 4.6875 9.03125 4.6875 18.609375 
L 4.6875 52.828125 
L 18.5 52.828125 
L 18.5 18.265625 
Q 18.609375 10.546875 23.640625 10.546875 
Q 28.375 10.546875 30.46875 14.65625 
L 30.46875 52.828125 
L 44.390625 52.828125 
L 44.390625 0 
L 31.390625 0 
z
" id="RobotoCondensed-Bold-117"/>
     <path d="M 35.0625 0 
L 21.1875 0 
L 21.1875 54.296875 
L 7.671875 49.078125 
L 7.671875 60.59375 
L 33.59375 71.1875 
L 35.0625 71.1875 
z
" id="RobotoCondensed-Bold-49"/>
    </defs>
    <g style="fill:#2c3e50;" transform="translate(42.81525 124.847174)scale(0.18 -0.18)">
     <use xlink:href="#RobotoCondensed-Bold-83"/>
     <use x="54.003906" xlink:href="#RobotoCondensed-Bold-116"/>
     <use x="84.716797" xlink:href="#RobotoCondensed-Bold-117"/>
     <use x="133.935547" xlink:href="#RobotoCondensed-Bold-100"/>
     <use x="183.496094" xlink:href="#RobotoCondensed-Bold-101"/>
     <use x="231.347656" xlink:href="#RobotoCondensed-Bold-110"/>
     <use x="280.566406" xlink:href="#RobotoCondensed-Bold-116"/>
     <use x="311.279297" xlink:href="#RobotoCondensed-Bold-32"/>
     <use x="334.326172" xlink:href="#RobotoCondensed-Bold-49"/>
    </g>
   </g>
   <g id="text_10">
    <!-- Student 2 -->
    <defs>
     <path d="M 46.53125 0 
L 4.640625 0 
L 4.640625 9.765625 
L 23.875 34.234375 
Q 27.546875 39.3125 29.265625 43.140625 
Q 31 46.96875 31 50.484375 
Q 31 55.21875 29.359375 57.90625 
Q 27.734375 60.59375 24.65625 60.59375 
Q 21.296875 60.59375 19.3125 57.46875 
Q 17.328125 54.34375 17.328125 48.6875 
L 3.46875 48.6875 
Q 3.46875 55.21875 6.171875 60.640625 
Q 8.890625 66.0625 13.796875 69.0625 
Q 18.703125 72.078125 24.90625 72.078125 
Q 34.421875 72.078125 39.671875 66.828125 
Q 44.921875 61.578125 44.921875 51.90625 
Q 44.921875 45.90625 42.015625 39.71875 
Q 39.109375 33.546875 31.5 24.515625 
L 22.359375 11.46875 
L 46.53125 11.46875 
z
" id="RobotoCondensed-Bold-50"/>
    </defs>
    <g style="fill:#007bff;" transform="translate(247.41525 197.327174)scale(0.18 -0.18)">
     <use xlink:href="#RobotoCondensed-Bold-83"/>
     <use x="54.003906" xlink:href="#RobotoCondensed-Bold-116"/>
     <use x="84.716797" xlink:href="#RobotoCondensed-Bold-117"/>
     <use x="133.935547" xlink:href="#RobotoCondensed-Bold-100"/>
     <use x="183.496094" xlink:href="#RobotoCondensed-Bold-101"/>
     <use x="231.347656" xlink:href="#RobotoCondensed-Bold-110"/>
     <use x="280.566406" xlink:href="#RobotoCondensed-Bold-116"/>
     <use x="311.279297" xlink:href="#RobotoCondensed-Bold-32"/>
     <use x="334.326172" xlink:href="#RobotoCondensed-Bold-50"/>
    </g>
   </g>
   <g id="text_11">
    <!-- 90 min -->
    <defs>
     <path d="M 31.453125 27.484375 
Q 27.046875 23 21.828125 23 
Q 13.71875 23 9.046875 29.515625 
Q 4.390625 36.03125 4.390625 46.921875 
Q 4.390625 53.953125 7.03125 59.78125 
Q 9.671875 65.625 14.375 68.84375 
Q 19.09375 72.078125 24.90625 72.078125 
Q 30.90625 72.078125 35.59375 68.5 
Q 40.28125 64.9375 42.859375 58.265625 
Q 45.453125 51.609375 45.453125 43.109375 
L 45.453125 38.09375 
Q 45.453125 19.921875 37.46875 9.6875 
Q 29.5 -0.53125 14.84375 -0.734375 
L 13.421875 -0.734375 
L 13.421875 11.1875 
L 14.359375 11.1875 
Q 22.46875 11.234375 26.53125 15.375 
Q 30.609375 19.53125 31.453125 27.484375 
z
M 25.34375 33.84375 
Q 29.34375 33.84375 31.640625 39.3125 
L 31.640625 45.65625 
Q 31.640625 52.640625 29.734375 56.609375 
Q 27.828125 60.59375 24.8125 60.59375 
Q 21.828125 60.59375 20 56.65625 
Q 18.171875 52.734375 18.171875 47.078125 
Q 18.171875 40.921875 20.0625 37.375 
Q 21.96875 33.84375 25.34375 33.84375 
z
" id="RobotoCondensed-Bold-57"/>
     <path d="M 45.953125 29.390625 
Q 45.953125 14.65625 40.59375 6.828125 
Q 35.25 -0.984375 25.34375 -0.984375 
Q 15.53125 -0.984375 10.171875 6.609375 
Q 4.828125 14.203125 4.640625 28.375 
L 4.640625 41.796875 
Q 4.640625 56.5 9.953125 64.28125 
Q 15.28125 72.078125 25.234375 72.078125 
Q 35.203125 72.078125 40.515625 64.359375 
Q 45.84375 56.640625 45.953125 42.328125 
z
M 32.078125 43.796875 
Q 32.078125 52.203125 30.421875 56.390625 
Q 28.765625 60.59375 25.25 60.59375 
Q 18.65625 60.59375 18.40625 45.21875 
L 18.40625 27.484375 
Q 18.40625 18.890625 20.09375 14.6875 
Q 21.78125 10.5 25.34375 10.5 
Q 28.71875 10.5 30.34375 14.421875 
Q 31.984375 18.359375 32.078125 26.46875 
z
" id="RobotoCondensed-Bold-48"/>
    </defs>
    <g style="fill:#ffffff;" transform="translate(153.024 123.499744)scale(0.14 -0.14)">
     <use xlink:href="#RobotoCondensed-Bold-57"/>
     <use x="50.585938" xlink:href="#RobotoCondensed-Bold-48"/>
     <use x="101.171875" xlink:href="#RobotoCondensed-Bold-32"/>
     <use x="124.21875" xlink:href="#RobotoCondensed-Bold-109"/>
     <use x="198.388672" xlink:href="#RobotoCondensed-Bold-105"/>
     <use x="223.583984" xlink:href="#RobotoCondensed-Bold-110"/>
    </g>
   </g>
   <g id="text_12">
    <!-- 60 min -->
    <g style="fill:#ffffff;" transform="translate(357.624 195.979744)scale(0.14 -0.14)">
     <use xlink:href="#RobotoCondensed-Bold-54"/>
     <use x="50.585938" xlink:href="#RobotoCondensed-Bold-48"/>
     <use x="101.171875" xlink:href="#RobotoCondensed-Bold-32"/>
     <use x="124.21875" xlink:href="#RobotoCondensed-Bold-109"/>
     <use x="198.388672" xlink:href="#RobotoCondensed-Bold-105"/>
     <use x="223.583984" xlink:href="#RobotoCondensed-Bold-110"/>
    </g>
   </g>
   <g id="patch_9">
    <path d="M 501.292593 234.456655 
Q 527.516153 224.919861 531.138698 203.533554 
L 531.138698 203.533554 
Q 525.252595 223.877357 500.037466 230.448582 
z
" style="fill:#007bff;"/>
   </g>
   <g id="text_13">
    <!-- Loses 30 min due to late start -->
    <defs>
     <path d="M 16.5 11.921875 
L 40.96875 11.921875 
L 38.875 0 
L 0.4375 0 
L 12.75 71.09375 
L 26.765625 71.09375 
z
" id="RobotoCondensed-BoldItalic-76"/>
     <path d="M 27.59375 53.8125 
Q 35.59375 53.609375 40.078125 48.390625 
Q 44.578125 43.171875 45.015625 34.375 
L 45.015625 30.90625 
Q 44.390625 15.578125 37.671875 7.15625 
Q 30.953125 -1.265625 20.171875 -0.984375 
Q 13.875 -0.828125 9.765625 2.421875 
Q 5.671875 5.671875 3.875 11.421875 
Q 2.09375 17.1875 2.875 24.65625 
L 3.171875 27.296875 
Q 4.59375 39.75 11.125 46.890625 
Q 17.671875 54.046875 27.59375 53.8125 
z
M 16.15625 19.140625 
Q 16.15625 10.6875 21.34375 10.40625 
Q 28.375 10.015625 30.46875 21.140625 
L 31 24.65625 
Q 31.6875 31.6875 31.6875 33.6875 
Q 31.6875 42.09375 26.375 42.4375 
Q 22.515625 42.625 20.015625 38.859375 
Q 17.53125 35.109375 16.84375 28 
Q 16.15625 20.90625 16.15625 19.140625 
z
" id="RobotoCondensed-BoldItalic-111"/>
     <path d="M 25.203125 14.5 
Q 25.6875 17.921875 19.875 20.609375 
Q 14.0625 23.296875 11.15625 25.65625 
Q 8.25 28.03125 6.90625 30.90625 
Q 5.5625 33.796875 5.71875 37.453125 
Q 6.0625 44.625 11.59375 49.28125 
Q 17.140625 53.953125 25.140625 53.859375 
Q 33.0625 53.65625 37.625 49.140625 
Q 42.1875 44.625 42.09375 37.203125 
L 28.609375 37.203125 
Q 28.765625 40.671875 27.703125 42.109375 
Q 26.65625 43.5625 24.421875 43.5625 
Q 22.078125 43.5625 20.4375 41.96875 
Q 18.796875 40.375 18.40625 38.140625 
Q 17.828125 34.96875 23.359375 32.46875 
Q 28.90625 29.984375 31.34375 28.328125 
Q 38.625 23.484375 38.140625 15.09375 
Q 37.84375 10.15625 35.078125 6.46875 
Q 32.328125 2.78125 27.703125 0.828125 
Q 23.09375 -1.125 17.71875 -0.984375 
Q 10.015625 -0.78125 5.125 4.046875 
Q 0.25 8.890625 0.34375 16.40625 
L 13.1875 16.359375 
Q 13.03125 12.546875 14.390625 10.890625 
Q 15.765625 9.234375 18.65625 9.234375 
Q 21.1875 9.234375 22.96875 10.578125 
Q 24.75 11.921875 25.203125 14.5 
z
" id="RobotoCondensed-BoldItalic-115"/>
     <path d="M 21.53125 -0.984375 
Q 15.140625 -0.921875 10.671875 2.140625 
Q 6.203125 5.21875 4.21875 10.765625 
Q 2.25 16.3125 3.03125 23.390625 
L 3.46875 27 
Q 5.078125 40.140625 11.453125 47.09375 
Q 17.828125 54.046875 27.6875 53.8125 
Q 34.90625 53.609375 39.03125 49.28125 
Q 43.171875 44.96875 43.84375 37.203125 
Q 44.234375 32.5625 43.65625 28.125 
L 42.71875 21.78125 
L 16.359375 21.78125 
Q 16.109375 19.671875 16.21875 17.71875 
Q 16.546875 10.6875 23.09375 10.546875 
Q 29.203125 10.359375 34.90625 15.1875 
L 39.453125 6.78125 
Q 36.765625 3.125 31.953125 1.015625 
Q 27.15625 -1.078125 21.53125 -0.984375 
z
M 26.375 42.4375 
Q 20.5625 42.671875 18.265625 35.015625 
L 17.28125 31.453125 
L 30.71875 31.390625 
Q 31.203125 34.234375 31.25 35.984375 
Q 31.453125 42.1875 26.375 42.4375 
z
" id="RobotoCondensed-BoldItalic-101"/>
     <path id="RobotoCondensed-BoldItalic-32"/>
     <path d="M 18.5 41.84375 
L 24.5625 41.75 
Q 29.046875 41.84375 31.515625 45.625 
Q 33.984375 49.421875 33.59375 54.890625 
Q 33.0625 60.59375 28.5625 60.75 
Q 25.734375 60.75 23.828125 58.59375 
Q 21.921875 56.453125 21.296875 52.734375 
L 7.8125 52.6875 
Q 8.5 61.328125 14.5 66.765625 
Q 20.515625 72.21875 29.109375 72.125 
Q 37.75 71.921875 42.765625 66.53125 
Q 47.796875 61.140625 47.21875 52.15625 
Q 46.484375 42.140625 35.890625 36.28125 
Q 39.703125 34.03125 41.5 29.96875 
Q 43.3125 25.921875 42.96875 20.3125 
Q 42.53125 14.15625 39.421875 9.25 
Q 36.328125 4.34375 31 1.609375 
Q 25.6875 -1.125 19.390625 -0.984375 
Q 11.03125 -0.78125 6.171875 4.859375 
Q 1.3125 10.5 1.609375 19.53125 
L 15.09375 19.484375 
Q 14.9375 15.4375 16.453125 13.015625 
Q 17.96875 10.59375 20.75 10.5 
Q 24.953125 10.40625 27.578125 14.25 
Q 30.21875 18.109375 29.890625 24.078125 
Q 29.734375 27 28.21875 28.75 
Q 26.703125 30.515625 23.921875 30.671875 
L 16.75 30.71875 
z
" id="RobotoCondensed-BoldItalic-51"/>
     <path d="M 20.40625 -0.984375 
Q 14.9375 -0.828125 11.171875 2.09375 
Q 7.421875 5.03125 5.734375 10.5625 
Q 4.046875 16.109375 4.25 22.90625 
Q 4.34375 26.3125 4.734375 29.390625 
L 6.84375 43.109375 
Q 9.1875 57.671875 15.328125 65.015625 
Q 21.484375 72.359375 31 72.125 
Q 39.265625 71.828125 43.390625 65.578125 
Q 47.515625 59.328125 47.21875 48.296875 
Q 47.125 44.875 46.734375 41.796875 
L 44.484375 27.296875 
Q 41.609375 10.984375 34.125 4.046875 
Q 28.375 -1.265625 20.40625 -0.984375 
z
M 33.453125 43.84375 
L 34.078125 49.21875 
L 34.1875 53.46875 
Q 34.078125 56.6875 32.953125 58.609375 
Q 31.84375 60.546875 29.734375 60.6875 
Q 26.125 60.984375 23.75 57.125 
Q 21.390625 53.265625 20.265625 43.84375 
L 17.921875 27.4375 
L 17.28125 21.96875 
L 17.1875 17.71875 
Q 17.390625 10.640625 21.6875 10.40625 
Q 25.25 10.109375 27.609375 13.859375 
Q 29.984375 17.625 31.109375 27.4375 
z
" id="RobotoCondensed-BoldItalic-48"/>
     <path d="M 21.484375 52.875 
L 20.609375 47.90625 
Q 26.078125 54 33.0625 53.8125 
Q 40.625 53.609375 42.921875 46.6875 
Q 48.921875 54 56.296875 53.859375 
Q 61.859375 53.765625 64.8125 49.6875 
Q 67.78125 45.609375 67.71875 38.09375 
L 67.484375 33.59375 
L 61.921875 0 
L 48.390625 0 
L 54 33.6875 
L 54.25 36.421875 
Q 54.640625 42.28125 50.34375 42.28125 
Q 46.875 42.28125 44 37.546875 
L 43.703125 35.203125 
L 37.59375 0 
L 24.125 0 
L 29.6875 33.59375 
L 29.984375 36.328125 
Q 30.375 42.28125 26.125 42.28125 
Q 24.078125 42.28125 22.625 41.125 
Q 21.1875 39.984375 19.96875 38.421875 
L 13.28125 0 
L -0.203125 0 
L 8.984375 52.828125 
z
" id="RobotoCondensed-BoldItalic-109"/>
     <path d="M 13.921875 0 
L 0.390625 0 
L 9.578125 52.828125 
L 23.09375 52.828125 
z
M 11.328125 66.265625 
Q 11.328125 69.625 13.453125 71.75 
Q 15.578125 73.875 18.65625 73.875 
Q 21.6875 73.96875 23.796875 71.890625 
Q 25.921875 69.828125 25.921875 66.75 
Q 25.921875 63.328125 23.796875 61.203125 
Q 21.6875 59.078125 18.609375 59.078125 
Q 15.484375 58.984375 13.40625 61.0625 
Q 11.328125 63.140625 11.328125 66.265625 
z
" id="RobotoCondensed-BoldItalic-105"/>
     <path d="M 21.1875 52.875 
L 20.21875 47.5625 
Q 25.78125 54.046875 32.5625 53.859375 
Q 38.140625 53.765625 41.046875 49.6875 
Q 43.953125 45.609375 43.890625 38.09375 
L 43.609375 33.59375 
L 37.984375 0 
L 24.46875 0 
L 30.03125 33.6875 
L 30.28125 36.578125 
Q 30.46875 42.28125 25.984375 42.28125 
Q 23.875 42.28125 22.40625 41.125 
Q 20.953125 39.984375 19.671875 38.421875 
L 12.984375 0 
L -0.59375 0 
L 8.59375 52.828125 
z
" id="RobotoCondensed-BoldItalic-110"/>
     <path d="M 23.1875 53.859375 
Q 29 53.65625 32.625 48.4375 
L 37.59375 75 
L 51.171875 75 
L 38.1875 0 
L 26.078125 0 
L 26.8125 5.375 
Q 21.734375 -1.078125 15.625 -1.078125 
Q 8.84375 -0.984375 5.390625 4.140625 
Q 1.953125 9.28125 2.09375 18.890625 
L 2.25 22.015625 
Q 3.375 38.140625 8.625 46.125 
Q 13.875 54.109375 23.1875 53.859375 
z
M 15.53125 19.09375 
Q 15.28125 14.84375 16.53125 12.671875 
Q 17.78125 10.5 20.359375 10.5 
Q 23.828125 10.40625 27 14.15625 
L 31.25 38.421875 
Q 29.4375 42.140625 26.03125 42.28125 
Q 18.796875 42.671875 16.9375 31.84375 
L 16.40625 28.125 
z
" id="RobotoCondensed-BoldItalic-100"/>
     <path d="M 26.375 4.828125 
Q 21.390625 -1.125 14.75 -1.03125 
Q 9.578125 -0.984375 6.453125 2.453125 
Q 3.328125 5.90625 2.828125 11.859375 
Q 2.546875 15.328125 2.875 18.65625 
L 8.59375 52.828125 
L 22.078125 52.828125 
L 16.359375 18.453125 
L 16.21875 16.0625 
Q 16.015625 13.625 16.921875 12.109375 
Q 17.828125 10.59375 19.625 10.546875 
Q 23.640625 10.40625 26.953125 14.59375 
L 33.59375 52.828125 
L 47.21875 52.828125 
L 38.03125 0 
L 25.484375 0 
z
" id="RobotoCondensed-BoldItalic-117"/>
     <path d="M 26.859375 65.828125 
L 24.609375 52.828125 
L 31.453125 52.828125 
L 29.640625 42.4375 
L 22.796875 42.4375 
L 18.3125 15.828125 
L 18.171875 14.265625 
Q 17.96875 10.984375 20.90625 10.890625 
Q 21.734375 10.84375 24.21875 11.140625 
L 23 0.296875 
Q 19.96875 -0.921875 15.96875 -0.921875 
Q 10.0625 -0.828125 7.078125 3.3125 
Q 4.109375 7.46875 4.78125 14.65625 
L 9.328125 42.4375 
L 3.375 42.4375 
L 5.171875 52.828125 
L 11.078125 52.828125 
L 13.375 65.828125 
z
" id="RobotoCondensed-BoldItalic-116"/>
     <path d="M 13.921875 0 
L 0.390625 0 
L 13.375 75 
L 26.953125 75 
z
" id="RobotoCondensed-BoldItalic-108"/>
     <path d="M 24.90625 0 
Q 24.515625 1.65625 24.515625 4.109375 
Q 20.015625 -1.03125 14.265625 -1.03125 
Q 8.15625 -0.921875 4.46875 3.46875 
Q 0.78125 7.859375 1.078125 14.40625 
Q 1.515625 22.796875 7.609375 27.5625 
Q 13.71875 32.328125 24.03125 32.328125 
L 27.984375 32.328125 
L 28.609375 36.625 
L 28.765625 38.8125 
Q 28.765625 43.0625 25.34375 43.0625 
Q 20.609375 43.21875 19.578125 37.015625 
L 6.15625 36.921875 
Q 6.59375 44.4375 12.40625 49.1875 
Q 18.21875 53.953125 26.5625 53.859375 
Q 34.421875 53.65625 38.59375 48.890625 
Q 42.78125 44.140625 42 36.328125 
L 37.703125 9.46875 
L 37.5 6.890625 
Q 37.3125 3.46875 38.1875 0.875 
L 38.140625 0 
z
M 17.96875 9.765625 
Q 21.53125 9.671875 24.609375 12.890625 
L 27 24.078125 
L 24.078125 24.078125 
Q 20.171875 23.875 17.765625 21.4375 
Q 15.375 19 14.890625 15.28125 
L 14.84375 13.421875 
Q 14.84375 11.859375 15.640625 10.828125 
Q 16.453125 9.8125 17.96875 9.765625 
z
" id="RobotoCondensed-BoldItalic-97"/>
     <path d="M 32.375 39.546875 
L 28.078125 40.046875 
Q 22.65625 40.140625 19.34375 34.90625 
L 13.234375 0 
L -0.296875 0 
L 8.890625 52.828125 
L 21.53125 52.875 
L 20.453125 47.078125 
Q 22.859375 50.875 25.140625 52.40625 
Q 27.4375 53.953125 30.078125 53.953125 
Q 31.640625 53.953125 34.234375 53.21875 
z
" id="RobotoCondensed-BoldItalic-114"/>
    </defs>
    <g style="fill:#007bff;" transform="translate(333.162 238.018144)scale(0.14 -0.14)">
     <use xlink:href="#RobotoCondensed-BoldItalic-76"/>
     <use x="46.923828" xlink:href="#RobotoCondensed-BoldItalic-111"/>
     <use x="95.654297" xlink:href="#RobotoCondensed-BoldItalic-115"/>
     <use x="140.185547" xlink:href="#RobotoCondensed-BoldItalic-101"/>
     <use x="187.109375" xlink:href="#RobotoCondensed-BoldItalic-115"/>
     <use x="231.640625" xlink:href="#RobotoCondensed-BoldItalic-32"/>
     <use x="254.492188" xlink:href="#RobotoCondensed-BoldItalic-51"/>
     <use x="304.052734" xlink:href="#RobotoCondensed-BoldItalic-48"/>
     <use x="353.613281" xlink:href="#RobotoCondensed-BoldItalic-32"/>
     <use x="376.464844" xlink:href="#RobotoCondensed-BoldItalic-109"/>
     <use x="448.876953" xlink:href="#RobotoCondensed-BoldItalic-105"/>
     <use x="473.828125" xlink:href="#RobotoCondensed-BoldItalic-110"/>
     <use x="522.070312" xlink:href="#RobotoCondensed-BoldItalic-32"/>
     <use x="544.921875" xlink:href="#RobotoCondensed-BoldItalic-100"/>
     <use x="593.505859" xlink:href="#RobotoCondensed-BoldItalic-117"/>
     <use x="641.748047" xlink:href="#RobotoCondensed-BoldItalic-101"/>
     <use x="688.671875" xlink:href="#RobotoCondensed-BoldItalic-32"/>
     <use x="711.523438" xlink:href="#RobotoCondensed-BoldItalic-116"/>
     <use x="741.796875" xlink:href="#RobotoCondensed-BoldItalic-111"/>
     <use x="790.527344" xlink:href="#RobotoCondensed-BoldItalic-32"/>
     <use x="813.378906" xlink:href="#RobotoCondensed-BoldItalic-108"/>
     <use x="838.330078" xlink:href="#RobotoCondensed-BoldItalic-97"/>
     <use x="884.472656" xlink:href="#RobotoCondensed-BoldItalic-116"/>
     <use x="914.746094" xlink:href="#RobotoCondensed-BoldItalic-101"/>
     <use x="961.669922" xlink:href="#RobotoCondensed-BoldItalic-32"/>
     <use x="984.521484" xlink:href="#RobotoCondensed-BoldItalic-115"/>
     <use x="1029.052734" xlink:href="#RobotoCondensed-BoldItalic-116"/>
     <use x="1059.326172" xlink:href="#RobotoCondensed-BoldItalic-97"/>
     <use x="1105.46875" xlink:href="#RobotoCondensed-BoldItalic-114"/>
     <use x="1138.134766" xlink:href="#RobotoCondensed-BoldItalic-116"/>
    </g>
   </g>
   <g id="patch_10">
    <path d="M 22.08 263.182019 
C 26.026222 263.182019 29.811348 264.709409 32.601749 267.427799 
C 35.392149 270.146189 36.96 273.833635 36.96 277.678019 
C 36.96 281.522403 35.392149 285.209849 32.601749 287.928239 
C 29.811348 290.646629 26.026222 292.174019 22.08 292.174019 
C 18.133778 292.174019 14.348652 290.646629 11.558251 287.928239 
C 8.767851 285.209849 7.2 281.522403 7.2 277.678019 
C 7.2 273.833635 8.767851 270.146189 11.558251 267.427799 
C 14.348652 264.709409 18.133778 263.182019 22.08 263.182019 
z
" style="fill:#e74c3c;stroke:#c0392b;stroke-linejoin:miter;stroke-width:2;"/>
   </g>
   <g id="patch_11">
    <path d="M 124.38 263.182019 
C 128.326222 263.182019 132.111348 264.709409 134.901749 267.427799 
C 137.692149 270.146189 139.26 273.833635 139.26 277.678019 
C 139.26 281.522403 137.692149 285.209849 134.901749 287.928239 
C 132.111348 290.646629 128.326222 292.174019 124.38 292.174019 
C 120.433778 292.174019 116.648652 290.646629 113.858251 287.928239 
C 111.067851 285.209849 109.5 281.522403 109.5 277.678019 
C 109.5 273.833635 111.067851 270.146189 113.858251 267.427799 
C 116.648652 264.709409 120.433778 263.182019 124.38 263.182019 
z
" style="fill:#1abc9c;stroke:#16a085;stroke-linejoin:miter;stroke-width:2;"/>
   </g>
   <g id="patch_12">
    <path d="M 533.58 263.182019 
C 537.526222 263.182019 541.311348 264.709409 544.101749 267.427799 
C 546.892149 270.146189 548.46 273.833635 548.46 277.678019 
C 548.46 281.522403 546.892149 285.209849 544.101749 287.928239 
C 541.311348 290.646629 537.526222 292.174019 533.58 292.174019 
C 529.633778 292.174019 525.848652 290.646629 523.058251 287.928239 
C 520.267851 285.209849 518.7 281.522403 518.7 277.678019 
C 518.7 273.833635 520.267851 270.146189 523.058251 267.427799 
C 525.848652 264.709409 529.633778 263.182019 533.58 263.182019 
z
" style="fill:#e74c3c;stroke:#c0392b;stroke-linejoin:miter;stroke-width:2;"/>
   </g>
   <g id="text_14">
    <!--  -->
    <defs>
     <path d="M 17.859375 42.859375 
L 46.421875 42.859375 
L 46.421875 53.578125 
Q 46.421875 59.484375 42.234375 63.671875 
Q 38.0625 67.859375 32.140625 67.859375 
Q 26.234375 67.859375 22.046875 63.671875 
Q 17.859375 59.484375 17.859375 53.578125 
z
M 64.28125 37.5 
L 64.28125 5.359375 
Q 64.28125 3.125 62.71875 1.5625 
Q 61.15625 0 58.921875 0 
L 5.359375 0 
Q 3.125 0 1.5625 1.5625 
Q 0 3.125 0 5.359375 
L 0 37.5 
Q 0 39.734375 1.5625 41.296875 
Q 3.125 42.859375 5.359375 42.859375 
L 7.140625 42.859375 
L 7.140625 53.578125 
Q 7.140625 63.84375 14.5 71.203125 
Q 21.875 78.578125 32.140625 78.578125 
Q 42.40625 78.578125 49.765625 71.203125 
Q 57.140625 63.84375 57.140625 53.578125 
L 57.140625 42.859375 
L 58.921875 42.859375 
Q 61.15625 42.859375 62.71875 41.296875 
Q 64.28125 39.734375 64.28125 37.5 
z
" id="FontAwesome-61475"/>
    </defs>
    <g style="fill:#ffffff;" transform="translate(16.294688 285.392706)scale(0.18 -0.18)">
     <use xlink:href="#FontAwesome-61475"/>
    </g>
   </g>
   <g id="text_15">
    <!--  -->
    <defs>
     <path d="M 92.859375 53.578125 
L 92.859375 39.28125 
Q 92.859375 37.828125 91.796875 36.765625 
Q 90.734375 35.71875 89.28125 35.71875 
L 85.71875 35.71875 
Q 84.265625 35.71875 83.203125 36.765625 
Q 82.140625 37.828125 82.140625 39.28125 
L 82.140625 53.578125 
Q 82.140625 59.484375 77.953125 63.671875 
Q 73.765625 67.859375 67.84375 67.859375 
Q 61.9375 67.859375 57.75 63.671875 
Q 53.578125 59.484375 53.578125 53.578125 
L 53.578125 42.859375 
L 58.921875 42.859375 
Q 61.15625 42.859375 62.71875 41.296875 
Q 64.28125 39.734375 64.28125 37.5 
L 64.28125 5.359375 
Q 64.28125 3.125 62.71875 1.5625 
Q 61.15625 0 58.921875 0 
L 5.359375 0 
Q 3.125 0 1.5625 1.5625 
Q 0 3.125 0 5.359375 
L 0 37.5 
Q 0 39.734375 1.5625 41.296875 
Q 3.125 42.859375 5.359375 42.859375 
L 42.859375 42.859375 
L 42.859375 53.578125 
Q 42.859375 63.890625 50.1875 71.234375 
Q 57.53125 78.578125 67.859375 78.578125 
Q 78.1875 78.578125 85.515625 71.234375 
Q 92.859375 63.890625 92.859375 53.578125 
z
" id="FontAwesome-61596"/>
    </defs>
    <g style="fill:#ffffff;" transform="translate(116.841056 285.392706)scale(0.18 -0.18)">
     <use xlink:href="#FontAwesome-61596"/>
    </g>
   </g>
   <g id="text_16">
    <!--  -->
    <g style="fill:#ffffff;" transform="translate(527.794688 285.392706)scale(0.18 -0.18)">
     <use xlink:href="#FontAwesome-61475"/>
    </g>
   </g>
   <g id="text_17">
    <!--  -->
    <defs>
     <path d="M 78.578125 78.578125 
Q 78.578125 64 72.625 52.8125 
Q 66.6875 41.625 57.75 35.71875 
Q 66.6875 29.796875 72.625 18.609375 
Q 78.578125 7.421875 78.578125 -7.140625 
L 83.921875 -7.140625 
Q 84.703125 -7.140625 85.203125 -7.640625 
Q 85.71875 -8.140625 85.71875 -8.921875 
L 85.71875 -12.5 
Q 85.71875 -13.28125 85.203125 -13.78125 
Q 84.703125 -14.28125 83.921875 -14.28125 
L 1.78125 -14.28125 
Q 1 -14.28125 0.5 -13.78125 
Q 0 -13.28125 0 -12.5 
L 0 -8.921875 
Q 0 -8.140625 0.5 -7.640625 
Q 1 -7.140625 1.78125 -7.140625 
L 7.140625 -7.140625 
Q 7.140625 7.421875 13.078125 18.609375 
Q 19.03125 29.796875 27.953125 35.71875 
Q 19.03125 41.625 13.078125 52.8125 
Q 7.140625 64 7.140625 78.578125 
L 1.78125 78.578125 
Q 1 78.578125 0.5 79.078125 
Q 0 79.578125 0 80.359375 
L 0 83.921875 
Q 0 84.703125 0.5 85.203125 
Q 1 85.71875 1.78125 85.71875 
L 83.921875 85.71875 
Q 84.703125 85.71875 85.203125 85.203125 
Q 85.71875 84.703125 85.71875 83.921875 
L 85.71875 80.359375 
Q 85.71875 79.578125 85.203125 79.078125 
Q 84.703125 78.578125 83.921875 78.578125 
z
M 71.421875 78.578125 
L 14.28125 78.578125 
Q 14.28125 74.890625 14.78125 71.421875 
L 70.921875 71.421875 
Q 71.421875 74.828125 71.421875 78.578125 
z
M 71.421875 -7.140625 
Q 71.421875 0.109375 69.53125 6.78125 
Q 67.640625 13.453125 64.484375 18.390625 
Q 61.328125 23.328125 57.421875 26.859375 
Q 53.515625 30.40625 49.28125 32.140625 
L 36.4375 32.140625 
Q 32.203125 30.40625 28.296875 26.859375 
Q 24.390625 23.328125 21.234375 18.390625 
Q 18.078125 13.453125 16.171875 6.78125 
Q 14.28125 0.109375 14.28125 -7.140625 
z
" id="FontAwesome-62033"/>
    </defs>
    <g style="fill:#ffffff;" transform="translate(135.770687 123.222644)scale(0.14 -0.14)">
     <use xlink:href="#FontAwesome-62033"/>
    </g>
   </g>
   <g id="text_18">
    <!--  -->
    <g style="fill:#ffffff;" transform="translate(340.370687 195.702644)scale(0.14 -0.14)">
     <use xlink:href="#FontAwesome-62033"/>
    </g>
   </g>
  </g>
 </g>
 <defs>
  <clipPath id="p76a85a4238">
   <rect height="217.44" width="613.8" x="22.08" y="60.238019"/>
  </clipPath>
 </defs>
 <defs>
  <pattern height="72" id="h4220169bae" patternUnits="userSpaceOnUse" width="72" x="0" y="0">
   <rect fill="none" height="73" width="73" x="0" y="0"/>
   <path d="M -36 36 
L 36 108 
M -24 24 
L 48 96 
M -12 12 
L 60 84 
M 0 0 
L 72 72 
M 12 -12 
L 84 60 
M 24 -24 
L 96 48 
M 36 -36 
L 108 36 
" style="fill:#b0c4de;stroke:#b0c4de;stroke-linecap:butt;stroke-linejoin:miter;stroke-width:9.0;"/>
  </pattern>
 </defs>
</svg>
