<?xml version="1.0" encoding="UTF-8" standalone="no"?>
<svg
   xmlns:dc="http://purl.org/dc/elements/1.1/"
   xmlns:cc="http://creativecommons.org/ns#"
   xmlns:rdf="http://www.w3.org/1999/02/22-rdf-syntax-ns#"
   xmlns:svg="http://www.w3.org/2000/svg"
   xmlns="http://www.w3.org/2000/svg"
   width="38"
   height="38"
   viewBox="0 0 10.054166 10.054167"
   version="1.1"
   id="svg8">
  <defs
     id="defs2" />
  <metadata
     id="metadata5">
    <rdf:RDF>
      <cc:Work
         rdf:about="">
        <dc:format>image/svg+xml</dc:format>
        <dc:type
           rdf:resource="http://purl.org/dc/dcmitype/StillImage" />
        <dc:title></dc:title>
      </cc:Work>
    </rdf:RDF>
  </metadata>
  <g
     id="layer1">
    <g
       id="g876"
       transform="matrix(0.47426654,0,0,0.47426654,-29.357052,-58.420579)">
      <path
         style="fill:#000000;stroke-width:0.264583"
         d="m 77.393912,139.03113 c -1.74625,-0.0408 -3.442891,-0.13652 -3.770313,-0.21273 -0.77139,-0.17955 -0.815163,-1.31512 -0.06615,-1.71599 0.479251,-0.25648 0.529167,-0.55399 0.529167,-3.15387 0,-2.78841 -0.01942,-2.88341 -0.677669,-3.31471 -0.966281,-0.63313 -0.777084,-1.51114 0.413085,-1.917 1.181086,-0.40277 3.383181,-0.43004 4.458435,-0.0552 0.987588,0.34428 1.158218,1.36907 0.304066,1.8262 -0.47724,0.25541 -0.529167,0.55399 -0.529167,3.04271 0,2.36004 0.06703,2.79434 0.463021,3.00016 0.663818,0.34501 1.437244,-0.0172 1.936938,-0.90722 0.273363,-0.48687 0.637301,-0.76273 0.989715,-0.75018 1.560885,0.0618 1.037903,1.76888 0.905704,2.70453 -0.197758,0.59327 -1.168666,1.63956 -1.470319,1.58447 -0.171339,-0.0313 -1.740275,-0.0902 -3.486525,-0.13104 z m 4.199828,-3.32923 c -0.09119,-0.0912 -0.422441,0.21639 -0.736116,0.6835 -0.446865,0.66546 -0.787246,0.86732 -1.572459,0.93253 -1.639973,0.13618 -1.758962,-0.12133 -1.758962,-3.80664 0,-2.83051 0.06122,-3.29629 0.463021,-3.523 0.93848,-0.52952 -0.04483,-0.88897 -2.142162,-0.78306 -1.806898,0.0912 -2.832107,0.40568 -2.157317,0.66167 0.911521,0.34578 0.995757,0.618 1.129571,3.65029 0.126304,2.8621 -0.386954,2.97293 -0.431988,3.85753 l -0.568299,0.76867 2.978066,0.0844 c 1.637937,0.0464 3.239206,0.10987 3.558376,0.14097 0.850699,-0.0319 1.89012,-1.75854 1.238269,-2.66686 z m -9.459084,-1.89589 c -0.291885,0.76064 -1.83789,1.44226 -3.27356,1.44328 -1.280515,8e-4 -1.389063,0.0495 -1.389063,0.62144 0,0.34125 0.238125,0.83596 0.529167,1.09935 0.670525,0.60681 0.678152,1.35685 0.01739,1.71048 -0.281475,0.15064 -1.360865,0.27389 -2.398644,0.27389 -1.03778,0 -2.117169,-0.12325 -2.398644,-0.27389 -0.660758,-0.35363 -0.653131,-1.10367 0.01739,-1.71048 0.464059,-0.41997 0.529166,-0.81491 0.529166,-3.20991 0,-2.62112 -0.02662,-2.74846 -0.661458,-3.16443 -0.717317,-0.47 -0.861029,-1.20045 -0.32389,-1.64624 0.188329,-0.1563 1.855188,-0.31172 3.770313,-0.35155 2.839916,-0.0591 3.580816,0.008 4.290148,0.38556 1.036509,0.55241 1.651957,1.43269 1.730244,2.47479 -0.0031,1.34853 -0.169002,1.78519 -0.438559,2.34771 z m -4.493421,4.27373 c 0.09918,-0.0992 -0.01737,-0.3988 -0.259015,-0.66581 -0.261602,-0.28907 -0.439351,-0.93198 -0.439351,-1.58913 v -1.10364 h 1.216785 c 2.409682,0 4.042224,-1.4589 3.696248,-3.30311 -0.345825,-1.84341 -1.646275,-2.32766 -5.613896,-2.09046 -2.849902,0.17039 -3.651789,0.39977 -2.474137,0.70773 0.496504,0.12984 0.529167,0.36089 0.529167,3.74333 0,2.96032 -0.07097,3.63218 -0.396875,3.75724 -0.53384,0.20486 -0.50165,0.55558 0.06615,0.72069 0.629428,0.18302 3.45083,0.0473 3.674928,-0.17684 z m -0.381353,-4.37891 c -0.239198,-0.15172 -0.320043,-0.73662 -0.264583,-1.91418 0.07519,-1.59655 0.119347,-1.7003 0.755125,-1.77437 1.532861,-0.17858 2.336102,2.39331 1.068134,3.42005 -0.667455,0.54047 -1.031123,0.60312 -1.558676,0.2685 z m 1.217571,-0.88467 c 0.655168,-0.65517 0.203699,-2.06375 -0.661459,-2.06375 -0.231265,0 -0.343958,0.39009 -0.343958,1.19062 0,1.22105 0.351898,1.52665 1.005417,0.87313 z"
         id="path849" />
    </g>
  </g>
</svg>
