<svg version="1.1" viewBox="0.0 0.0 353.92913385826773 346.2729658792651" fill="none" stroke="none" stroke-linecap="square" stroke-miterlimit="10" xmlns:xlink="http://www.w3.org/1999/xlink" xmlns="http://www.w3.org/2000/svg"><clipPath id="p.0"><path d="m0 0l353.92914 0l0 346.27298l-353.92914 0l0 -346.27298z" clip-rule="nonzero"/></clipPath><g clip-path="url(#p.0)"><path fill="#000000" fill-opacity="0.0" d="m0 0l353.92914 0l0 346.27298l-353.92914 0z" fill-rule="evenodd"/><path fill="#cfe2f3" d="m4.2440944 65.980316l0 0c0 -33.954643 27.525675 -61.480316 61.480316 -61.480316l0 0c16.305595 0 31.943352 6.477372 43.473145 18.007168c11.5298 11.529797 18.007172 27.167553 18.007172 43.47315l0 0c0 33.954636 -27.52568 61.480316 -61.480316 61.480316l0 0c-33.954643 0 -61.480316 -27.52568 -61.480316 -61.480316z" fill-rule="evenodd"/><path stroke="#000000" stroke-width="1.0" stroke-linejoin="round" stroke-linecap="butt" d="m4.2440944 65.980316l0 0c0 -33.954643 27.525675 -61.480316 61.480316 -61.480316l0 0c16.305595 0 31.943352 6.477372 43.473145 18.007168c11.5298 11.529797 18.007172 27.167553 18.007172 43.47315l0 0c0 33.954636 -27.52568 61.480316 -61.480316 61.480316l0 0c-33.954643 0 -61.480316 -27.52568 -61.480316 -61.480316z" fill-rule="evenodd"/><path fill="#000000" d="m43.33235 67.66594l0 -1.578125l5.65625 0l0 4.953125q-1.296875 1.046875 -2.6875 1.578125q-1.375 0.515625 -2.84375 0.515625q-1.96875 0 -3.578125 -0.84375q-1.609375 -0.84375 -2.421875 -2.4375q-0.8125 -1.59375 -0.8125 -3.5625q0 -1.953125 0.8125 -3.640625q0.8125 -1.6875 2.34375 -2.5q1.53125 -0.828125 3.515625 -0.828125q1.453125 0 2.625 0.46875q1.171875 0.46875 1.828125 1.3125q0.671875 0.828125 1.015625 2.171875l-1.59375 0.4375q-0.296875 -1.015625 -0.75 -1.59375q-0.4375 -0.59375 -1.265625 -0.9375q-0.828125 -0.34375 -1.84375 -0.34375q-1.203125 0 -2.09375 0.375q-0.890625 0.359375 -1.4375 0.96875q-0.53125 0.59375 -0.828125 1.3125q-0.515625 1.234375 -0.515625 2.6875q0 1.78125 0.609375 2.984375q0.625 1.203125 1.796875 1.796875q1.171875 0.578125 2.5 0.578125q1.140625 0 2.234375 -0.4375q1.09375 -0.453125 1.65625 -0.953125l0 -2.484375l-3.921875 0zm7.448929 0.390625q0 -2.6875 1.484375 -3.96875q1.25 -1.078125 3.046875 -1.078125q2.0 0 3.265625 1.3125q1.265625 1.296875 1.265625 3.609375q0 1.859375 -0.5625 2.9375q-0.5625 1.0625 -1.640625 1.65625q-1.0625 0.59375 -2.328125 0.59375q-2.03125 0 -3.28125 -1.296875q-1.25 -1.3125 -1.25 -3.765625zm1.6875 0q0 1.859375 0.796875 2.796875q0.8125 0.921875 2.046875 0.921875q1.21875 0 2.03125 -0.921875q0.8125 -0.9375 0.8125 -2.84375q0 -1.796875 -0.8125 -2.71875q-0.8125 -0.921875 -2.03125 -0.921875q-1.234375 0 -2.046875 0.921875q-0.796875 0.90625 -0.796875 2.765625zm8.688217 0q0 -2.6875 1.484375 -3.96875q1.25 -1.078125 3.046875 -1.078125q2.0 0 3.265625 1.3125q1.265625 1.296875 1.265625 3.609375q0 1.859375 -0.5625 2.9375q-0.5625 1.0625 -1.640625 1.65625q-1.0625 0.59375 -2.328125 0.59375q-2.03125 0 -3.28125 -1.296875q-1.25 -1.3125 -1.25 -3.765625zm1.6875 0q0 1.859375 0.796875 2.796875q0.8125 0.921875 2.046875 0.921875q1.21875 0 2.03125 -0.921875q0.8125 -0.9375 0.8125 -2.84375q0 -1.796875 -0.8125 -2.71875q-0.8125 -0.921875 -2.03125 -0.921875q-1.234375 0 -2.046875 0.921875q-0.796875 0.90625 -0.796875 2.765625zm8.985092 5.640625l1.59375 0.234375q0.109375 0.75 0.5625 1.078125q0.609375 0.453125 1.671875 0.453125q1.140625 0 1.75 -0.453125q0.625 -0.453125 0.84375 -1.265625q0.125 -0.5 0.109375 -2.109375q-1.0625 1.265625 -2.671875 1.265625q-2.0 0 -3.09375 -1.4375q-1.09375 -1.4375 -1.09375 -3.453125q0 -1.390625 0.5 -2.5625q0.515625 -1.171875 1.453125 -1.796875q0.953125 -0.640625 2.25 -0.640625q1.703125 0 2.8125 1.375l0 -1.15625l1.515625 0l0 8.359375q0 2.265625 -0.46875 3.203125q-0.453125 0.9375 -1.453125 1.484375q-0.984375 0.546875 -2.453125 0.546875q-1.71875 0 -2.796875 -0.78125q-1.0625 -0.765625 -1.03125 -2.34375zm1.359375 -5.8125q0 1.90625 0.75 2.78125q0.765625 0.875 1.90625 0.875q1.125 0 1.890625 -0.859375q0.765625 -0.875 0.765625 -2.734375q0 -1.78125 -0.796875 -2.671875q-0.78125 -0.90625 -1.890625 -0.90625q-1.09375 0 -1.859375 0.890625q-0.765625 0.875 -0.765625 2.625zm9.281967 5.015625l0 -13.359375l1.640625 0l0 13.359375l-1.640625 0zm10.816689 -3.109375l1.6875 0.203125q-0.40625 1.484375 -1.484375 2.3125q-1.078125 0.8125 -2.765625 0.8125q-2.125 0 -3.375 -1.296875q-1.2343674 -1.3125 -1.2343674 -3.671875q0 -2.453125 1.2499924 -3.796875q1.265625 -1.34375 3.265625 -1.34375q1.9375 0 3.15625 1.328125q1.234375 1.3125 1.234375 3.703125q0 0.15625 0 0.4375l-7.21875 0q0.09375 1.59375 0.90625 2.453125q0.8125 0.84375 2.015625 0.84375q0.90625 0 1.546875 -0.46875q0.640625 -0.484375 1.015625 -1.515625zm-5.390625 -2.65625l5.40625 0q-0.109375 -1.21875 -0.625 -1.828125q-0.78125 -0.953125 -2.03125 -0.953125q-1.125 0 -1.90625 0.765625q-0.765625 0.75 -0.84375 2.015625z" fill-rule="nonzero"/><path fill="#cfe2f3" d="m4.2440944 280.29266l0 0c0 -33.95465 27.525675 -61.48033 61.480316 -61.48033l0 0c16.305595 0 31.943352 6.477371 43.473145 18.007172c11.5298 11.5298 18.007172 27.167557 18.007172 43.47316l0 0c0 33.95462 -27.52568 61.480316 -61.480316 61.480316l0 0c-33.954643 0 -61.480316 -27.525696 -61.480316 -61.480316z" fill-rule="evenodd"/><path stroke="#000000" stroke-width="1.0" stroke-linejoin="round" stroke-linecap="butt" d="m4.2440944 280.29266l0 0c0 -33.95465 27.525675 -61.48033 61.480316 -61.48033l0 0c16.305595 0 31.943352 6.477371 43.473145 18.007172c11.5298 11.5298 18.007172 27.167557 18.007172 43.47316l0 0c0 33.95462 -27.52568 61.480316 -61.480316 61.480316l0 0c-33.954643 0 -61.480316 -27.525696 -61.480316 -61.480316z" fill-rule="evenodd"/><path fill="#000000" d="m34.74533 285.37265l0 -10.484375l7.078125 0l0 1.234375l-5.6875 0l0 3.25l4.921875 0l0 1.234375l-4.921875 0l0 4.765625l-1.390625 0zm13.671371 -0.9375q-0.71875 0.609375 -1.375 0.859375q-0.65625 0.25 -1.421875 0.25q-1.25 0 -1.921875 -0.609375q-0.671875 -0.609375 -0.671875 -1.5625q0 -0.5625 0.25 -1.015625q0.25 -0.46875 0.65625 -0.75q0.421875 -0.28125 0.9375 -0.421875q0.375 -0.09375 1.140625 -0.1875q1.5625 -0.1875 2.296875 -0.453125q0.015625 -0.265625 0.015625 -0.328125q0 -0.796875 -0.375 -1.109375q-0.484375 -0.4375 -1.453125 -0.4375q-0.921875 0 -1.359375 0.328125q-0.421875 0.3125 -0.625 1.109375l-1.265625 -0.171875q0.171875 -0.796875 0.5625 -1.296875q0.390625 -0.5 1.140625 -0.765625q0.75 -0.265625 1.71875 -0.265625q0.984375 0 1.59375 0.234375q0.609375 0.21875 0.890625 0.5625q0.28125 0.34375 0.40625 0.875q0.0625 0.328125 0.0625 1.1875l0 1.71875q0 1.796875 0.078125 2.28125q0.078125 0.46875 0.328125 0.90625l-1.34375 0q-0.203125 -0.40625 -0.265625 -0.9375zm-0.109375 -2.875q-0.703125 0.28125 -2.09375 0.484375q-0.796875 0.109375 -1.125 0.265625q-0.328125 0.140625 -0.515625 0.421875q-0.171875 0.265625 -0.171875 0.59375q0 0.515625 0.390625 0.859375q0.390625 0.34375 1.140625 0.34375q0.734375 0 1.3125 -0.3125q0.59375 -0.328125 0.859375 -0.890625q0.203125 -0.4375 0.203125 -1.296875l0 -0.46875zm8.260483 1.03125l1.265625 0.15625q-0.203125 1.3125 -1.0625 2.0625q-0.84375 0.734375 -2.09375 0.734375q-1.5625 0 -2.515625 -1.015625q-0.9375 -1.03125 -0.9375 -2.921875q0 -1.234375 0.40625 -2.15625q0.40625 -0.921875 1.234375 -1.375q0.84375 -0.46875 1.8125 -0.46875q1.25 0 2.03125 0.625q0.78125 0.625 1.015625 1.765625l-1.265625 0.203125q-0.171875 -0.765625 -0.625 -1.15625q-0.453125 -0.390625 -1.09375 -0.390625q-0.984375 0 -1.59375 0.703125q-0.609375 0.703125 -0.609375 2.203125q0 1.53125 0.578125 2.234375q0.59375 0.6875 1.546875 0.6875q0.75 0 1.265625 -0.453125q0.515625 -0.46875 0.640625 -1.4375zm7.578125 0.328125l1.328125 0.171875q-0.3125 1.171875 -1.171875 1.8125q-0.84375 0.640625 -2.171875 0.640625q-1.671875 0 -2.65625 -1.015625q-0.96875 -1.03125 -0.96875 -2.890625q0 -1.921875 0.984375 -2.96875q1.0 -1.0625 2.578125 -1.0625q1.515625 0 2.484375 1.03125q0.96875 1.03125 0.96875 2.921875q0 0.109375 -0.015625 0.34375l-5.65625 0q0.0625 1.25 0.703125 1.921875q0.640625 0.65625 1.59375 0.65625q0.703125 0 1.203125 -0.359375q0.5 -0.375 0.796875 -1.203125zm-4.234375 -2.078125l4.25 0q-0.09375 -0.953125 -0.484375 -1.4375q-0.625 -0.75 -1.609375 -0.75q-0.875 0 -1.484375 0.59375q-0.609375 0.59375 -0.671875 1.59375zm8.369858 4.53125l-1.203125 0l0 -10.484375l1.296875 0l0 3.734375q0.8125 -1.015625 2.078125 -1.015625q0.703125 0 1.328125 0.28125q0.625 0.28125 1.03125 0.796875q0.40625 0.5 0.625 1.234375q0.234375 0.71875 0.234375 1.53125q0 1.96875 -0.96875 3.03125q-0.953125 1.0625 -2.3125 1.0625q-1.34375 0 -2.109375 -1.125l0 0.953125zm-0.015625 -3.859375q0 1.375 0.375 1.984375q0.609375 0.984375 1.640625 0.984375q0.84375 0 1.453125 -0.734375q0.625 -0.734375 0.625 -2.1875q0 -1.484375 -0.59375 -2.1875q-0.59375 -0.71875 -1.421875 -0.71875q-0.84375 0 -1.46875 0.734375q-0.609375 0.734375 -0.609375 2.125zm6.494858 0.0625q0 -2.109375 1.171875 -3.125q0.984375 -0.84375 2.390625 -0.84375q1.578125 0 2.5625 1.03125q1.0 1.015625 1.0 2.828125q0 1.46875 -0.4375 2.3125q-0.4375 0.828125 -1.28125 1.296875q-0.84375 0.46875 -1.84375 0.46875q-1.59375 0 -2.578125 -1.015625q-0.984375 -1.03125 -0.984375 -2.953125zm1.328125 0q0 1.453125 0.625 2.1875q0.640625 0.71875 1.609375 0.71875q0.96875 0 1.59375 -0.71875q0.640625 -0.734375 0.640625 -2.234375q0 -1.40625 -0.640625 -2.125q-0.640625 -0.734375 -1.59375 -0.734375q-0.96875 0 -1.609375 0.71875q-0.625 0.71875 -0.625 2.1875zm6.822983 0q0 -2.109375 1.171875 -3.125q0.984375 -0.84375 2.3906174 -0.84375q1.578125 0 2.5625 1.03125q1.0 1.015625 1.0 2.828125q0 1.46875 -0.4375 2.3125q-0.4375 0.828125 -1.28125 1.296875q-0.84375 0.46875 -1.84375 0.46875q-1.5937424 0 -2.5781174 -1.015625q-0.984375 -1.03125 -0.984375 -2.953125zm1.328125 0q0 1.453125 0.625 2.1875q0.640625 0.71875 1.6093674 0.71875q0.96875 0 1.59375 -0.71875q0.640625 -0.734375 0.640625 -2.234375q0 -1.40625 -0.640625 -2.125q-0.640625 -0.734375 -1.59375 -0.734375q-0.9687424 0 -1.6093674 0.71875q-0.625 0.71875 -0.625 2.1875zm7.30735 3.796875l0 -10.484375l1.296875 0l0 5.96875l3.046875 -3.078125l1.671875 0l-2.90625 2.8125l3.1875 4.78125l-1.578125 0l-2.515625 -3.890625l-0.90625 0.875l0 3.015625l-1.296875 0z" fill-rule="nonzero"/><path fill="#cfe2f3" d="m226.72441 65.980316l0 0c0 -33.954643 27.52568 -61.480316 61.4803 -61.480316l0 0c16.305603 0 31.94336 6.477372 43.473175 18.007168c11.529785 11.529797 18.007141 27.167553 18.007141 43.47315l0 0c0 33.954636 -27.525665 61.480316 -61.480316 61.480316l0 0c-33.95462 0 -61.4803 -27.52568 -61.4803 -61.480316z" fill-rule="evenodd"/><path stroke="#000000" stroke-width="1.0" stroke-linejoin="round" stroke-linecap="butt" d="m226.72441 65.980316l0 0c0 -33.954643 27.52568 -61.480316 61.4803 -61.480316l0 0c16.305603 0 31.94336 6.477372 43.473175 18.007168c11.529785 11.529797 18.007141 27.167553 18.007141 43.47315l0 0c0 33.954636 -27.525665 61.480316 -61.480316 61.480316l0 0c-33.95462 0 -61.4803 -27.52568 -61.4803 -61.480316z" fill-rule="evenodd"/><path fill="#000000" d="m265.57907 72.900314l0 -11.78125l-4.40625 0l0 -1.578125l10.578125 0l0 1.578125l-4.40625 0l0 11.78125l-1.765625 0zm8.537903 0l-2.96875 -9.671875l1.703125 0l1.53125 5.578125l0.578125 2.078125q0.046875 -0.15625 0.5 -2.0l1.546875 -5.65625l1.6875 0l1.4375 5.609375l0.484375 1.84375l0.5625 -1.859375l1.65625 -5.59375l1.59375 0l-3.03125 9.671875l-1.703125 0l-1.53125 -5.796875l-0.375 -1.640625l-1.953125 7.4375l-1.71875 0zm11.691711 -11.46875l0 -1.890625l1.640625 0l0 1.890625l-1.640625 0zm0 11.46875l0 -9.671875l1.640625 0l0 9.671875l-1.640625 0zm7.722931 -1.46875l0.234375 1.453125q-0.6875 0.140625 -1.234375 0.140625q-0.890625 0 -1.390625 -0.28125q-0.484375 -0.28125 -0.6875 -0.734375q-0.203125 -0.46875 -0.203125 -1.9375l0 -5.578125l-1.203125 0l0 -1.265625l1.203125 0l0 -2.390625l1.625 -0.984375l0 3.375l1.65625 0l0 1.265625l-1.65625 0l0 5.671875q0 0.6875 0.078125 0.890625q0.09375 0.203125 0.28125 0.328125q0.203125 0.109375 0.578125 0.109375q0.265625 0 0.71875 -0.0625zm5.183319 0l0.234375 1.453125q-0.6875 0.140625 -1.234375 0.140625q-0.890625 0 -1.390625 -0.28125q-0.484375 -0.28125 -0.6875 -0.734375q-0.203125 -0.46875 -0.203125 -1.9375l0 -5.578125l-1.203125 0l0 -1.265625l1.203125 0l0 -2.390625l1.625 -0.984375l0 3.375l1.65625 0l0 1.265625l-1.65625 0l0 5.671875q0 0.6875 0.078125 0.890625q0.09375 0.203125 0.28125 0.328125q0.203125 0.109375 0.578125 0.109375q0.265625 0 0.71875 -0.0625zm8.230164 -1.640625l1.6875 0.203125q-0.40625 1.484375 -1.484375 2.3125q-1.078125 0.8125 -2.765625 0.8125q-2.125 0 -3.375 -1.296875q-1.234375 -1.3125 -1.234375 -3.671875q0 -2.453125 1.25 -3.796875q1.265625 -1.34375 3.265625 -1.34375q1.9375 0 3.15625 1.328125q1.234375 1.3125 1.234375 3.703125q0 0.15625 0 0.4375l-7.21875 0q0.09375 1.59375 0.90625 2.453125q0.8125 0.84375 2.015625 0.84375q0.90625 0 1.546875 -0.46875q0.640625 -0.484375 1.015625 -1.515625zm-5.390625 -2.65625l5.40625 0q-0.109375 -1.21875 -0.625 -1.828125q-0.78125 -0.953125 -2.03125 -0.953125q-1.125 0 -1.90625 0.765625q-0.765625 0.75 -0.84375 2.015625zm9.125732 5.765625l0 -9.671875l1.46875 0l0 1.46875q0.5625 -1.03125 1.03125 -1.359375q0.484375 -0.328125 1.0625 -0.328125q0.828125 0 1.6875 0.53125l-0.5625 1.515625q-0.609375 -0.359375 -1.203125 -0.359375q-0.546875 0 -0.96875 0.328125q-0.421875 0.328125 -0.609375 0.890625q-0.28125 0.875 -0.28125 1.921875l0 5.0625l-1.625 0z" fill-rule="nonzero"/><path fill="#cfe2f3" d="m226.72441 280.29266l0 0c0 -33.95465 27.52568 -61.48033 61.4803 -61.48033l0 0c16.305603 0 31.94336 6.477371 43.473175 18.007172c11.529785 11.5298 18.007141 27.167557 18.007141 43.47316l0 0c0 33.95462 -27.525665 61.480316 -61.480316 61.480316l0 0c-33.95462 0 -61.4803 -27.525696 -61.4803 -61.480316z" fill-rule="evenodd"/><path stroke="#000000" stroke-width="1.0" stroke-linejoin="round" stroke-linecap="butt" d="m226.72441 280.29266l0 0c0 -33.95465 27.52568 -61.48033 61.4803 -61.48033l0 0c16.305603 0 31.94336 6.477371 43.473175 18.007172c11.529785 11.5298 18.007141 27.167557 18.007141 43.47316l0 0c0 33.95462 -27.525665 61.480316 -61.480316 61.480316l0 0c-33.95462 0 -61.4803 -27.525696 -61.4803 -61.480316z" fill-rule="evenodd"/><path fill="#000000" d="m262.70935 287.21265l0 -13.359375l5.921875 0q1.78125 0 2.703125 0.359375q0.9375 0.359375 1.484375 1.28125q0.5625 0.90625 0.5625 2.015625q0 1.40625 -0.921875 2.390625q-0.921875 0.96875 -2.84375 1.234375q0.703125 0.34375 1.078125 0.671875q0.765625 0.703125 1.453125 1.765625l2.328125 3.640625l-2.21875 0l-1.765625 -2.78125q-0.78125 -1.203125 -1.28125 -1.828125q-0.5 -0.640625 -0.90625 -0.890625q-0.390625 -0.265625 -0.796875 -0.359375q-0.296875 -0.078125 -0.984375 -0.078125l-2.046875 0l0 5.9375l-1.765625 0zm1.765625 -7.453125l3.796875 0q1.21875 0 1.890625 -0.25q0.6875 -0.265625 1.046875 -0.8125q0.359375 -0.546875 0.359375 -1.1875q0 -0.953125 -0.6875 -1.5625q-0.6875 -0.609375 -2.1875 -0.609375l-4.21875 0l0 4.421875zm18.097961 4.34375l1.6875 0.203125q-0.40625 1.484375 -1.484375 2.3125q-1.078125 0.8125 -2.765625 0.8125q-2.125 0 -3.375 -1.296875q-1.234375 -1.3125 -1.234375 -3.671875q0 -2.453125 1.25 -3.796875q1.265625 -1.34375 3.265625 -1.34375q1.9375 0 3.15625 1.328125q1.234375 1.3125 1.234375 3.703125q0 0.15625 0 0.4375l-7.21875 0q0.09375 1.59375 0.90625 2.453125q0.8125 0.84375 2.015625 0.84375q0.90625 0 1.546875 -0.46875q0.640625 -0.484375 1.015625 -1.515625zm-5.390625 -2.65625l5.40625 0q-0.109375 -1.21875 -0.625 -1.828125q-0.78125 -0.953125 -2.03125 -0.953125q-1.125 0 -1.90625 0.765625q-0.765625 0.75 -0.84375 2.015625zm15.406952 5.765625l0 -1.21875q-0.90625 1.4375 -2.703125 1.4375q-1.15625 0 -2.125 -0.640625q-0.96875 -0.640625 -1.5 -1.78125q-0.53125 -1.140625 -0.53125 -2.625q0 -1.453125 0.484375 -2.625q0.484375 -1.1875 1.4375 -1.8125q0.96875 -0.625 2.171875 -0.625q0.875 0 1.546875 0.375q0.6875 0.359375 1.109375 0.953125l0 -4.796875l1.640625 0l0 13.359375l-1.53125 0zm-5.171875 -4.828125q0 1.859375 0.78125 2.78125q0.78125 0.921875 1.84375 0.921875q1.078125 0 1.828125 -0.875q0.75 -0.890625 0.75 -2.6875q0 -1.984375 -0.765625 -2.90625q-0.765625 -0.9375 -1.890625 -0.9375q-1.078125 0 -1.8125 0.890625q-0.734375 0.890625 -0.734375 2.8125zm15.547607 4.828125l0 -1.21875q-0.90625 1.4375 -2.703125 1.4375q-1.15625 0 -2.125 -0.640625q-0.96875 -0.640625 -1.5 -1.78125q-0.53125 -1.140625 -0.53125 -2.625q0 -1.453125 0.484375 -2.625q0.484375 -1.1875 1.4375 -1.8125q0.96875 -0.625 2.171875 -0.625q0.875 0 1.546875 0.375q0.6875 0.359375 1.109375 0.953125l0 -4.796875l1.640625 0l0 13.359375l-1.53125 0zm-5.171875 -4.828125q0 1.859375 0.78125 2.78125q0.78125 0.921875 1.84375 0.921875q1.078125 0 1.828125 -0.875q0.75 -0.890625 0.75 -2.6875q0 -1.984375 -0.765625 -2.90625q-0.765625 -0.9375 -1.890625 -0.9375q-1.078125 0 -1.8125 0.890625q-0.734375 0.890625 -0.734375 2.8125zm9.281952 -6.640625l0 -1.890625l1.640625 0l0 1.890625l-1.640625 0zm0 11.46875l0 -9.671875l1.640625 0l0 9.671875l-1.640625 0zm7.7229614 -1.46875l0.234375 1.453125q-0.6875 0.140625 -1.234375 0.140625q-0.890625 0 -1.390625 -0.28125q-0.484375 -0.28125 -0.6875 -0.734375q-0.203125 -0.46875 -0.203125 -1.9375l0 -5.578125l-1.203125 0l0 -1.265625l1.203125 0l0 -2.390625l1.625 -0.984375l0 3.375l1.65625 0l0 1.265625l-1.65625 0l0 5.671875q0 0.6875 0.078125 0.890625q0.09375 0.203125 0.28125 0.328125q0.203125 0.109375 0.578125 0.109375q0.265625 0 0.71875 -0.0625z" fill-rule="nonzero"/><path fill="#000000" fill-opacity="0.0" d="m109.197556 109.45346l135.52756 127.37009" fill-rule="evenodd"/><path stroke="#000000" stroke-width="1.0" stroke-linejoin="round" stroke-linecap="butt" d="m109.197556 109.45346l131.15536 123.26105" fill-rule="evenodd"/><path fill="#000000" stroke="#000000" stroke-width="1.0" stroke-linecap="butt" d="m239.22176 233.91812l4.4380646 1.9042511l-2.1757355 -4.3114777z" fill-rule="evenodd"/><path fill="#000000" fill-opacity="0.0" d="m127.19685 280.29266l99.52756 0" fill-rule="evenodd"/><path stroke="#000000" stroke-width="1.0" stroke-linejoin="round" stroke-linecap="butt" d="m127.19685 280.29266l93.52756 0" fill-rule="evenodd"/><path fill="#000000" stroke="#000000" stroke-width="1.0" stroke-linecap="butt" d="m220.72441 281.9444l4.538101 -1.6517334l-4.538101 -1.6517334z" fill-rule="evenodd"/><path fill="#000000" fill-opacity="0.0" d="m288.2047 218.81233l0 -91.33858" fill-rule="evenodd"/><path stroke="#000000" stroke-width="1.0" stroke-linejoin="round" stroke-linecap="butt" d="m288.2047 218.81233l0 -85.33858" fill-rule="evenodd"/><path fill="#000000" stroke="#000000" stroke-width="1.0" stroke-linecap="butt" d="m289.85645 133.47375l-1.6517334 -4.538101l-1.6517334 4.538101z" fill-rule="evenodd"/><path fill="#000000" fill-opacity="0.0" d="m127.20473 65.980316l99.52756 0" fill-rule="evenodd"/><path stroke="#000000" stroke-width="1.0" stroke-linejoin="round" stroke-linecap="butt" d="m127.20473 65.980316l93.52756 0" fill-rule="evenodd"/><path fill="#000000" stroke="#000000" stroke-width="1.0" stroke-linecap="butt" d="m220.73228 67.63205l4.538101 -1.6517334l-4.538101 -1.6517334z" fill-rule="evenodd"/><path fill="#000000" fill-opacity="0.0" d="m65.72441 127.46063l0 91.33858" fill-rule="evenodd"/><path stroke="#000000" stroke-width="1.0" stroke-linejoin="round" stroke-linecap="butt" d="m65.72441 127.46063l0 85.33858" fill-rule="evenodd"/><path fill="#000000" stroke="#000000" stroke-width="1.0" stroke-linecap="butt" d="m64.07268 212.79921l1.6517334 4.538101l1.6517334 -4.538101z" fill-rule="evenodd"/><path fill="#000000" fill-opacity="0.0" d="m244.73158 109.45346l-135.52756 127.37009" fill-rule="evenodd"/><path stroke="#000000" stroke-width="1.0" stroke-linejoin="round" stroke-linecap="butt" d="m244.73158 109.45346l-131.1554 123.26105" fill-rule="evenodd"/><path fill="#000000" stroke="#000000" stroke-width="1.0" stroke-linecap="butt" d="m112.44503 231.5109l-2.1757278 4.3114777l4.4380646 -1.9042511z" fill-rule="evenodd"/><path fill="#000000" fill-opacity="0.0" d="m148.34908 26.23491l61.133865 0l0 47.74803l-61.133865 0z" fill-rule="evenodd"/><path fill="#000000" d="m166.7397 51.576782l0 1.578125l-8.828125 0q-0.015625 -0.59375 0.1875 -1.140625q0.34375 -0.90625 1.078125 -1.78125q0.75 -0.875 2.15625 -2.015625q2.171875 -1.78125 2.9375 -2.828125q0.765625 -1.046875 0.765625 -1.96875q0 -0.984375 -0.703125 -1.640625q-0.6875 -0.671875 -1.8125 -0.671875q-1.1875 0 -1.90625 0.71875q-0.703125 0.703125 -0.703125 1.953125l-1.6875 -0.171875q0.171875 -1.890625 1.296875 -2.875q1.140625 -0.984375 3.03125 -0.984375q1.921875 0 3.046875 1.0625q1.125 1.0625 1.125 2.640625q0 0.796875 -0.328125 1.578125q-0.328125 0.78125 -1.09375 1.640625q-0.75 0.84375 -2.53125 2.34375q-1.46875 1.234375 -1.890625 1.6875q-0.421875 0.4375 -0.6875 0.875l6.546875 0zm1.7663422 -1.921875l1.71875 -0.140625q0.1875 1.25 0.875 1.890625q0.703125 0.625 1.6875 0.625q1.1875 0 2.0 -0.890625q0.828125 -0.890625 0.828125 -2.359375q0 -1.40625 -0.796875 -2.21875q-0.78125 -0.8125 -2.0625 -0.8125q-0.78125 0 -1.421875 0.359375q-0.640625 0.359375 -1.0 0.9375l-1.546875 -0.203125l1.296875 -6.859375l6.640625 0l0 1.5625l-5.328125 0l-0.71875 3.59375q1.203125 -0.84375 2.515625 -0.84375q1.75 0 2.953125 1.21875q1.203125 1.203125 1.203125 3.109375q0 1.8125 -1.046875 3.140625q-1.296875 1.625 -3.515625 1.625q-1.8125 0 -2.96875 -1.015625q-1.15625 -1.03125 -1.3125 -2.71875zm10.672592 -6.640625q0 -1.4375 0.71875 -2.4375q0.71875 -1.0 2.09375 -1.0q1.25 0 2.078125 0.90625q0.828125 0.890625 0.828125 2.625q0 1.6875 -0.84375 2.609375q-0.828125 0.921875 -2.046875 0.921875q-1.203125 0 -2.015625 -0.90625q-0.8125 -0.90625 -0.8125 -2.71875zm2.859375 -2.3125q-0.609375 0 -1.015625 0.53125q-0.40625 0.53125 -0.40625 1.9375q0 1.28125 0.40625 1.8125q0.40625 0.515625 1.015625 0.515625q0.625 0 1.015625 -0.515625q0.40625 -0.53125 0.40625 -1.9375q0 -1.296875 -0.40625 -1.8125q-0.40625 -0.53125 -1.015625 -0.53125zm0 12.9375l7.3125 -14.0625l1.328125 0l-7.28125 14.0625l-1.359375 0zm5.78125 -3.625q0 -1.4375 0.71875 -2.421875q0.71875 -1.0 2.09375 -1.0q1.265625 0 2.078125 0.90625q0.828125 0.890625 0.828125 2.625q0 1.6875 -0.828125 2.609375q-0.828125 0.90625 -2.0625 0.90625q-1.21875 0 -2.03125 -0.90625q-0.796875 -0.90625 -0.796875 -2.71875zm2.859375 -2.296875q-0.625 0 -1.03125 0.53125q-0.390625 0.53125 -0.390625 1.9375q0 1.28125 0.40625 1.8125q0.40625 0.515625 1.015625 0.515625q0.625 0 1.03125 -0.515625q0.40625 -0.53125 0.40625 -1.9375q0 -1.296875 -0.421875 -1.8125q-0.40625 -0.53125 -1.015625 -0.53125z" fill-rule="nonzero"/><path fill="#000000" fill-opacity="0.0" d="m13.666667 149.26115l61.133854 0l0 47.74803l-61.133854 0z" fill-rule="evenodd"/><path fill="#000000" d="m23.447916 172.68115l1.71875 -0.140625q0.1875 1.25 0.875 1.890625q0.703125 0.625 1.6875 0.625q1.1875 0 2.0 -0.890625q0.828125 -0.890625 0.828125 -2.359375q0 -1.40625 -0.796875 -2.21875q-0.78125 -0.8125 -2.0625 -0.8125q-0.78125 0 -1.421875 0.359375q-0.640625 0.359375 -1.0 0.9375l-1.546875 -0.203125l1.296875 -6.859375l6.640625 0l0 1.5625l-5.328125 0l-0.71875 3.59375q1.203125 -0.84375 2.515625 -0.84375q1.75 0 2.953125 1.21875q1.2031269 1.203125 1.2031269 3.109375q0 1.8125 -1.0468769 3.140625q-1.296875 1.625 -3.515625 1.625q-1.8125 0 -2.96875 -1.015625q-1.15625 -1.03125 -1.3125 -2.71875zm10.375719 -3.09375q0 -2.359375 0.484375 -3.796875q0.484375 -1.453125 1.4375 -2.234375q0.96875 -0.78125 2.421875 -0.78125q1.078125 0 1.890625 0.4375q0.8125 0.421875 1.328125 1.25q0.53125 0.8125 0.828125 1.984375q0.3125 1.15625 0.3125 3.140625q0 2.359375 -0.484375 3.8125q-0.484375 1.4375 -1.453125 2.234375q-0.953125 0.78125 -2.421875 0.78125q-1.921875 0 -3.03125 -1.390625q-1.3125 -1.671875 -1.3125 -5.4375zm1.671875 0q0 3.296875 0.765625 4.390625q0.78125 1.078125 1.90625 1.078125q1.140625 0 1.90625 -1.09375q0.765625 -1.09375 0.765625 -4.375q0 -3.296875 -0.765625 -4.375q-0.765625 -1.078125 -1.921875 -1.078125q-1.125 0 -1.796875 0.953125q-0.859375 1.21875 -0.859375 4.5zm9.000717 -3.546875q0 -1.4375 0.71875 -2.4375q0.71875 -1.0 2.09375 -1.0q1.25 0 2.078125 0.90625q0.828125 0.890625 0.828125 2.625q0 1.6875 -0.84375 2.609375q-0.828125 0.921875 -2.046875 0.921875q-1.203125 0 -2.015625 -0.90625q-0.8125 -0.90625 -0.8125 -2.71875zm2.859375 -2.3125q-0.609375 0 -1.015625 0.53125q-0.40625 0.53125 -0.40625 1.9375q0 1.28125 0.40625 1.8125q0.40625 0.515625 1.015625 0.515625q0.625 0 1.015625 -0.515625q0.40625 -0.53125 0.40625 -1.9375q0 -1.296875 -0.40625 -1.8125q-0.40625 -0.53125 -1.015625 -0.53125zm0 12.9375l7.3125 -14.0625l1.328125 0l-7.28125 14.0625l-1.359375 0zm5.78125 -3.625q0 -1.4375 0.71875 -2.421875q0.71875 -1.0 2.09375 -1.0q1.265625 0 2.078125 0.90625q0.828125 0.890625 0.828125 2.625q0 1.6875 -0.828125 2.609375q-0.828125 0.90625 -2.0625 0.90625q-1.21875 0 -2.03125 -0.90625q-0.796875 -0.90625 -0.796875 -2.71875zm2.859375 -2.296875q-0.625 0 -1.03125 0.53125q-0.390625 0.53125 -0.390625 1.9375q0 1.28125 0.40625 1.8125q0.40625 0.515625 1.015625 0.515625q0.625 0 1.03125 -0.515625q0.40625 -0.53125 0.40625 -1.9375q0 -1.296875 -0.421875 -1.8125q-0.40625 -0.53125 -1.015625 -0.53125z" fill-rule="nonzero"/><path fill="#000000" fill-opacity="0.0" d="m82.86877 118.520996l61.133858 0l0 47.74803l-61.133858 0z" fill-rule="evenodd"/><path fill="#000000" d="m101.25939 143.86287l0 1.578125l-8.828125 0q-0.015625 -0.59375 0.1875 -1.140625q0.34375 -0.90625 1.078125 -1.78125q0.75 -0.875 2.15625 -2.015625q2.171875 -1.78125 2.9375 -2.828125q0.765625 -1.046875 0.765625 -1.96875q0 -0.984375 -0.703125 -1.640625q-0.6875 -0.671875 -1.8125 -0.671875q-1.1875 0 -1.90625 0.71875q-0.703125 0.703125 -0.703125 1.953125l-1.6875 -0.171875q0.171875 -1.890625 1.296875 -2.875q1.140625 -0.984375 3.03125 -0.984375q1.921875 0 3.046875 1.0625q1.125 1.0625 1.125 2.640625q0 0.796875 -0.328125 1.578125q-0.328125 0.78125 -1.09375 1.640625q-0.75 0.84375 -2.53125 2.34375q-1.46875 1.234375 -1.890625 1.6875q-0.421875 0.4375 -0.6875 0.875l6.546875 0zm1.7663422 -1.921875l1.71875 -0.140625q0.1875 1.25 0.875 1.890625q0.703125 0.625 1.6875 0.625q1.1875 0 2.0 -0.890625q0.828125 -0.890625 0.828125 -2.359375q0 -1.40625 -0.796875 -2.21875q-0.78125 -0.8125 -2.0625 -0.8125q-0.78125 0 -1.421875 0.359375q-0.640625 0.359375 -1.0 0.9375l-1.546875 -0.203125l1.296875 -6.859375l6.640625 0l0 1.5625l-5.328125 0l-0.71875 3.59375q1.203125 -0.84375 2.515625 -0.84375q1.75 0 2.953125 1.21875q1.203125 1.203125 1.203125 3.109375q0 1.8125 -1.046875 3.140625q-1.296875 1.625 -3.515625 1.625q-1.8125 0 -2.96875 -1.015625q-1.15625 -1.03125 -1.3125 -2.71875zm10.672592 -6.640625q0 -1.4375 0.71875 -2.4375q0.71875 -1.0 2.09375 -1.0q1.25 0 2.078125 0.90625q0.828125 0.890625 0.828125 2.625q0 1.6875 -0.84375 2.609375q-0.828125 0.921875 -2.046875 0.921875q-1.203125 0 -2.015625 -0.90625q-0.8125 -0.90625 -0.8125 -2.71875zm2.859375 -2.3125q-0.609375 0 -1.015625 0.53125q-0.40625 0.53125 -0.40625 1.9375q0 1.28125 0.40625 1.8125q0.40625 0.515625 1.015625 0.515625q0.625 0 1.015625 -0.515625q0.40625 -0.53125 0.40625 -1.9375q0 -1.296875 -0.40625 -1.8125q-0.40625 -0.53125 -1.015625 -0.53125zm0 12.9375l7.3125 -14.0625l1.328125 0l-7.28125 14.0625l-1.359375 0zm5.78125 -3.625q0 -1.4375 0.71875 -2.421875q0.71875 -1.0 2.09375 -1.0q1.265625 0 2.078125 0.90625q0.8281174 0.890625 0.8281174 2.625q0 1.6875 -0.8281174 2.609375q-0.828125 0.90625 -2.0625 0.90625q-1.21875 0 -2.03125 -0.90625q-0.796875 -0.90625 -0.796875 -2.71875zm2.859375 -2.296875q-0.625 0 -1.03125 0.53125q-0.390625 0.53125 -0.390625 1.9375q0 1.28125 0.40625 1.8125q0.40625 0.515625 1.015625 0.515625q0.625 0 1.03125 -0.515625q0.40625 -0.53125 0.40625 -1.9375q0 -1.296875 -0.421875 -1.8125q-0.40625 -0.53125 -1.015625 -0.53125z" fill-rule="nonzero"/><path fill="#000000" fill-opacity="0.0" d="m213.82939 118.52231l76.72441 0l0 47.74803l-76.72441 0z" fill-rule="evenodd"/><path fill="#000000" d="m229.78252 145.4423l-1.640625 0l0 -10.453125q-0.59375 0.5625 -1.5625 1.140625q-0.953125 0.5625 -1.71875 0.84375l0 -1.59375q1.375 -0.640625 2.40625 -1.5625q1.03125 -0.921875 1.453125 -1.78125l1.0625 0l0 13.40625zm4.203842 -6.59375q0 -2.359375 0.484375 -3.796875q0.484375 -1.453125 1.4375 -2.234375q0.96875 -0.78125 2.421875 -0.78125q1.078125 0 1.890625 0.4375q0.8125 0.421875 1.328125 1.25q0.53125 0.8125 0.828125 1.984375q0.3125 1.15625 0.3125 3.140625q0 2.359375 -0.484375 3.8125q-0.484375 1.4375 -1.453125 2.234375q-0.953125 0.78125 -2.421875 0.78125q-1.921875 0 -3.03125 -1.390625q-1.3125 -1.671875 -1.3125 -5.4375zm1.671875 0q0 3.296875 0.765625 4.390625q0.78125 1.078125 1.90625 1.078125q1.140625 0 1.90625 -1.09375q0.765625 -1.09375 0.765625 -4.375q0 -3.296875 -0.765625 -4.375q-0.765625 -1.078125 -1.921875 -1.078125q-1.125 0 -1.796875 0.953125q-0.859375 1.21875 -0.859375 4.5zm8.703842 0q0 -2.359375 0.484375 -3.796875q0.484375 -1.453125 1.4375 -2.234375q0.96875 -0.78125 2.421875 -0.78125q1.078125 0 1.890625 0.4375q0.8125 0.421875 1.328125 1.25q0.53125 0.8125 0.828125 1.984375q0.3125 1.15625 0.3125 3.140625q0 2.359375 -0.484375 3.8125q-0.484375 1.4375 -1.453125 2.234375q-0.953125 0.78125 -2.421875 0.78125q-1.921875 0 -3.03125 -1.390625q-1.3125 -1.671875 -1.3125 -5.4375zm1.671875 0q0 3.296875 0.765625 4.390625q0.78125 1.078125 1.90625 1.078125q1.140625 0 1.90625 -1.09375q0.765625 -1.09375 0.765625 -4.375q0 -3.296875 -0.765625 -4.375q-0.765625 -1.078125 -1.921875 -1.078125q-1.125 0 -1.796875 0.953125q-0.859375 1.21875 -0.859375 4.5zm9.000717 -3.546875q0 -1.4375 0.71875 -2.4375q0.71875 -1.0 2.09375 -1.0q1.25 0 2.078125 0.90625q0.828125 0.890625 0.828125 2.625q0 1.6875 -0.84375 2.609375q-0.828125 0.921875 -2.046875 0.921875q-1.203125 0 -2.015625 -0.90625q-0.8125 -0.90625 -0.8125 -2.71875zm2.859375 -2.3125q-0.609375 0 -1.015625 0.53125q-0.40625 0.53125 -0.40625 1.9375q0 1.28125 0.40625 1.8125q0.40625 0.515625 1.015625 0.515625q0.625 0 1.015625 -0.515625q0.40625 -0.53125 0.40625 -1.9375q0 -1.296875 -0.40625 -1.8125q-0.40625 -0.53125 -1.015625 -0.53125zm0 12.9375l7.3125 -14.0625l1.328125 0l-7.28125 14.0625l-1.359375 0zm5.78125 -3.625q0 -1.4375 0.71875 -2.421875q0.71875 -1.0 2.09375 -1.0q1.265625 0 2.078125 0.90625q0.828125 0.890625 0.828125 2.625q0 1.6875 -0.828125 2.609375q-0.828125 0.90625 -2.0625 0.90625q-1.21875 0 -2.03125 -0.90625q-0.796875 -0.90625 -0.796875 -2.71875zm2.859375 -2.296875q-0.625 0 -1.03125 0.53125q-0.390625 0.53125 -0.390625 1.9375q0 1.28125 0.40625 1.8125q0.40625 0.515625 1.015625 0.515625q0.625 0 1.03125 -0.515625q0.40625 -0.53125 0.40625 -1.9375q0 -1.296875 -0.421875 -1.8125q-0.40625 -0.53125 -1.015625 -0.53125z" fill-rule="nonzero"/><path fill="#000000" fill-opacity="0.0" d="m144.00262 244.36613l69.82677 0l0 47.74803l-69.82677 0z" fill-rule="evenodd"/><path fill="#000000" d="m159.95575 271.28613l-1.640625 0l0 -10.453125q-0.59375 0.5625 -1.5625 1.140625q-0.953125 0.5625 -1.71875 0.84375l0 -1.59375q1.375 -0.640625 2.40625 -1.5625q1.03125 -0.921875 1.453125 -1.78125l1.0625 0l0 13.40625zm4.203842 -6.59375q0 -2.359375 0.484375 -3.796875q0.484375 -1.453125 1.4375 -2.234375q0.96875 -0.78125 2.421875 -0.78125q1.078125 0 1.890625 0.4375q0.8125 0.421875 1.328125 1.25q0.53125 0.8125 0.828125 1.984375q0.3125 1.15625 0.3125 3.140625q0 2.359375 -0.484375 3.8125q-0.484375 1.4375 -1.453125 2.234375q-0.953125 0.78125 -2.421875 0.78125q-1.921875 0 -3.03125 -1.390625q-1.3125 -1.671875 -1.3125 -5.4375zm1.671875 0q0 3.296875 0.765625 4.390625q0.78125 1.078125 1.90625 1.078125q1.140625 0 1.90625 -1.09375q0.765625 -1.09375 0.765625 -4.375q0 -3.296875 -0.765625 -4.375q-0.765625 -1.078125 -1.921875 -1.078125q-1.125 0 -1.796875 0.953125q-0.859375 1.21875 -0.859375 4.5zm8.703842 0q0 -2.359375 0.484375 -3.796875q0.484375 -1.453125 1.4375 -2.234375q0.96875 -0.78125 2.421875 -0.78125q1.078125 0 1.890625 0.4375q0.8125 0.421875 1.328125 1.25q0.53125 0.8125 0.828125 1.984375q0.3125 1.15625 0.3125 3.140625q0 2.359375 -0.484375 3.8125q-0.484375 1.4375 -1.453125 2.234375q-0.953125 0.78125 -2.421875 0.78125q-1.921875 0 -3.03125 -1.390625q-1.3125 -1.671875 -1.3125 -5.4375zm1.671875 0q0 3.296875 0.765625 4.390625q0.78125 1.078125 1.90625 1.078125q1.140625 0 1.90625 -1.09375q0.765625 -1.09375 0.765625 -4.375q0 -3.296875 -0.765625 -4.375q-0.765625 -1.078125 -1.921875 -1.078125q-1.125 0 -1.796875 0.953125q-0.859375 1.21875 -0.859375 4.5zm9.000717 -3.546875q0 -1.4375 0.71875 -2.4375q0.71875 -1.0 2.09375 -1.0q1.25 0 2.078125 0.90625q0.828125 0.890625 0.828125 2.625q0 1.6875 -0.84375 2.609375q-0.828125 0.921875 -2.046875 0.921875q-1.203125 0 -2.015625 -0.90625q-0.8125 -0.90625 -0.8125 -2.71875zm2.859375 -2.3125q-0.609375 0 -1.015625 0.53125q-0.40625 0.53125 -0.40625 1.9375q0 1.28125 0.40625 1.8125q0.40625 0.515625 1.015625 0.515625q0.625 0 1.015625 -0.515625q0.40625 -0.53125 0.40625 -1.9375q0 -1.296875 -0.40625 -1.8125q-0.40625 -0.53125 -1.015625 -0.53125zm0 12.9375l7.3125 -14.0625l1.328125 0l-7.28125 14.0625l-1.359375 0zm5.78125 -3.625q0 -1.4375 0.71875 -2.421875q0.71875 -1.0 2.09375 -1.0q1.265625 0 2.078125 0.90625q0.828125 0.890625 0.828125 2.625q0 1.6875 -0.828125 2.609375q-0.828125 0.90625 -2.0625 0.90625q-1.21875 0 -2.03125 -0.90625q-0.796875 -0.90625 -0.796875 -2.71875zm2.859375 -2.296875q-0.625 0 -1.03125 0.53125q-0.390625 0.53125 -0.390625 1.9375q0 1.28125 0.40625 1.8125q0.40625 0.515625 1.015625 0.515625q0.625 0 1.03125 -0.515625q0.40625 -0.53125 0.40625 -1.9375q0 -1.296875 -0.421875 -1.8125q-0.40625 -0.53125 -1.015625 -0.53125z" fill-rule="nonzero"/></g></svg>