<svg version="1.1" viewBox="0.0 0.0 875.0 314.501312335958" fill="none" stroke="none" stroke-linecap="square" stroke-miterlimit="10" xmlns:xlink="http://www.w3.org/1999/xlink" xmlns="http://www.w3.org/2000/svg"><clipPath id="p.0"><path d="m0 0l875.0 0l0 314.5013l-875.0 0l0 -314.5013z" clip-rule="nonzero"/></clipPath><g clip-path="url(#p.0)"><path fill="#000000" fill-opacity="0.0" d="m0 0l875.0 0l0 314.5013l-875.0 0z" fill-rule="evenodd"/><path fill="#cfe2f3" d="m42.295277 157.24934l0 0c0 -33.954643 27.525677 -61.480316 61.480312 -61.480316l0 0c16.305595 0 31.94336 6.477371 43.473145 18.007172c11.5298 11.529793 18.007172 27.167557 18.007172 43.473145l0 0c0 33.954636 -27.52568 61.480316 -61.480316 61.480316l0 0c-33.954636 0 -61.480312 -27.52568 -61.480312 -61.480316z" fill-rule="evenodd"/><path stroke="#000000" stroke-width="1.0" stroke-linejoin="round" stroke-linecap="butt" d="m42.295277 157.24934l0 0c0 -33.954643 27.525677 -61.480316 61.480312 -61.480316l0 0c16.305595 0 31.94336 6.477371 43.473145 18.007172c11.5298 11.529793 18.007172 27.167557 18.007172 43.473145l0 0c0 33.954636 -27.52568 61.480316 -61.480316 61.480316l0 0c-33.954636 0 -61.480312 -27.52568 -61.480312 -61.480316z" fill-rule="evenodd"/><path fill="#000000" d="m98.0405 155.09122l0 -1.640625q-1.21875 -0.15625 -2.0 -0.546875q-0.765625 -0.40625 -1.328125 -1.28125q-0.5625 -0.890625 -0.640625 -2.15625l1.640625 -0.3125q0.1875 1.3125 0.671875 1.9375q0.703125 0.875 1.65625 0.96875l0 -5.21875q-1.0 -0.1875 -2.0625 -0.78125q-0.78125 -0.4375 -1.203125 -1.203125q-0.421875 -0.78125 -0.421875 -1.765625q0 -1.75 1.234375 -2.828125q0.828125 -0.734375 2.453125 -0.890625l0 -0.78125l0.96875 0l0 0.78125q1.4375 0.125 2.265625 0.828125q1.078125 0.90625 1.296875 2.453125l-1.6875 0.265625q-0.15625 -0.96875 -0.625 -1.484375q-0.453125 -0.515625 -1.25 -0.6875l0 4.734375q1.234375 0.3125 1.640625 0.484375q0.765625 0.328125 1.25 0.8125q0.484375 0.484375 0.734375 1.15625q0.265625 0.65625 0.265625 1.4375q0 1.703125 -1.09375 2.84375q-1.078125 1.140625 -2.796875 1.21875l0 1.65625l-0.96875 0zm0 -14.359375q-0.953125 0.15625 -1.5 0.78125q-0.546875 0.609375 -0.546875 1.453125q0 0.84375 0.46875 1.40625q0.46875 0.5625 1.578125 0.90625l0 -4.546875zm0.96875 11.328125q0.953125 -0.109375 1.578125 -0.8125q0.625 -0.71875 0.625 -1.765625q0 -0.890625 -0.4375 -1.4375q-0.4375 -0.546875 -1.765625 -0.96875l0 4.984375zm5.547592 -5.484375q0 -2.359375 0.484375 -3.796875q0.484375 -1.453125 1.4375 -2.234375q0.96875 -0.78125 2.421875 -0.78125q1.078125 0 1.890625 0.4375q0.8125 0.421875 1.328125 1.25q0.53125 0.8125 0.828125 1.984375q0.3125 1.15625 0.3125 3.140625q0 2.359375 -0.484375 3.8125q-0.484375 1.4375 -1.453125 2.234375q-0.953125 0.78125 -2.421875 0.78125q-1.921875 0 -3.03125 -1.390625q-1.3125 -1.671875 -1.3125 -5.4375zm1.671875 0q0 3.296875 0.765625 4.390625q0.78125 1.078125 1.90625 1.078125q1.140625 0 1.90625 -1.09375q0.765625 -1.09375 0.765625 -4.375q0 -3.296875 -0.765625 -4.375q-0.765625 -1.078125 -1.921875 -1.078125q-1.125 0 -1.796875 0.953125q-0.859375 1.21875 -0.859375 4.5z" fill-rule="nonzero"/><path fill="#000000" d="m81.69465 179.09122q-1.359375 -1.703125 -2.296875 -4.0q-0.9375 -2.296875 -0.9375 -4.765625q0 -2.15625 0.703125 -4.140625q0.828125 -2.3125 2.53125 -4.59375l1.171875 0q-1.09375 1.890625 -1.453125 2.703125q-0.546875 1.25 -0.875 2.625q-0.390625 1.703125 -0.390625 3.421875q0 4.375 2.71875 8.75l-1.171875 0zm3.212677 -3.921875l0 -13.359375l1.78125 0l0 11.78125l6.5625 0l0 1.578125l-8.34375 0zm9.641342 -4.84375q0 -2.6875 1.484375 -3.96875q1.25 -1.078125 3.046875 -1.078125q2.0 0 3.265625 1.3125q1.265625 1.296875 1.265625 3.609375q0 1.859375 -0.5625 2.9375q-0.5625 1.0625 -1.640625 1.65625q-1.0625 0.59375 -2.328125 0.59375q-2.03125 0 -3.28125 -1.296875q-1.25 -1.3125 -1.25 -3.765625zm1.6875 0q0 1.859375 0.796875 2.796875q0.8125 0.921875 2.046875 0.921875q1.21875 0 2.03125 -0.921875q0.8125 -0.9375 0.8125 -2.84375q0 -1.796875 -0.8125 -2.71875q-0.8125 -0.921875 -2.03125 -0.921875q-1.234375 0 -2.046875 0.921875q-0.796875 0.90625 -0.796875 2.765625zm8.641342 1.953125l1.625 -0.25q0.125 0.96875 0.75 1.5q0.625 0.515625 1.75 0.515625q1.125 0 1.671875 -0.453125q0.546875 -0.46875 0.546875 -1.09375q0 -0.546875 -0.484375 -0.875q-0.328125 -0.21875 -1.671875 -0.546875q-1.8125 -0.46875 -2.515625 -0.796875q-0.6875 -0.328125 -1.046875 -0.90625q-0.359375 -0.59375 -0.359375 -1.3125q0 -0.640625 0.296875 -1.1875q0.296875 -0.5625 0.8125 -0.921875q0.375 -0.28125 1.03125 -0.46875q0.671875 -0.203125 1.421875 -0.203125q1.140625 0 2.0 0.328125q0.859375 0.328125 1.265625 0.890625q0.421875 0.5625 0.578125 1.5l-1.609375 0.21875q-0.109375 -0.75 -0.640625 -1.171875q-0.515625 -0.421875 -1.46875 -0.421875q-1.140625 0 -1.625 0.375q-0.46875 0.375 -0.46875 0.875q0 0.3125 0.1875 0.578125q0.203125 0.265625 0.640625 0.4375q0.234375 0.09375 1.4375 0.421875q1.75 0.453125 2.4375 0.75q0.6875 0.296875 1.078125 0.859375q0.390625 0.5625 0.390625 1.40625q0 0.828125 -0.484375 1.546875q-0.46875 0.71875 -1.375 1.125q-0.90625 0.390625 -2.046875 0.390625q-1.875 0 -2.875 -0.78125q-0.984375 -0.78125 -1.25 -2.328125zm16.609375 -0.21875l1.6875 0.203125q-0.40625 1.484375 -1.484375 2.3125q-1.078125 0.8125 -2.765625 0.8125q-2.125 0 -3.375 -1.296875q-1.234375 -1.3125 -1.234375 -3.671875q0 -2.453125 1.25 -3.796875q1.265625 -1.34375 3.265625 -1.34375q1.9375 0 3.15625 1.328125q1.234375 1.3125 1.234375 3.703125q0 0.15625 0 0.4375l-7.21875 0q0.09375 1.59375 0.90625 2.453125q0.8125 0.84375 2.015625 0.84375q0.90625 0 1.546875 -0.46875q0.640625 -0.484375 1.015625 -1.515625zm-5.390625 -2.65625l5.40625 0q-0.109375 -1.21875 -0.625 -1.828125q-0.78125 -0.953125 -2.03125 -0.953125q-1.125 0 -1.90625 0.765625q-0.765625 0.75 -0.84375 2.015625zm10.219475 9.6875l-1.1875 0q2.734375 -4.375 2.734375 -8.75q0 -1.71875 -0.390625 -3.390625q-0.3125 -1.375 -0.875 -2.625q-0.359375 -0.828125 -1.46875 -2.734375l1.1875 0q1.703125 2.28125 2.53125 4.59375q0.6875 1.984375 0.6875 4.140625q0 2.46875 -0.9375 4.765625q-0.9375 2.296875 -2.28125 4.0z" fill-rule="nonzero"/><path fill="#cfe2f3" d="m264.7756 157.24934l0 0c0 -33.954643 27.525665 -61.480316 61.480316 -61.480316l0 0c16.305573 0 31.943329 6.477371 43.473145 18.007172c11.529785 11.529793 18.007141 27.167557 18.007141 43.473145l0 0c0 33.954636 -27.525665 61.480316 -61.480286 61.480316l0 0c-33.95465 0 -61.480316 -27.52568 -61.480316 -61.480316z" fill-rule="evenodd"/><path stroke="#000000" stroke-width="1.0" stroke-linejoin="round" stroke-linecap="butt" d="m264.7756 157.24934l0 0c0 -33.954643 27.525665 -61.480316 61.480316 -61.480316l0 0c16.305573 0 31.943329 6.477371 43.473145 18.007172c11.529785 11.529793 18.007141 27.167557 18.007141 43.473145l0 0c0 33.954636 -27.525665 61.480316 -61.480286 61.480316l0 0c-33.95465 0 -61.480316 -27.52568 -61.480316 -61.480316z" fill-rule="evenodd"/><path fill="#000000" d="m320.5208 166.09122l0 -1.640625q-1.21875 -0.15625 -2.0 -0.546875q-0.765625 -0.40625 -1.328125 -1.28125q-0.5625 -0.890625 -0.640625 -2.15625l1.640625 -0.3125q0.1875 1.3125 0.671875 1.9375q0.703125 0.875 1.65625 0.96875l0 -5.21875q-1.0 -0.1875 -2.0625 -0.78125q-0.78125 -0.4375 -1.203125 -1.203125q-0.421875 -0.78125 -0.421875 -1.765625q0 -1.75 1.234375 -2.828125q0.828125 -0.734375 2.453125 -0.890625l0 -0.78125l0.96875 0l0 0.78125q1.4375 0.125 2.265625 0.828125q1.078125 0.90625 1.296875 2.453125l-1.6875 0.265625q-0.15625 -0.96875 -0.625 -1.484375q-0.453125 -0.515625 -1.25 -0.6875l0 4.734375q1.234375 0.3125 1.640625 0.484375q0.765625 0.328125 1.25 0.8125q0.484375 0.484375 0.734375 1.15625q0.265625 0.65625 0.265625 1.4375q0 1.703125 -1.09375 2.84375q-1.078125 1.140625 -2.796875 1.21875l0 1.65625l-0.96875 0zm0 -14.359375q-0.953125 0.15625 -1.5 0.78125q-0.546875 0.609375 -0.546875 1.453125q0 0.84375 0.46875 1.40625q0.46875 0.5625 1.578125 0.90625l0 -4.546875zm0.96875 11.328125q0.953125 -0.109375 1.578125 -0.8125q0.625 -0.71875 0.625 -1.765625q0 -0.890625 -0.4375 -1.4375q-0.4375 -0.546875 -1.765625 -0.96875l0 4.984375zm11.719482 1.109375l-1.640625 0l0 -10.453125q-0.59375 0.5625 -1.5625 1.140625q-0.953125 0.5625 -1.71875 0.84375l0 -1.59375q1.375 -0.640625 2.40625 -1.5625q1.03125 -0.921875 1.453125 -1.78125l1.0625 0l0 13.40625z" fill-rule="nonzero"/><path fill="#000000" fill-opacity="0.0" d="m165.2559 157.24934l99.52757 0" fill-rule="evenodd"/><path stroke="#000000" stroke-width="1.0" stroke-linejoin="round" stroke-linecap="butt" d="m168.68298 157.24934l96.100494 0" fill-rule="evenodd"/><path fill="#000000" stroke="#000000" stroke-width="1.0" stroke-linecap="butt" d="m168.683 157.24934l1.1245728 -1.124588l-3.0897675 1.124588l3.0897675 1.124588z" fill-rule="evenodd"/><path fill="#cfe2f3" d="m487.2638 157.24934l0 0c0 -33.954643 27.525635 -61.480316 61.480286 -61.480316l0 0c16.305603 0 31.94336 6.477371 43.473145 18.007172c11.529785 11.529793 18.007202 27.167557 18.007202 43.473145l0 0c0 33.954636 -27.525696 61.480316 -61.480347 61.480316l0 0c-33.95465 0 -61.480286 -27.52568 -61.480286 -61.480316z" fill-rule="evenodd"/><path stroke="#000000" stroke-width="1.0" stroke-linejoin="round" stroke-linecap="butt" d="m487.2638 157.24934l0 0c0 -33.954643 27.525635 -61.480316 61.480286 -61.480316l0 0c16.305603 0 31.94336 6.477371 43.473145 18.007172c11.529785 11.529793 18.007202 27.167557 18.007202 43.473145l0 0c0 33.954636 -27.525696 61.480316 -61.480347 61.480316l0 0c-33.95465 0 -61.480286 -27.52568 -61.480286 -61.480316z" fill-rule="evenodd"/><path fill="#000000" d="m543.00903 166.09122l0 -1.640625q-1.21875 -0.15625 -2.0 -0.546875q-0.765625 -0.40625 -1.328125 -1.28125q-0.5625 -0.890625 -0.640625 -2.15625l1.640625 -0.3125q0.1875 1.3125 0.671875 1.9375q0.703125 0.875 1.65625 0.96875l0 -5.21875q-1.0 -0.1875 -2.0625 -0.78125q-0.78125 -0.4375 -1.203125 -1.203125q-0.421875 -0.78125 -0.421875 -1.765625q0 -1.75 1.234375 -2.828125q0.828125 -0.734375 2.453125 -0.890625l0 -0.78125l0.96875 0l0 0.78125q1.4375 0.125 2.265625 0.828125q1.078125 0.90625 1.296875 2.453125l-1.6875 0.265625q-0.15625 -0.96875 -0.625 -1.484375q-0.453125 -0.515625 -1.25 -0.6875l0 4.734375q1.234375 0.3125 1.640625 0.484375q0.765625 0.328125 1.25 0.8125q0.484375 0.484375 0.734375 1.15625q0.265625 0.65625 0.265625 1.4375q0 1.703125 -1.09375 2.84375q-1.078125 1.140625 -2.796875 1.21875l0 1.65625l-0.96875 0zm0 -14.359375q-0.953125 0.15625 -1.5 0.78125q-0.546875 0.609375 -0.546875 1.453125q0 0.84375 0.46875 1.40625q0.46875 0.5625 1.578125 0.90625l0 -4.546875zm0.96875 11.328125q0.953125 -0.109375 1.578125 -0.8125q0.625 -0.71875 0.625 -1.765625q0 -0.890625 -0.4375 -1.4375q-0.4375 -0.546875 -1.765625 -0.96875l0 4.984375zm14.156921 -0.46875l0 1.578125l-8.828125 0q-0.015625 -0.59375 0.1875 -1.140625q0.34375 -0.90625 1.078125 -1.78125q0.75 -0.875 2.15625 -2.015625q2.171875 -1.78125 2.9375 -2.828125q0.765625 -1.046875 0.765625 -1.96875q0 -0.984375 -0.703125 -1.640625q-0.6875 -0.671875 -1.8125 -0.671875q-1.1875 0 -1.90625 0.71875q-0.703125 0.703125 -0.703125 1.953125l-1.6875 -0.171875q0.171875 -1.890625 1.296875 -2.875q1.140625 -0.984375 3.03125 -0.984375q1.921875 0 3.046875 1.0625q1.125 1.0625 1.125 2.640625q0 0.796875 -0.328125 1.578125q-0.328125 0.78125 -1.09375 1.640625q-0.75 0.84375 -2.53125 2.34375q-1.46875 1.234375 -1.890625 1.6875q-0.421875 0.4375 -0.6875 0.875l6.546875 0z" fill-rule="nonzero"/><path fill="#000000" fill-opacity="0.0" d="m387.7362 157.24934l99.52759 0" fill-rule="evenodd"/><path stroke="#000000" stroke-width="1.0" stroke-linejoin="round" stroke-linecap="butt" d="m391.1633 157.24934l92.6734 0" fill-rule="evenodd"/><path fill="#000000" stroke="#000000" stroke-width="1.0" stroke-linecap="butt" d="m391.1633 157.24934l1.1246033 -1.124588l-3.0897827 1.124588l3.0897827 1.124588z" fill-rule="evenodd"/><path fill="#000000" stroke="#000000" stroke-width="1.0" stroke-linecap="butt" d="m483.8367 157.24934l-1.1246033 1.124588l3.0897827 -1.124588l-3.0897827 -1.124588z" fill-rule="evenodd"/><path fill="#cfe2f3" d="m709.7441 157.24934l0 0c0 -33.954643 27.525696 -61.480316 61.480347 -61.480316l0 0c16.305603 0 31.94336 6.477371 43.473145 18.007172c11.529785 11.529793 18.007141 27.167557 18.007141 43.473145l0 0c0 33.954636 -27.525635 61.480316 -61.480286 61.480316l0 0c-33.95465 0 -61.480347 -27.52568 -61.480347 -61.480316z" fill-rule="evenodd"/><path stroke="#000000" stroke-width="1.0" stroke-linejoin="round" stroke-linecap="butt" d="m709.7441 157.24934l0 0c0 -33.954643 27.525696 -61.480316 61.480347 -61.480316l0 0c16.305603 0 31.94336 6.477371 43.473145 18.007172c11.529785 11.529793 18.007141 27.167557 18.007141 43.473145l0 0c0 33.954636 -27.525635 61.480316 -61.480286 61.480316l0 0c-33.95465 0 -61.480347 -27.52568 -61.480347 -61.480316z" fill-rule="evenodd"/><path fill="#000000" d="m765.4893 155.09122l0 -1.640625q-1.21875 -0.15625 -2.0 -0.546875q-0.765625 -0.40625 -1.328125 -1.28125q-0.5625 -0.890625 -0.640625 -2.15625l1.640625 -0.3125q0.1875 1.3125 0.671875 1.9375q0.703125 0.875 1.65625 0.96875l0 -5.21875q-1.0 -0.1875 -2.0625 -0.78125q-0.78125 -0.4375 -1.203125 -1.203125q-0.421875 -0.78125 -0.421875 -1.765625q0 -1.75 1.234375 -2.828125q0.828125 -0.734375 2.453125 -0.890625l0 -0.78125l0.96875 0l0 0.78125q1.4375 0.125 2.265625 0.828125q1.078125 0.90625 1.296875 2.453125l-1.6875 0.265625q-0.15625 -0.96875 -0.625 -1.484375q-0.453125 -0.515625 -1.25 -0.6875l0 4.734375q1.234375 0.3125 1.640625 0.484375q0.765625 0.328125 1.25 0.8125q0.484375 0.484375 0.734375 1.15625q0.265625 0.65625 0.265625 1.4375q0 1.703125 -1.09375 2.84375q-1.078125 1.140625 -2.796875 1.21875l0 1.65625l-0.96875 0zm0 -14.359375q-0.953125 0.15625 -1.5 0.78125q-0.546875 0.609375 -0.546875 1.453125q0 0.84375 0.46875 1.40625q0.46875 0.5625 1.578125 0.90625l0 -4.546875zm0.96875 11.328125q0.953125 -0.109375 1.578125 -0.8125q0.625 -0.71875 0.625 -1.765625q0 -0.890625 -0.4375 -1.4375q-0.4375 -0.546875 -1.765625 -0.96875l0 4.984375zm5.5476074 -2.421875l1.640625 -0.21875q0.28125 1.40625 0.953125 2.015625q0.6875 0.609375 1.65625 0.609375q1.15625 0 1.953125 -0.796875q0.796875 -0.796875 0.796875 -1.984375q0 -1.125 -0.734375 -1.859375q-0.734375 -0.734375 -1.875 -0.734375q-0.46875 0 -1.15625 0.171875l0.1875 -1.4375q0.15625 0.015625 0.265625 0.015625q1.046875 0 1.875 -0.546875q0.84375 -0.546875 0.84375 -1.671875q0 -0.90625 -0.609375 -1.5q-0.609375 -0.59375 -1.578125 -0.59375q-0.953125 0 -1.59375 0.609375q-0.640625 0.59375 -0.8125 1.796875l-1.640625 -0.296875q0.296875 -1.640625 1.359375 -2.546875q1.0625 -0.90625 2.65625 -0.90625q1.09375 0 2.0 0.46875q0.921875 0.46875 1.40625 1.28125q0.5 0.8125 0.5 1.71875q0 0.859375 -0.46875 1.578125q-0.46875 0.703125 -1.375 1.125q1.1875 0.28125 1.84375 1.140625q0.65625 0.859375 0.65625 2.15625q0 1.734375 -1.28125 2.953125q-1.265625 1.21875 -3.21875 1.21875q-1.765625 0 -2.921875 -1.046875q-1.15625 -1.046875 -1.328125 -2.71875z" fill-rule="nonzero"/><path fill="#000000" d="m753.3065 179.09122q-1.359375 -1.703125 -2.296875 -4.0q-0.9375 -2.296875 -0.9375 -4.765625q0 -2.15625 0.703125 -4.140625q0.828125 -2.3125 2.53125 -4.59375l1.171875 0q-1.09375 1.890625 -1.453125 2.703125q-0.546875 1.25 -0.875 2.625q-0.390625 1.703125 -0.390625 3.421875q0 4.375 2.71875 8.75l-1.171875 0zm5.6188965 -3.921875l-3.53125 -13.359375l1.8125 0l2.03125 8.765625q0.328125 1.375 0.5625 2.71875q0.5 -2.140625 0.59375 -2.46875l2.546875 -9.015625l2.125 0l1.921875 6.765625q0.71875 2.515625 1.03125 4.71875q0.265625 -1.265625 0.671875 -2.890625l2.09375 -8.59375l1.78125 0l-3.671875 13.359375l-1.703125 0l-2.8125 -10.171875q-0.359375 -1.28125 -0.421875 -1.5625q-0.203125 0.90625 -0.390625 1.5625l-2.828125 10.171875l-1.8125 0zm15.077454 -11.46875l0 -1.890625l1.640625 0l0 1.890625l-1.640625 0zm0 11.46875l0 -9.671875l1.640625 0l0 9.671875l-1.640625 0zm4.1447754 0l0 -9.671875l1.46875 0l0 1.375q1.0625 -1.59375 3.078125 -1.59375q0.875 0 1.609375 0.3125q0.734375 0.3125 1.09375 0.828125q0.375 0.5 0.515625 1.203125q0.09375 0.453125 0.09375 1.59375l0 5.953125l-1.640625 0l0 -5.890625q0 -1.0 -0.203125 -1.484375q-0.1875 -0.5 -0.671875 -0.796875q-0.484375 -0.296875 -1.140625 -0.296875q-1.046875 0 -1.8125 0.671875q-0.75 0.65625 -0.75 2.515625l0 5.28125l-1.640625 0zm11.453857 3.921875l-1.1875 0q2.734375 -4.375 2.734375 -8.75q0 -1.71875 -0.390625 -3.390625q-0.3125 -1.375 -0.875 -2.625q-0.359375 -0.828125 -1.46875 -2.734375l1.1875 0q1.703125 2.28125 2.53125 4.59375q0.6875 1.984375 0.6875 4.140625q0 2.46875 -0.9375 4.765625q-0.9375 2.296875 -2.28125 4.0z" fill-rule="nonzero"/><path fill="#000000" fill-opacity="0.0" d="m610.21655 157.24934l99.52753 0" fill-rule="evenodd"/><path stroke="#000000" stroke-width="1.0" stroke-linejoin="round" stroke-linecap="butt" d="m610.21655 157.24934l96.100464 0" fill-rule="evenodd"/><path fill="#000000" stroke="#000000" stroke-width="1.0" stroke-linecap="butt" d="m706.317 157.24934l-1.1245728 1.124588l3.0897217 -1.124588l-3.0897217 -1.124588z" fill-rule="evenodd"/><path fill="#000000" fill-opacity="0.0" d="m42.295277 157.24934c-12.499958 0 -24.534304 -13.98999 -24.999914 -26.873932c-0.4656105 -12.883934 10.637512 -24.661835 21.50783 -26.873917c10.870319 -2.2120895 21.507832 5.1416397 21.507832 10.283279" fill-rule="evenodd"/><path stroke="#000000" stroke-width="1.0" stroke-linejoin="round" stroke-linecap="butt" d="m42.295277 157.24934c-12.499958 0 -24.534302 -13.98999 -24.999914 -26.873917c-0.4656105 -12.883949 10.637514 -24.661842 21.50783 -26.873932c5.4351616 -1.106041 10.812119 0.1793747 14.830288 2.383995c2.0090828 1.1023102 3.6784668 2.434433 4.845585 3.8123245c0.14588928 0.17223358 0.28393173 0.34518433 0.41380692 0.51849365c0.06493759 0.08664703 0.12783432 0.17339325 0.18864822 0.26018524l0.05903244 0.087265015" fill-rule="evenodd"/><path fill="#000000" stroke="#000000" stroke-width="1.0" stroke-linecap="butt" d="m59.140553 110.56377l-1.4410477 -0.67287445l2.1122284 2.5198898l0.0016975403 -3.288063z" fill-rule="evenodd"/><path fill="#000000" fill-opacity="0.0" d="m832.7047 157.24934c16.398315 0 31.811218 -15.273621 32.79663 -29.62458c0.98535156 -14.35096 -12.456787 -27.779243 -25.406189 -29.62458c-12.949463 -1.8453293 -25.406189 7.892296 -25.406189 15.784592" fill-rule="evenodd"/><path stroke="#000000" stroke-width="1.0" stroke-linejoin="round" stroke-linecap="butt" d="m832.7047 157.24934c16.398315 0 31.811218 -15.273621 32.79663 -29.62458c0.98535156 -14.35096 -12.456787 -27.779251 -25.406189 -29.62458c-6.4747314 -0.9226608 -12.826294 1.050415 -17.559143 4.240692c-2.366394 1.5951309 -4.328186 3.4945755 -5.698303 5.488495c-0.3425293 0.49848175 -0.6481323 1.0028687 -0.91381836 1.5098877c-0.1328125 0.2535019 -0.25567627 0.50766754 -0.3682251 0.76207733c-0.05621338 0.1272049 -0.10986328 0.25447083 -0.1609497 0.38174438l-0.016906738 0.044548035" fill-rule="evenodd"/><path fill="#000000" stroke="#000000" stroke-width="1.0" stroke-linecap="butt" d="m815.3778 110.42763l-0.87561035 -1.3276672l0.48059082 3.2527466l1.7226562 -2.8006897z" fill-rule="evenodd"/><path fill="#000000" fill-opacity="0.0" d="m175.99397 109.1811l78.04724 0l0 41.98426l-78.04724 0z" fill-rule="evenodd"/><path fill="#000000" d="m197.12892 132.6011l1.71875 -0.140625q0.1875 1.25 0.875 1.890625q0.703125 0.625 1.6875 0.625q1.1875 0 2.0 -0.890625q0.828125 -0.890625 0.828125 -2.359375q0 -1.40625 -0.796875 -2.21875q-0.78125 -0.8125 -2.0625 -0.8125q-0.78125 0 -1.421875 0.359375q-0.640625 0.359375 -1.0 0.9375l-1.546875 -0.203125l1.296875 -6.8593826l6.640625 0l0 1.5625l-5.328125 0l-0.71875 3.5937576q1.203125 -0.8437576 2.515625 -0.8437576q1.75 0 2.953125 1.2187576q1.203125 1.203125 1.203125 3.109375q0 1.8125 -1.046875 3.140625q-1.296875 1.625 -3.515625 1.625q-1.8125 0 -2.96875 -1.015625q-1.15625 -1.03125 -1.3125 -2.71875zm10.375717 -3.09375q0 -2.3593826 0.484375 -3.7968826q0.484375 -1.453125 1.4375 -2.234375q0.96875 -0.78125 2.421875 -0.78125q1.078125 0 1.890625 0.4375q0.8125 0.421875 1.328125 1.25q0.53125 0.8125 0.828125 1.984375q0.3125 1.15625 0.3125 3.1406326q0 2.359375 -0.484375 3.8125q-0.484375 1.4375 -1.453125 2.234375q-0.953125 0.78125 -2.421875 0.78125q-1.921875 0 -3.03125 -1.390625q-1.3125 -1.671875 -1.3125 -5.4375zm1.671875 0q0 3.296875 0.765625 4.390625q0.78125 1.078125 1.90625 1.078125q1.140625 0 1.90625 -1.09375q0.765625 -1.09375 0.765625 -4.375q0 -3.2968826 -0.765625 -4.3750076q-0.765625 -1.078125 -1.921875 -1.078125q-1.125 0 -1.796875 0.953125q-0.859375 1.21875 -0.859375 4.5000076zm9.000717 -3.5468826q0 -1.4375 0.71875 -2.4375q0.71875 -1.0 2.09375 -1.0q1.25 0 2.078125 0.90625q0.828125 0.890625 0.828125 2.625q0 1.6875 -0.84375 2.6093826q-0.828125 0.921875 -2.046875 0.921875q-1.203125 0 -2.015625 -0.90625q-0.8125 -0.9062576 -0.8125 -2.7187576zm2.859375 -2.3125q-0.609375 0 -1.015625 0.53125q-0.40625 0.53125 -0.40625 1.9375q0 1.28125 0.40625 1.8125q0.40625 0.5156326 1.015625 0.5156326q0.625 0 1.015625 -0.5156326q0.40625 -0.53125 0.40625 -1.9375q0 -1.296875 -0.40625 -1.8125q-0.40625 -0.53125 -1.015625 -0.53125zm0 12.937508l7.3125 -14.062508l1.328125 0l-7.28125 14.062508l-1.359375 0zm5.78125 -3.625q0 -1.4375 0.71875 -2.421875q0.71875 -1.0 2.09375 -1.0q1.265625 0 2.078125 0.90625q0.828125 0.890625 0.828125 2.625q0 1.6875 -0.828125 2.609375q-0.828125 0.90625 -2.0625 0.90625q-1.21875 0 -2.03125 -0.90625q-0.796875 -0.90625 -0.796875 -2.71875zm2.859375 -2.296875q-0.625 0 -1.03125 0.53125q-0.390625 0.53125 -0.390625 1.9375q0 1.28125 0.40625 1.8125q0.40625 0.515625 1.015625 0.515625q0.625 0 1.03125 -0.515625q0.40625 -0.53125 0.40625 -1.9375q0 -1.296875 -0.421875 -1.8125q-0.40625 -0.53125 -1.015625 -0.53125z" fill-rule="nonzero"/><path fill="#000000" fill-opacity="0.0" d="m398.4769 109.1811l78.04724 0l0 41.98426l-78.04724 0z" fill-rule="evenodd"/><path fill="#000000" d="m419.61188 132.6011l1.71875 -0.140625q0.1875 1.25 0.875 1.890625q0.703125 0.625 1.6875 0.625q1.1875 0 2.0 -0.890625q0.828125 -0.890625 0.828125 -2.359375q0 -1.40625 -0.796875 -2.21875q-0.78125 -0.8125 -2.0625 -0.8125q-0.78125 0 -1.421875 0.359375q-0.640625 0.359375 -1.0 0.9375l-1.546875 -0.203125l1.296875 -6.8593826l6.640625 0l0 1.5625l-5.328125 0l-0.71875 3.5937576q1.203125 -0.8437576 2.515625 -0.8437576q1.75 0 2.953125 1.2187576q1.203125 1.203125 1.203125 3.109375q0 1.8125 -1.046875 3.140625q-1.296875 1.625 -3.515625 1.625q-1.8125 0 -2.96875 -1.015625q-1.15625 -1.03125 -1.3125 -2.71875zm10.375702 -3.09375q0 -2.3593826 0.484375 -3.7968826q0.484375 -1.453125 1.4375 -2.234375q0.96875 -0.78125 2.421875 -0.78125q1.078125 0 1.890625 0.4375q0.8125 0.421875 1.328125 1.25q0.53125 0.8125 0.828125 1.984375q0.3125 1.15625 0.3125 3.1406326q0 2.359375 -0.484375 3.8125q-0.484375 1.4375 -1.453125 2.234375q-0.953125 0.78125 -2.421875 0.78125q-1.921875 0 -3.03125 -1.390625q-1.3125 -1.671875 -1.3125 -5.4375zm1.671875 0q0 3.296875 0.765625 4.390625q0.78125 1.078125 1.90625 1.078125q1.140625 0 1.90625 -1.09375q0.765625 -1.09375 0.765625 -4.375q0 -3.2968826 -0.765625 -4.3750076q-0.765625 -1.078125 -1.921875 -1.078125q-1.125 0 -1.796875 0.953125q-0.859375 1.21875 -0.859375 4.5000076zm9.000702 -3.5468826q0 -1.4375 0.71875 -2.4375q0.71875 -1.0 2.09375 -1.0q1.25 0 2.078125 0.90625q0.828125 0.890625 0.828125 2.625q0 1.6875 -0.84375 2.6093826q-0.828125 0.921875 -2.046875 0.921875q-1.203125 0 -2.015625 -0.90625q-0.8125 -0.9062576 -0.8125 -2.7187576zm2.859375 -2.3125q-0.609375 0 -1.015625 0.53125q-0.40625 0.53125 -0.40625 1.9375q0 1.28125 0.40625 1.8125q0.40625 0.5156326 1.015625 0.5156326q0.625 0 1.015625 -0.5156326q0.40625 -0.53125 0.40625 -1.9375q0 -1.296875 -0.40625 -1.8125q-0.40625 -0.53125 -1.015625 -0.53125zm0 12.937508l7.3125 -14.062508l1.328125 0l-7.28125 14.062508l-1.359375 0zm5.78125 -3.625q0 -1.4375 0.71875 -2.421875q0.71875 -1.0 2.09375 -1.0q1.265625 0 2.078125 0.90625q0.828125 0.890625 0.828125 2.625q0 1.6875 -0.828125 2.609375q-0.828125 0.90625 -2.0625 0.90625q-1.21875 0 -2.03125 -0.90625q-0.796875 -0.90625 -0.796875 -2.71875zm2.859375 -2.296875q-0.625 0 -1.03125 0.53125q-0.390625 0.53125 -0.390625 1.9375q0 1.28125 0.40625 1.8125q0.40625 0.515625 1.015625 0.515625q0.625 0 1.03125 -0.515625q0.40625 -0.53125 0.40625 -1.9375q0 -1.296875 -0.421875 -1.8125q-0.40625 -0.53125 -1.015625 -0.53125z" fill-rule="nonzero"/><path fill="#000000" fill-opacity="0.0" d="m620.9612 109.1811l78.04724 0l0 41.98426l-78.04724 0z" fill-rule="evenodd"/><path fill="#000000" d="m642.0961 132.6011l1.71875 -0.140625q0.1875 1.25 0.875 1.890625q0.703125 0.625 1.6875 0.625q1.1875 0 2.0 -0.890625q0.828125 -0.890625 0.828125 -2.359375q0 -1.40625 -0.796875 -2.21875q-0.78125 -0.8125 -2.0625 -0.8125q-0.78125 0 -1.421875 0.359375q-0.640625 0.359375 -1.0 0.9375l-1.546875 -0.203125l1.296875 -6.8593826l6.640625 0l0 1.5625l-5.328125 0l-0.71875 3.5937576q1.203125 -0.8437576 2.515625 -0.8437576q1.75 0 2.953125 1.2187576q1.203125 1.203125 1.203125 3.109375q0 1.8125 -1.046875 3.140625q-1.296875 1.625 -3.515625 1.625q-1.8125 0 -2.96875 -1.015625q-1.15625 -1.03125 -1.3125 -2.71875zm10.375732 -3.09375q0 -2.3593826 0.484375 -3.7968826q0.48431396 -1.453125 1.437439 -2.234375q0.96875 -0.78125 2.421875 -0.78125q1.078125 0 1.890625 0.4375q0.8125 0.421875 1.328125 1.25q0.53125 0.8125 0.828125 1.984375q0.3125 1.15625 0.3125 3.1406326q0 2.359375 -0.484375 3.8125q-0.484375 1.4375 -1.453125 2.234375q-0.953125 0.78125 -2.421875 0.78125q-1.921875 0 -3.03125 -1.390625q-1.312439 -1.671875 -1.312439 -5.4375zm1.671814 0q0 3.296875 0.765625 4.390625q0.78125 1.078125 1.90625 1.078125q1.140625 0 1.90625 -1.09375q0.765625 -1.09375 0.765625 -4.375q0 -3.2968826 -0.765625 -4.3750076q-0.765625 -1.078125 -1.921875 -1.078125q-1.125 0 -1.796875 0.953125q-0.859375 1.21875 -0.859375 4.5000076zm9.000732 -3.5468826q0 -1.4375 0.71875 -2.4375q0.71875 -1.0 2.09375 -1.0q1.25 0 2.078125 0.90625q0.828125 0.890625 0.828125 2.625q0 1.6875 -0.84375 2.6093826q-0.828125 0.921875 -2.046875 0.921875q-1.203125 0 -2.015625 -0.90625q-0.8125 -0.9062576 -0.8125 -2.7187576zm2.859375 -2.3125q-0.609375 0 -1.015625 0.53125q-0.40625 0.53125 -0.40625 1.9375q0 1.28125 0.40625 1.8125q0.40625 0.5156326 1.015625 0.5156326q0.625 0 1.015625 -0.5156326q0.40625 -0.53125 0.40625 -1.9375q0 -1.296875 -0.40625 -1.8125q-0.40625 -0.53125 -1.015625 -0.53125zm0 12.937508l7.3125 -14.062508l1.328125 0l-7.28125 14.062508l-1.359375 0zm5.78125 -3.625q0 -1.4375 0.71875 -2.421875q0.71875 -1.0 2.09375 -1.0q1.265625 0 2.078125 0.90625q0.828125 0.890625 0.828125 2.625q0 1.6875 -0.828125 2.609375q-0.828125 0.90625 -2.0625 0.90625q-1.21875 0 -2.03125 -0.90625q-0.796875 -0.90625 -0.796875 -2.71875zm2.859375 -2.296875q-0.625 0 -1.03125 0.53125q-0.390625 0.53125 -0.390625 1.9375q0 1.28125 0.40625 1.8125q0.40625 0.515625 1.015625 0.515625q0.625 0 1.03125 -0.515625q0.40625 -0.53125 0.40625 -1.9375q0 -1.296875 -0.421875 -1.8125q-0.40625 -0.53125 -1.015625 -0.53125z" fill-rule="nonzero"/><path fill="#000000" fill-opacity="0.0" d="m796.9533 55.787403l78.04724 0l0 41.98425l-78.04724 0z" fill-rule="evenodd"/><path fill="#000000" d="m819.07227 82.7074l-1.640625 0l0 -10.453125q-0.59375 0.5625 -1.5625 1.140625q-0.953125 0.5625 -1.71875 0.84375l0 -1.59375q1.375 -0.640625 2.40625 -1.5625q1.03125 -0.921875 1.453125 -1.78125l1.0625 0l0 13.40625zm4.2038574 -6.59375q0 -2.359375 0.484375 -3.796875q0.484375 -1.453125 1.4375 -2.234375q0.96875 -0.78125 2.421875 -0.78125q1.078125 0 1.890625 0.4375q0.8125 0.421875 1.328125 1.25q0.53125 0.8125 0.828125 1.984375q0.3125 1.15625 0.3125 3.140625q0 2.359375 -0.484375 3.8125q-0.484375 1.4375 -1.453125 2.234375q-0.953125 0.78125 -2.421875 0.78125q-1.921875 0 -3.03125 -1.390625q-1.3125 -1.671875 -1.3125 -5.4375zm1.671875 0q0 3.296875 0.765625 4.390625q0.78125 1.078125 1.90625 1.078125q1.140625 0 1.90625 -1.09375q0.765625 -1.09375 0.765625 -4.375q0 -3.296875 -0.765625 -4.375q-0.765625 -1.078125 -1.921875 -1.078125q-1.125 0 -1.796875 0.953125q-0.859375 1.21875 -0.859375 4.5zm8.703796 0q0 -2.359375 0.484375 -3.796875q0.484375 -1.453125 1.4375 -2.234375q0.96875 -0.78125 2.421875 -0.78125q1.078125 0 1.890625 0.4375q0.8125 0.421875 1.328125 1.25q0.53125 0.8125 0.828125 1.984375q0.3125 1.15625 0.3125 3.140625q0 2.359375 -0.484375 3.8125q-0.484375 1.4375 -1.453125 2.234375q-0.953125 0.78125 -2.421875 0.78125q-1.921875 0 -3.03125 -1.390625q-1.3125 -1.671875 -1.3125 -5.4375zm1.671875 0q0 3.296875 0.765625 4.390625q0.78125 1.078125 1.90625 1.078125q1.140625 0 1.90625 -1.09375q0.765625 -1.09375 0.765625 -4.375q0 -3.296875 -0.765625 -4.375q-0.765625 -1.078125 -1.921875 -1.078125q-1.125 0 -1.796875 0.953125q-0.859375 1.21875 -0.859375 4.5zm9.000732 -3.546875q0 -1.4375 0.71875 -2.4375q0.71875 -1.0 2.09375 -1.0q1.25 0 2.078125 0.90625q0.828125 0.890625 0.828125 2.625q0 1.6875 -0.84375 2.609375q-0.828125 0.921875 -2.046875 0.921875q-1.203125 0 -2.015625 -0.90625q-0.8125 -0.90625 -0.8125 -2.71875zm2.859375 -2.3125q-0.609375 0 -1.015625 0.53125q-0.40625 0.53125 -0.40625 1.9375q0 1.28125 0.40625 1.8125q0.40625 0.515625 1.015625 0.515625q0.625 0 1.015625 -0.515625q0.40625 -0.53125 0.40625 -1.9375q0 -1.296875 -0.40625 -1.8125q-0.40625 -0.53125 -1.015625 -0.53125zm0 12.9375l7.3125 -14.0625l1.328125 0l-7.28125 14.0625l-1.359375 0zm5.78125 -3.625q0 -1.4375 0.71875 -2.421875q0.71875 -1.0 2.09375 -1.0q1.265625 0 2.078125 0.90625q0.828125 0.890625 0.828125 2.625q0 1.6875 -0.828125 2.609375q-0.828125 0.90625 -2.0625 0.90625q-1.21875 0 -2.03125 -0.90625q-0.796875 -0.90625 -0.796875 -2.71875zm2.859375 -2.296875q-0.625 0 -1.03125 0.53125q-0.390625 0.53125 -0.390625 1.9375q0 1.28125 0.40625 1.8125q0.40625 0.515625 1.015625 0.515625q0.625 0 1.03125 -0.515625q0.40625 -0.53125 0.40625 -1.9375q0 -1.296875 -0.421875 -1.8125q-0.40625 -0.53125 -1.015625 -0.53125z" fill-rule="nonzero"/><path fill="#000000" fill-opacity="0.0" d="m-0.22781916 55.787403l78.04725 0l0 41.98425l-78.04725 0z" fill-rule="evenodd"/><path fill="#000000" d="m21.891155 82.7074l-1.640625 0l0 -10.453125q-0.59375 0.5625 -1.5625 1.140625q-0.953125 0.5625 -1.71875 0.84375l0 -1.59375q1.375 -0.640625 2.40625 -1.5625q1.03125 -0.921875 1.453125 -1.78125l1.0625 0l0 13.40625zm4.203842 -6.59375q0 -2.359375 0.484375 -3.796875q0.484375 -1.453125 1.4375 -2.234375q0.96875 -0.78125 2.421875 -0.78125q1.078125 0 1.890625 0.4375q0.8125 0.421875 1.328125 1.25q0.53125 0.8125 0.828125 1.984375q0.3125 1.15625 0.3125 3.140625q0 2.359375 -0.484375 3.8125q-0.484375 1.4375 -1.453125 2.234375q-0.9531269 0.78125 -2.421875 0.78125q-1.921875 0 -3.03125 -1.390625q-1.3125 -1.671875 -1.3125 -5.4375zm1.671875 0q0 3.296875 0.765625 4.390625q0.78125 1.078125 1.90625 1.078125q1.140625 0 1.90625 -1.09375q0.765625 -1.09375 0.765625 -4.375q0 -3.296875 -0.765625 -4.375q-0.765625 -1.078125 -1.921875 -1.078125q-1.125 0 -1.796875 0.953125q-0.859375 1.21875 -0.859375 4.5zm8.703842 0q0 -2.359375 0.484375 -3.796875q0.484375 -1.453125 1.4375 -2.234375q0.96875 -0.78125 2.421875 -0.78125q1.078125 0 1.890625 0.4375q0.8125 0.421875 1.328125 1.25q0.53125 0.8125 0.828125 1.984375q0.3125 1.15625 0.3125 3.140625q0 2.359375 -0.484375 3.8125q-0.484375 1.4375 -1.453125 2.234375q-0.953125 0.78125 -2.421875 0.78125q-1.921875 0 -3.03125 -1.390625q-1.3125 -1.671875 -1.3125 -5.4375zm1.671875 0q0 3.296875 0.765625 4.390625q0.78125 1.078125 1.90625 1.078125q1.140625 0 1.90625 -1.09375q0.765625 -1.09375 0.765625 -4.375q0 -3.296875 -0.765625 -4.375q-0.765625 -1.078125 -1.921875 -1.078125q-1.125 0 -1.796875 0.953125q-0.859375 1.21875 -0.859375 4.5zm9.000717 -3.546875q0 -1.4375 0.71875 -2.4375q0.71875 -1.0 2.09375 -1.0q1.25 0 2.078125 0.90625q0.828125 0.890625 0.828125 2.625q0 1.6875 -0.84375 2.609375q-0.828125 0.921875 -2.046875 0.921875q-1.203125 0 -2.015625 -0.90625q-0.8125 -0.90625 -0.8125 -2.71875zm2.859375 -2.3125q-0.609375 0 -1.015625 0.53125q-0.40625 0.53125 -0.40625 1.9375q0 1.28125 0.40625 1.8125q0.40625 0.515625 1.015625 0.515625q0.625 0 1.015625 -0.515625q0.40625 -0.53125 0.40625 -1.9375q0 -1.296875 -0.40625 -1.8125q-0.40625 -0.53125 -1.015625 -0.53125zm0 12.9375l7.3125 -14.0625l1.328125 0l-7.28125 14.0625l-1.359375 0zm5.78125 -3.625q0 -1.4375 0.71875 -2.421875q0.71875 -1.0 2.09375 -1.0q1.265625 0 2.078125 0.90625q0.828125 0.890625 0.828125 2.625q0 1.6875 -0.828125 2.609375q-0.828125 0.90625 -2.0625 0.90625q-1.21875 0 -2.03125 -0.90625q-0.796875 -0.90625 -0.796875 -2.71875zm2.859375 -2.296875q-0.625 0 -1.03125 0.53125q-0.390625 0.53125 -0.390625 1.9375q0 1.28125 0.40625 1.8125q0.40625 0.515625 1.015625 0.515625q0.625 0 1.03125 -0.515625q0.40625 -0.53125 0.40625 -1.9375q0 -1.296875 -0.421875 -1.8125q-0.40625 -0.53125 -1.015625 -0.53125z" fill-rule="nonzero"/></g></svg>