<?xml version="1.0" encoding="utf-8"?>
<svg id="Layer_1" data-name="Layer 1" xmlns="http://www.w3.org/2000/svg" viewBox="0 -17 84 84" xmlns:bx="https://boxy-svg.com" width="84px" height="84px"><defs><style>
      .cls-1 {
        stroke-miterlimit: 10;
        fill: #fff;
        stroke: #fff;
      }
    </style><bx:export><bx:file format="png" width="16" height="16" path="flower-16.png"/><bx:file format="png" path="flower-32.png" width="32" height="32"/><bx:file format="png" path="flower-64.png" width="64" height="64"/><bx:file format="png" path="flower-128.png" width="128" height="128"/><bx:file format="png" path="flower-256.png" width="256" height="256"/><bx:file format="svg" path="flower.svg"/></bx:export></defs><rect style="stroke-width: 0px; stroke: rgb(5, 44, 101); fill: rgb(5, 44, 101);" y="-17" width="84" height="84" rx="8" ry="8"/><path class="cls-1" d="M 69.715 26.862 C 69.915 26.702 70.005 26.442 69.975 26.192 C 69.815 24.912 69.395 21.512 63.545 18.542 C 60.435 16.962 58.385 15.262 57.275 14.202 C 58.065 14.242 58.945 14.402 59.825 14.672 C 60.535 14.892 61.315 15.372 62.145 15.872 C 63.775 16.862 65.625 17.992 67.995 17.992 C 69.025 17.992 70.085 17.762 71.145 17.322 C 74.465 15.922 76.285 15.712 77.065 15.712 C 77.315 15.712 77.445 15.732 77.445 15.732 C 77.675 15.792 77.915 15.732 78.095 15.602 C 78.275 15.462 78.385 15.242 78.385 15.002 C 78.385 14.372 77.665 10.962 63.545 5.882 C 58.665 4.122 54.225 3.232 50.335 3.232 C 46.445 3.232 44.165 4.132 43.205 4.622 C 41.825 3.462 37.265 -0.008 32.345 -0.008 C 30.635 -0.008 29.045 0.422 27.615 1.262 C 21.545 4.852 23.545 11.402 24.425 13.582 C 22.695 14.452 18.185 17.222 13.965 24.082 C 8.785 32.522 6.775 43.392 6.695 43.852 C 6.655 44.092 6.725 44.332 6.885 44.502 C 7.055 44.672 7.285 44.762 7.525 44.732 C 14.385 43.852 19.205 38.992 19.745 35.002 C 19.985 33.192 21.055 30.912 21.985 29.202 C 21.825 31.862 21.395 35.852 20.215 38.932 C 18.065 44.562 21.365 48.252 21.515 48.412 C 21.655 48.572 21.865 48.652 22.065 48.652 C 22.105 48.652 22.135 48.652 22.175 48.652 C 22.425 48.612 22.635 48.462 22.745 48.232 C 22.765 48.192 24.535 44.602 26.885 42.432 C 29.405 40.102 30.715 37.612 28.895 32.992 C 28.195 31.222 28.705 29.282 29.415 27.752 C 29.275 29.802 29.295 32.482 29.955 34.992 C 31.235 39.932 35.905 44.262 36.105 44.442 C 36.405 44.722 36.875 44.702 37.165 44.402 C 39.465 41.952 39.345 35.312 39.065 31.482 C 41.415 34.292 44.015 36.172 46.055 37.352 C 46.085 37.852 46.385 42.772 46.635 48.862 C 46.435 55.882 45.665 63.872 45.165 69.172 L 44.955 71.362 C 44.595 75.202 48.235 81.692 48.485 66.302 C 48.555 61.922 48.445 56.052 48.145 48.862 C 48.275 44.212 48.145 40.732 47.765 38.262 C 48.865 38.792 49.605 39.042 49.695 39.072 C 50.025 39.182 50.385 39.042 50.565 38.752 C 51.515 37.192 50.805 33.582 50.065 30.872 C 51.025 31.432 52.115 31.832 53.085 32.182 C 53.355 32.282 53.615 32.372 53.865 32.472 C 55.845 33.222 59.835 34.842 59.875 34.862 C 60.215 35.002 60.595 34.872 60.785 34.572 C 61.055 34.152 61.665 32.442 58.265 27.882 C 55.785 24.552 51.725 20.162 49.685 18.012 C 51.825 18.282 53.535 19.522 55.015 21.852 C 57.005 24.982 59.345 26.232 62.845 26.122 C 65.645 26.022 68.975 27.032 69.005 27.042 C 69.245 27.122 69.515 27.062 69.705 26.902 L 69.715 26.862 Z M 46.985 66.252 C 46.805 77.232 45.955 76.822 46.455 71.482 L 46.665 69.292 C 46.765 68.262 46.875 67.132 46.985 65.922 C 46.985 66.032 46.985 66.142 46.985 66.252 Z M 50.355 4.732 C 54.065 4.732 58.335 5.592 63.055 7.292 C 72.215 10.592 75.335 13.062 76.385 14.232 C 75.195 14.342 73.335 14.762 70.575 15.932 C 69.695 16.302 68.855 16.482 68.015 16.482 C 66.075 16.482 64.485 15.512 62.945 14.582 C 62.035 14.022 61.165 13.502 60.285 13.222 C 59.115 12.862 57.985 12.672 56.945 12.672 C 56.395 12.672 56.015 12.722 55.765 12.772 C 54.535 11.892 51.735 10.002 49.035 9.022 C 47.545 8.482 45.795 8.172 44.265 7.992 C 44.475 7.742 44.595 7.452 44.595 7.132 C 44.595 6.662 44.335 6.242 43.915 5.952 C 44.685 5.562 46.755 4.732 50.355 4.732 Z M 43.595 7.142 C 43.595 7.442 43.045 7.792 42.325 7.792 C 41.605 7.792 41.055 7.442 41.055 7.142 C 41.055 6.842 41.605 6.492 42.325 6.492 C 43.045 6.492 43.595 6.842 43.595 7.142 Z M 40.975 9.492 C 40.975 9.792 40.425 10.142 39.705 10.142 C 38.985 10.142 38.435 9.792 38.435 9.492 C 38.435 9.192 38.985 8.842 39.705 8.842 C 40.235 8.842 40.675 9.032 40.865 9.262 C 40.935 9.342 40.965 9.422 40.965 9.492 L 40.975 9.492 Z M 38.305 11.442 C 38.205 11.712 37.715 11.992 37.075 11.992 C 36.365 11.992 35.805 11.642 35.805 11.342 C 35.805 11.042 36.355 10.692 37.075 10.692 C 37.445 10.692 37.765 10.792 37.995 10.922 C 38.205 11.042 38.335 11.202 38.335 11.342 C 38.335 11.372 38.305 11.412 38.295 11.442 L 38.305 11.442 Z M 34.895 13.162 C 34.665 13.302 34.335 13.402 33.955 13.402 C 33.245 13.402 32.685 13.052 32.685 12.752 C 32.685 12.452 33.235 12.102 33.955 12.102 C 34.045 12.102 34.115 12.122 34.195 12.132 C 34.785 12.202 35.225 12.492 35.225 12.752 C 35.225 12.892 35.095 13.032 34.905 13.152 L 34.895 13.162 Z M 29.475 13.892 C 29.475 13.812 29.525 13.722 29.605 13.642 C 29.805 13.432 30.225 13.252 30.745 13.252 C 31.005 13.252 31.225 13.312 31.425 13.382 C 31.775 13.512 32.015 13.712 32.015 13.902 C 32.015 14.122 31.705 14.372 31.255 14.482 C 31.095 14.522 30.925 14.542 30.745 14.542 C 30.415 14.542 30.125 14.462 29.905 14.352 C 29.645 14.222 29.475 14.052 29.475 13.892 Z M 27.215 15.172 C 26.505 15.172 25.945 14.822 25.945 14.522 C 25.945 14.522 25.955 14.502 25.955 14.492 C 25.965 14.392 26.035 14.302 26.145 14.212 C 26.365 14.022 26.745 13.872 27.215 13.872 C 27.645 13.872 27.995 14.002 28.225 14.162 C 28.385 14.272 28.485 14.402 28.485 14.522 C 28.485 14.792 28.025 15.092 27.405 15.152 C 27.345 15.152 27.285 15.172 27.215 15.172 Z M 28.405 2.552 C 29.595 1.852 30.925 1.492 32.365 1.492 C 36.435 1.492 40.395 4.292 41.935 5.522 C 40.855 5.652 40.045 6.312 40.045 7.142 C 40.045 7.372 40.105 7.582 40.215 7.772 C 40.125 7.792 40.045 7.812 39.975 7.862 C 39.885 7.862 39.795 7.842 39.695 7.842 C 38.425 7.842 37.425 8.562 37.425 9.492 C 37.425 9.572 37.445 9.652 37.455 9.722 C 37.325 9.712 37.205 9.692 37.065 9.692 C 35.855 9.692 34.905 10.342 34.815 11.202 C 34.775 11.202 34.745 11.202 34.705 11.202 C 34.465 11.142 34.205 11.102 33.935 11.102 C 32.825 11.102 31.935 11.652 31.715 12.402 C 31.415 12.302 31.085 12.232 30.725 12.232 C 29.765 12.232 28.965 12.642 28.635 13.232 C 28.245 13.002 27.755 12.862 27.205 12.862 C 26.715 12.862 26.265 12.972 25.895 13.162 C 25.175 11.522 23.085 5.682 28.395 2.542 L 28.405 2.552 Z M 18.285 34.792 C 17.905 37.632 14.295 41.892 8.415 43.062 C 9.055 40.122 11.155 31.572 15.275 24.862 C 19.205 18.452 23.435 15.802 25.035 14.972 C 25.255 15.542 25.855 15.972 26.655 16.112 C 26.305 16.582 25.925 17.102 25.495 17.722 C 23.665 20.372 22.385 25.142 22.165 25.972 C 21.665 26.742 18.755 31.362 18.295 34.782 L 18.285 34.792 Z M 27.525 33.552 C 29.045 37.412 28.125 39.262 25.885 41.322 C 24.155 42.922 22.755 45.142 22.005 46.462 C 21.295 45.202 20.395 42.732 21.645 39.462 C 23.585 34.372 23.615 27.282 23.605 26.382 C 23.785 25.702 25.035 21.032 26.725 18.582 C 27.775 17.062 28.575 16.052 29.085 15.452 C 29.085 15.452 29.095 15.432 29.105 15.432 C 29.185 15.342 29.255 15.252 29.325 15.182 C 29.715 15.402 30.195 15.542 30.735 15.542 C 30.865 15.542 30.985 15.532 31.105 15.512 L 29.895 24.162 C 29.165 25.072 25.905 29.472 27.525 33.552 Z M 36.535 42.732 C 35.265 41.422 32.335 38.112 31.425 34.612 C 30.245 30.062 31.325 24.682 31.335 24.622 C 31.335 24.622 31.335 24.602 31.335 24.592 C 31.335 24.592 31.335 24.582 31.335 24.572 L 32.435 16.752 C 33.725 20.412 35.935 26.502 37.365 29.452 C 37.735 32.702 38.135 39.852 36.525 42.732 L 36.535 42.732 Z M 49.465 37.352 C 48.646 35.511 42.425 34.052 38.685 28.452 C 38.625 28.362 38.545 28.302 38.465 28.242 C 36.775 24.532 34.115 16.992 33.185 14.302 C 33.425 14.362 33.675 14.402 33.945 14.402 C 34.555 14.402 35.095 14.232 35.495 13.962 C 36.575 15.392 38.195 17.542 39.465 19.262 C 40.845 21.142 42.235 21.722 43.465 22.232 C 44.225 22.552 44.885 22.822 45.485 23.382 C 47.005 24.822 47.645 28.112 47.655 28.142 C 47.655 28.162 47.675 28.182 47.675 28.202 C 47.675 28.222 47.675 28.232 47.675 28.252 C 48.685 31.122 49.785 35.492 49.465 37.352 Z M 57.065 28.742 C 58.705 30.952 59.255 32.302 59.435 33.022 C 58.105 32.492 55.775 31.552 54.395 31.032 C 54.135 30.932 53.865 30.832 53.595 30.732 C 51.795 30.082 49.755 29.342 49.115 27.762 C 48.985 27.152 48.255 23.932 46.525 22.292 C 45.735 21.542 44.875 21.192 44.055 20.842 C 42.905 20.362 41.825 19.912 40.685 18.372 C 39.385 16.602 37.715 14.382 36.635 12.952 C 36.785 12.972 36.935 12.982 37.085 12.982 C 37.925 12.982 38.635 12.662 39.025 12.182 C 41.575 14.582 46.665 17.372 47.455 17.792 C 48.195 18.552 53.985 24.592 57.065 28.732 L 57.065 28.742 Z M 62.805 24.582 C 60.315 24.662 58.295 24.152 56.295 21.012 C 54.195 17.712 51.525 16.232 48.095 16.452 C 47.165 15.942 42.345 13.272 40.065 11.122 C 41.155 11.002 41.975 10.332 41.975 9.502 C 41.975 9.442 41.955 9.382 41.955 9.322 C 43.665 9.422 46.415 9.702 48.525 10.462 C 51.385 11.492 54.515 13.742 55.305 14.322 C 56.015 15.142 58.395 17.612 62.875 19.892 C 66.735 21.862 67.885 23.882 68.285 25.262 C 66.985 24.952 64.815 24.522 62.815 24.592 L 62.805 24.582 Z" style=""/></svg>