<?xml version="1.0" encoding="UTF-8"?>
<svg id="Layer_1" data-name="Layer 1" xmlns="http://www.w3.org/2000/svg" viewBox="0 0 80 105">
  <defs>
    <style>
      .cls-1 {
        stroke-miterlimit: 10;
        fill: #000;
        stroke: #000;
      }
      @media (prefers-color-scheme: dark) {
        .cls-1 {
          fill: #fff;
          stroke: #fff;
        }
      }
    </style>
  </defs>
  <path class="cls-1" d="M69.72,27.38c.2-.16,.29-.42,.26-.67-.16-1.28-.58-4.68-6.43-7.65-3.11-1.58-5.16-3.28-6.27-4.34,.79,.04,1.67,.2,2.55,.47,.71,.22,1.49,.7,2.32,1.2,1.63,.99,3.48,2.12,5.85,2.12h0c1.03,0,2.09-.23,3.15-.67,3.32-1.4,5.14-1.61,5.92-1.61,.25,0,.38,.02,.38,.02h0c.23,.06,.47,0,.65-.13,.18-.14,.29-.36,.29-.6,0-.63-.72-4.04-14.84-9.12-4.88-1.76-9.32-2.65-13.21-2.65s-6.17,.9-7.13,1.39c-1.38-1.16-5.94-4.63-10.86-4.63-1.71,0-3.3,.43-4.73,1.27-6.07,3.59-4.07,10.14-3.19,12.32-1.73,.87-6.24,3.64-10.46,10.5-5.18,8.44-7.19,19.31-7.27,19.77-.04,.24,.03,.48,.19,.65,.17,.17,.4,.26,.64,.23,6.86-.88,11.68-5.74,12.22-9.73,.24-1.81,1.31-4.09,2.24-5.8-.16,2.66-.59,6.65-1.77,9.73-2.15,5.63,1.15,9.32,1.3,9.48,.14,.16,.35,.24,.55,.24,.04,0,.07,0,.11,0,.25-.04,.46-.19,.57-.42,.02-.04,1.79-3.63,4.14-5.8,2.52-2.33,3.83-4.82,2.01-9.44-.7-1.77-.19-3.71,.52-5.24-.14,2.05-.12,4.73,.54,7.24,1.28,4.94,5.95,9.27,6.15,9.45,.3,.28,.77,.26,1.06-.04,2.3-2.45,2.18-9.09,1.9-12.92,2.35,2.81,4.95,4.69,6.99,5.87,.03,.5,.33,5.42,.58,11.51-.2,7.02-.97,15.01-1.47,20.31l-.21,2.19c-.36,3.84-.76,8.97-1.1,13.47-.59-2.31-1.54-5.01-3.09-7.72,.08-.7,.25-4-2.78-7.63-3.78-4.53-13.07-10.01-35.84-10.54-.1-.02-.2-.02-.3,0-.2,0-.39,0-.59-.01-.37,.01-.75,.31-.76,.72-.02,.41,.29,.75,.7,.78,.02,0,.27,.02,.71,.06,1.97,1.05,14.16,7.62,23.16,13.95,8.01,5.64,12.78,4.57,14.59,3.75,3.58,6.42,3.65,12.8,3.65,12.9,0,.11,.03,.22,.07,.31-.12,1.62-.21,2.8-.25,3.29-.16,1.77,.2,3.32,.95,4.15,.43,.48,1,.73,1.62,.73,.09,0,.18,0,.3-.02,1.01-.11,2.26-.25,2.97-1.27,.57-.82,.64-2.03,.23-3.7-.71-2.85-.96-12.89-.71-28.28,.07-4.38-.04-10.25-.34-17.44,.13-4.65,0-8.13-.38-10.6,1.1,.53,1.84,.78,1.93,.81,.33,.11,.69-.03,.87-.32,.95-1.56,.24-5.17-.5-7.88,.96,.56,2.05,.96,3.02,1.31,.27,.1,.53,.19,.78,.29,1.98,.75,5.97,2.37,6.01,2.39,.34,.14,.72,.01,.91-.29,.27-.42,.88-2.13-2.52-6.69-2.48-3.33-6.54-7.72-8.58-9.87,2.14,.27,3.85,1.51,5.33,3.84,1.99,3.13,4.33,4.38,7.83,4.27,2.8-.1,6.13,.91,6.16,.92,.24,.08,.51,.02,.7-.14ZM25.93,73.71c-6.72-4.73-15.2-9.58-19.94-12.21,5.88,.89,16.11,3.04,24.65,7.97,3.74,2.16,6.38,5,8.24,7.92-1.54,.61-5.76,1.38-12.94-3.67Zm5.45-5.55c-4.89-2.82-10.31-4.75-15.19-6.07,12.14,1.86,17.88,5.58,20.6,8.8,1.26,1.49,1.9,2.9,2.22,4.04-1.87-2.51-4.34-4.88-7.62-6.77Zm16.35,29.76c-.32,.46-1.09,.54-1.92,.64-.25,.02-.45-.04-.62-.23-.46-.5-.69-1.7-.57-3,.06-.65,.2-2.5,.38-4.96,.38-5.19,.96-13.03,1.46-18.37l.21-2.19c.1-1.03,.21-2.16,.32-3.37,0,.11,0,.22,0,.33-.18,10.98-.19,24.86,.76,28.67,.3,1.19,.3,2.05,0,2.48ZM50.36,5.25c3.71,0,7.98,.86,12.7,2.56,9.16,3.3,12.28,5.77,13.33,6.94-1.19,.11-3.05,.53-5.81,1.7-.88,.37-1.72,.55-2.56,.55-1.94,0-3.53-.97-5.07-1.9-.91-.56-1.78-1.08-2.66-1.36-1.17-.36-2.3-.55-3.34-.55-.55,0-.93,.05-1.18,.1-1.23-.88-4.03-2.77-6.73-3.75-1.49-.54-3.24-.85-4.77-1.03,.21-.25,.33-.54,.33-.86,0-.47-.26-.89-.68-1.18,.77-.39,2.84-1.22,6.44-1.22Zm-6.76,2.41c0,.3-.55,.65-1.27,.65s-1.27-.35-1.27-.65,.55-.65,1.27-.65,1.27,.35,1.27,.65Zm-2.62,2.35c0,.3-.55,.65-1.27,.65s-1.27-.35-1.27-.65,.55-.65,1.27-.65h0c.53,0,.97,.19,1.16,.42,.07,.08,.1,.16,.1,.23Zm-2.67,1.95c-.1,.27-.59,.55-1.23,.55-.71,0-1.27-.35-1.27-.65s.55-.65,1.27-.65c.37,0,.69,.1,.92,.23,.21,.12,.34,.28,.34,.42,0,.03-.03,.07-.04,.1Zm-3.41,1.72c-.23,.14-.56,.24-.94,.24-.71,0-1.27-.35-1.27-.65s.55-.65,1.27-.65c.09,0,.16,.02,.24,.03,.59,.07,1.03,.36,1.03,.62,0,.14-.13,.28-.32,.4Zm-5.42,.73c0-.08,.05-.17,.13-.25,.2-.21,.62-.39,1.14-.39,.26,0,.48,.06,.68,.13,.35,.13,.59,.33,.59,.52,0,.22-.31,.47-.76,.58-.16,.04-.33,.06-.51,.06-.33,0-.62-.08-.84-.19-.26-.13-.43-.3-.43-.46Zm-2.26,1.28c-.71,0-1.27-.35-1.27-.65,0,0,.01-.02,.01-.03,.01-.1,.08-.19,.19-.28,.22-.19,.6-.34,1.07-.34,.43,0,.78,.13,1.01,.29,.16,.11,.26,.24,.26,.36,0,.27-.46,.57-1.08,.63-.06,0-.12,.02-.19,.02Zm1.19-12.62c1.19-.7,2.52-1.06,3.96-1.06,4.07,0,8.03,2.8,9.57,4.03-1.08,.13-1.89,.79-1.89,1.62,0,.23,.06,.44,.17,.63-.09,.02-.17,.04-.24,.09-.09,0-.18-.02-.28-.02-1.27,0-2.27,.72-2.27,1.65,0,.08,.02,.16,.03,.23-.13-.01-.25-.03-.39-.03-1.21,0-2.16,.65-2.25,1.51-.04,0-.07,0-.11,0-.24-.06-.5-.1-.77-.1-1.11,0-2,.55-2.22,1.3-.3-.1-.63-.17-.99-.17-.96,0-1.76,.41-2.09,1-.39-.23-.88-.37-1.43-.37-.49,0-.94,.11-1.31,.3-.72-1.64-2.81-7.48,2.5-10.62Zm-10.12,32.24c-.38,2.84-3.99,7.1-9.87,8.27,.64-2.94,2.74-11.49,6.86-18.2,3.93-6.41,8.16-9.06,9.76-9.89,.22,.57,.82,1,1.62,1.14-.35,.47-.73,.99-1.16,1.61-1.83,2.65-3.11,7.42-3.33,8.25-.5,.77-3.41,5.39-3.87,8.81Zm9.23-1.25c1.53,3.87,.61,5.72-1.63,7.78-1.73,1.6-3.13,3.82-3.88,5.14-.71-1.26-1.61-3.73-.36-7,1.94-5.09,1.97-12.18,1.96-13.08,.18-.68,1.43-5.35,3.12-7.8,1.05-1.52,1.85-2.53,2.36-3.13,0,0,.01-.02,.02-.02,.08-.09,.15-.18,.22-.25,.39,.22,.87,.36,1.41,.36,.13,0,.25-.01,.37-.03l-1.21,8.65c-.73,.91-3.99,5.31-2.37,9.39Zm9.02,9.19c-1.27-1.31-4.2-4.62-5.11-8.12-1.18-4.55-.1-9.93-.09-9.99,0,0,0-.02,0-.03,0,0,0-.01,0-.02l1.1-7.82c1.29,3.66,3.5,9.75,4.93,12.7,.37,3.25,.77,10.4-.84,13.28Zm12.94-5.37c-1.84-.76-7.05-3.31-10.79-8.91-.06-.09-.14-.15-.22-.21-1.69-3.71-4.35-11.25-5.28-13.94,.24,.06,.49,.1,.76,.1,.61,0,1.15-.17,1.55-.44,1.08,1.43,2.7,3.58,3.97,5.3,1.38,1.88,2.77,2.46,4,2.97,.76,.32,1.42,.59,2.02,1.15,1.52,1.44,2.16,4.73,2.17,4.76,0,.02,.02,.04,.02,.06,0,.02,0,.03,0,.05,1.01,2.87,2.11,7.24,1.79,9.1Zm7.59-8.62c1.64,2.21,2.19,3.56,2.37,4.28-1.33-.53-3.66-1.47-5.04-1.99-.26-.1-.53-.2-.8-.3-1.8-.65-3.84-1.39-4.48-2.97-.13-.61-.86-3.83-2.59-5.47-.79-.75-1.65-1.1-2.47-1.45-1.15-.48-2.23-.93-3.37-2.47-1.3-1.77-2.97-3.99-4.05-5.42,.15,.02,.3,.03,.45,.03,.84,0,1.55-.32,1.94-.8,2.55,2.4,7.64,5.19,8.43,5.61,.74,.76,6.53,6.8,9.61,10.94Zm5.74-4.16c-2.49,.08-4.51-.43-6.51-3.57-2.1-3.3-4.77-4.78-8.2-4.56-.93-.51-5.75-3.18-8.03-5.33,1.09-.12,1.91-.79,1.91-1.62,0-.06-.02-.12-.02-.18,1.71,.1,4.46,.38,6.57,1.14,2.86,1.03,5.99,3.28,6.78,3.86,.71,.82,3.09,3.29,7.57,5.57,3.86,1.97,5.01,3.99,5.41,5.37-1.3-.31-3.47-.74-5.47-.67Z"/>
</svg>
